<svg xmlns="http://www.w3.org/2000/svg" version="1.1" xmlns:xlink="http://www.w3.org/1999/xlink" xmlns:svgjs="http://svgjs.dev/svgjs" width="1000" height="1000"><g clip-path="url(#SvgjsClipPath1137)"><rect width="1000" height="1000" fill="#ffffff"></rect><g transform="matrix(6.106870229007634,0,0,6.106870229007634,100,252.67175572519082)"><svg xmlns="http://www.w3.org/2000/svg" version="1.1" xmlns:xlink="http://www.w3.org/1999/xlink" xmlns:svgjs="http://svgjs.dev/svgjs" width="131" height="81"><svg width="131" height="81" fill="none" xmlns="http://www.w3.org/2000/svg">
    <path d="M121.844 36.995h-.954c-7.595.02-15.191-.13-22.784-.11-11.356.032-22.712.114-34.067.116a3.61 3.61 0 0 1-1.445-.298c-1.769-.745-3.629-.853-5.52-.701-1.834.146-3.634.48-5.412.942-.18.046-.29.051-.432-.137-1.381-1.836-3.444-2.665-5.44-3.54-4.391-1.93-8.983-3.235-13.711-4.027-2.236-.374-4.494-.508-6.779-.255-1.133.124-2.296.063-3.432.25-2.706.45-5.11 1.614-7.357 3.147-.382.26-.759.558-1.51.484 1.81-1.635 3.934-2.48 5.696-3.872-1.49-.134-2.84.416-4.254.714.58-.898 1.463-1.377 2.415-1.7 1.377-.47 2.812-.58 4.266-.67 2.135-.134 4.285-.063 6.408-.403.074-.012.156 0 .223-.027.474-.188 1.16-.212 1.304-.7.092-.313-.57-.53-.89-.795a27.009 27.009 0 0 1-3.371-3.318c-1.168-1.383-2.666-2.317-4.208-3.223-1.22-.718-2.504-1.003-3.892-.985-.893.012-1.789.001-2.715-.1.874-.827 2-1.118 3.26-1.462-.817-.524-1.525-.912-2.094-1.502-.602-.623-.811-1.405-1.031-2.19-.063-.226.042-.476.259-.559.207-.078.238.178.346.303 1.46 1.688 2.934 3.358 4.926 4.468.596.331 1.262.419 1.873.696 1.853.84 3.389 2.13 4.973 3.358.435.337.427.344.913.398-.022-.07-.02-.163-.066-.197-1.456-1.095-1.46-2.753-1.486-4.29-.073-4.038 1.462-7.588 3.63-10.905a.491.491 0 0 1 .17-.142c.038-.022.095-.01.243-.017l-1.413 4.508c1.286-.267 1.37-1.576 2.32-2.26-.16 1-.432 1.772-.82 2.507-.542 1.023-1.115 2.011-1.327 3.195-.217 1.209-.059 2.374.087 3.548.373 2.987 1.752 5.51 3.845 7.6 1.791 1.79 3.821 3.26 6.357 3.93 1.916.507 3.793 1.16 5.722 1.637a25.86 25.86 0 0 0 8.172.689c3.043-.227 5.855-1.151 8.152-3.316 1.456-1.372 2.138-3.082 2.45-5.008.183-1.137.198-2.274.13-3.412-.072-1.207-.754-2.15-1.493-3.04-1.685-2.027-3.867-3.022-6.488-3.267-2.785-.26-5.564-.545-8.36-.593-.264-.005-.555.008-.792-.29.717-.387 1.507-.301 2.24-.396.838-.107 1.682-.221 2.54-.22 1.147.003 2.292-.088 3.438-.137.287-.012.635-.09.694-.332.06-.25-.262-.417-.485-.58-2.395-1.733-5.119-2.858-7.708-4.235-1.389-.739-2.821-1.377-4.297-1.85-1.519-.488-3.146-.458-4.746-.351-.144.009-.323.077-.427.015-.301-.176-.673.346-.807.015-.128-.315.343-.463.548-.694.317-.355-.098-.371-.3-.447-1.509-.568-2.836-1.44-4.077-2.452-.148-.12-.257-.287-.456-.516 1.007.038 1.858.346 2.657.636 1.284.467 2.644.619 3.91 1.133 1.483.604 3 1.124 4.495 1.696 5.64 2.153 10.989 4.983 16.614 7.166.14.055.271.146.414.169.176.028.38.27.533.012.111-.19-.118-.304-.208-.435-1.164-1.697-2.197-3.463-2.73-5.47-.195-.732-.424-1.49-.12-2.265.052-.13-.015-.333.19-.35.173-.013.235.154.308.288.246.45.24.965.383 1.442.034.117 0 .261.048.37.176.393.11 1.076.593 1.1.42.02.305-.641.46-.986.205-.457.421-.907.767-1.279.122-.13.27-.283.45-.173.161.097.018.265.003.405-.069.671-.119 1.344-.19 2.015-.099.91.178 1.728.606 2.508.601 1.097 1.256 2.151 2.079 3.111 1.094 1.276 2.043 2.654 2.492 4.316.167.62.091 1.245.08 1.867-.008.534.103.711.689.532 1.763-.538 3.541-1.024 5.37-1.307 1.304-.202 2.615-.306 3.927-.406 1.948-.15 3.794-.557 5.356-1.847.754-.623 1.618-1.087 2.514-1.48.204-.089.4-.2.657-.032l-1.77 2.322c-.06.08-.117.162-.17.248-.803 1.28-.73 1.377.794 1.557a31.73 31.73 0 0 1 4.33.826c.202.053.53.052.523.33-.006.286-.357.257-.537.275-1.571.161-3.152.258-4.719.005-1.09-.176-2.181-.24-3.281-.288-1.816-.078-3.631-.03-5.443.047-1.984.084-3.825.58-5.207 2.173-.855.984-1.105 2.2-1.35 3.403-.183.9-.262 1.828-.307 2.747-.113 2.36 1.112 4.087 2.906 5.363 2.652 1.885 5.67 2.853 8.92 3.172 3.184.313 6.371.555 9.564.746 1.99.119 3.981.197 5.969.307 1.85.104 3.704.022 5.548.146 4.375.292 8.758.05 13.137.25 2.418.11 4.842.303 7.27.18.268-.014.566-.04.719.453l.003.003ZM72.287 71.915c-.791-.64-1.58-1.28-2.374-1.92-.23-.186-.459-.44-.78-.18-.31.251-.037.528.052.74.34.81.841 1.538 1.402 2.201 1.601 1.893 2.33 4.146 2.764 6.523.048.266.297.544.027.889-.56-.438-.919-1.025-1.033-1.669-.358-2.014-1.458-3.635-2.645-5.213-.42-.557-.924-1.05-1.398-1.566-.15-.163-.31-.357-.577-.229-.257.123-.1.334-.111.52-.098 1.838-.58 3.579-1.273 5.407-.367-.592-.05-1.01-.042-1.434.059-3.377-.134-6.74-.471-10.095-.053-.517-.272-1.008-.525-1.465-.206-.373-.466-.52-.977-.432-1.217.21-2.041.86-2.803 1.803-2.958 3.66-4.34 8.036-5.761 12.4-.304.936-.593 1.878-.975 2.805-.015-1.51-.096-3 .032-4.51.317-3.768 2.067-6.904 4.235-9.826 1.327-1.789 2.472-3.654 3.536-5.607 1.192-2.188-.778-6.413-3.701-6.89a35.444 35.444 0 0 0-6.711-.448c-3.465.096-6.899.532-10.304 1.19-3.904.752-7.815 1.479-11.652 2.544-.67.187-1.342.378-1.998.608-4.023 1.411-6.43 4.414-7.937 8.233-.48 1.219.062 2.457.39 3.646.693 2.519 1.88 4.823 3.235 7.043.382.624.65 1.286.827 1.99.035.137.09.31-.084.389-.057.025-.21-.042-.247-.107-.982-1.749-2.58-2.973-3.822-4.498-.84-1.03-1.42-2.23-1.785-3.513-.09-.308-.207-.537-.523-.493-.335.046-.27.365-.272.608-.009.793-.253 1.531-.612 2.213-1.324 2.516-3.276 4.43-5.727 5.854a1.379 1.379 0 0 1-.748.194c.674-.818 1.27-1.598 1.925-2.324 2.567-2.855 3.752-6.283 4.274-10.012.184-1.31.697-2.526 1.197-3.752.397-.974 1.26-1.52 1.791-2.35.118-.184.363-.354.256-.587-.114-.247-.397-.107-.606-.133-1.565-.183-2.877.598-4.17 1.242a30.631 30.631 0 0 0-7.23 5.02c-1.02.951-1.621 2.132-1.933 3.476-.25 1.085-1.327 2.084-2.288 2.046 1.036-1.232 1.643-2.622 1.944-4.286-1.988.516-3.783 1.664-6.077 1.277.76-.364 1.403-.397 2.016-.535 1.891-.426 3.357-1.583 4.842-2.731 1.655-1.28 3.11-2.802 4.748-4.08 1.881-1.466 3.998-2.578 6.485-2.811a8.448 8.448 0 0 0 3.85-1.33c.65-.425.664-.757.101-1.299-.818-.787-1.904-.725-2.897-.78-2.047-.112-4.091.044-6.136.241-1.502.145-3.026.127-4.532-.639.707-.19 1.279.022 1.86.057 1.656.098 3.29-.095 4.907-.44.238-.052.485-.14.685-.273.199-.132.455-.302.397-.588-.064-.324-.37-.15-.565-.193-2.01-.44-3.648-1.556-5.188-2.845-.337-.283-.662-.58-1.08-.948.51-.093.813.134 1.128.275 3.27 1.476 6.57 2.877 9.977 4.007 1.423.472 2.886.707 4.398.754.916.029 1.839.092 2.76.119 3.212.09 6.35-.483 9.47-1.136 1.772-.372 3.515-.892 5.292-1.232 2.776-.532 5.108-1.905 7.264-3.637.303-.244.473-.28.819-.075 2.727 1.613 5.684 1.922 8.787 1.605 1.774-.182 3.326-.788 4.726-1.848.28-.212.573-.138.862-.138 7.896-.006 15.794-.005 23.69-.005h32.562c-.618.353-1.31.437-1.978.432-3.154-.02-6.3.191-9.454.191-2.749 0-5.499.14-8.245.297-3.292.186-6.588.28-9.88.456-3.58.19-7.151.534-10.69 1.143-1.472.253-2.955.44-4.431.668-2.697.42-4.514 2.1-5.983 4.243-1.064 1.553-1.98 3.212-2.179 5.104-.258 2.47.14 4.855 1.552 6.977.8 1.203 1.635 2.386 2.455 3.578-.036.031-.07.063-.105.096l-.005-.002ZM65.553 47.19l3.791-5.663c.252-.375.526-.734.754-1.121.909-1.545 2.38-2.144 4.04-2.183 3.23-.077 6.464-.024 9.696-.02.214 0 .49-.092.618.15.131.243-.11.414-.228.587-1.612 2.393-3.237 4.775-4.84 7.173-.181.272-.396.405-.682.517-1.631.644-3.328.804-5.06.748-.26-.009-.556-.03-.676-.231-.135-.23.175-.38.3-.548 1.462-1.983 2.803-4.049 4.157-6.104.17-.258.632-.637.266-.858-.334-.203-.92-.265-1.321.125-.14.135-.24.316-.35.48-1.239 1.804-2.492 3.6-3.705 5.421-.34.51-.787.79-1.335.993-1.716.638-3.496.626-5.425.534Z" fill="#219242"></path>
    <path d="M18.85 43.256c-1.192-.367-1.956.063-2.498 1.026-.195.346-.514.627-.686.982-.704 1.469-2.058 1.821-3.47 2.116-.866.18-1.71.147-2.577.004-.448-.073-.447-.2-.238-.513.417-.624.83-1.252 1.24-1.879 1.108-1.688 2.247-3.357 3.307-5.073.48-.777 1.048-1.21 1.982-1.302 1.193-.116 2.362-.44 3.577-.427.466.004.594.057.29.52-.578.88-1.11 1.792-1.625 2.712-.42.749-.363.81.466.842.502.02.92.035 1.24-.528.363-.638.996-1.122 1.35-1.763.575-1.041 1.443-1.571 2.556-1.603 1.263-.034 2.516-.36 3.858-.115-.483.98-1.17 1.811-1.729 2.723-.991 1.619-2.166 3.105-3.221 4.676-.432.644-.98 1.041-1.7 1.247-1.117.32-2.221.715-3.411.619a7.723 7.723 0 0 1-.811-.124c-.539-.105-.634-.266-.241-.76.85-1.07 1.66-2.177 2.343-3.383l-.002.003Z" fill="#f59833"></path>
    <path d="M119.706 41.677c-1.009 1.517-2.013 3.04-3.033 4.55-.253.375-.706.315-1.084.386a4.84 4.84 0 0 1-1.12.096c-1.868-.101-3.633.334-5.383.918-.317.105-.695.05-1.042.037-.211-.007-.417-.095-.292-.374.244-.548-.127-.512-.47-.514-.927-.003-1.855-.025-2.782-.006-.407.01-.791-.034-1.2-.227.307-.686.808-1.248 1.212-1.868.342-.525.787-.998 1.042-1.56.604-1.332 1.736-1.576 3.003-1.603a50.88 50.88 0 0 1 2.03 0c.505.009.963-.015 1.373-.417.373-.365.951-.231 1.428-.307.658-.104 1.344-.025 2.04-.025-.448.845-.419.913.473.892 1.243-.029 2.489.141 3.725-.16l.08.186v-.004Zm-11.685 4.48c.256-.026.606-.3.88-.67.596-.803 1.183-1.614 1.759-2.433.136-.192.399-.412.218-.66-.186-.258-.507-.142-.765-.068-.24.068-.471.175-.622.394l-1.987 2.916c-.241.354-.192.56.516.52h.001Zm7.054-3.884c-.364.092-.748.17-.995.55-.57.88-1.16 1.748-1.742 2.62-.126.19-.284.396-.111.613.18.227.462.19.695.1.203-.08.418-.2.555-.362.772-.924 1.336-1.988 1.961-3.008.188-.307.067-.53-.362-.511l-.001-.002ZM118.054 47.375c1.217-1.844 2.295-3.53 3.435-5.171.405-.584.998-.974 1.797-.852.866.134 1.717-.308 2.6-.102-.256 1.01-1.174 1.577-1.648 2.493.548.017.892-.244 1.151-.624.716-1.053 1.597-1.749 2.967-1.795.688-.024 1.385-.103 2.08-.125.478-.017.708.171.472.612-1.021 1.9-2.1 3.805-3.811 5.148-.922.723-2.197.689-3.385.48-.483-.083-.435-.282-.19-.577.587-.706 1.172-1.414 1.87-2.255-.921.135-1.554.538-1.947 1.118-.957 1.408-2.23 1.897-3.867 1.66-.433-.062-.883-.008-1.521-.008l-.003-.002Z" fill="#219242"></path>
    <path d="M37.888 47.375c.47-1.133 1.224-1.91 1.865-2.77-.182-.141-.3-.05-.455.046-.687.42-1.33.898-1.873 1.492-.804.882-1.744 1.372-2.976 1.243-.56-.059-1.132-.01-1.846-.01 1.262-1.878 2.43-3.645 3.632-5.386.436-.632 1.217-.481 1.844-.6.643-.122 1.328-.027 2.142-.027l-1.588 2.453c.117.121.289.148.346.076.54-.681 1.437-.972 1.869-1.786.397-.749 1.223-.642 1.893-.723.79-.097 1.6-.025 2.401-.03.394-.004.512.127.28.489-1 1.558-1.97 3.138-3.092 4.616-.47.618-1.09.923-1.867.919-.825-.006-1.648 0-2.575 0v-.002ZM54.372 47.083c1.167-1.682 2.332-3.367 3.504-5.045.206-.294.516-.463.867-.538.835-.18 1.638-.482 2.523-.455 1.476.045 2.955.008 4.433.014.875.003.925.077.635.797-.679 1.684-1.8 3.103-2.817 4.574-.429.622-1.237.902-1.974.92-2.371.06-4.744.022-7.117.022a19.327 19.327 0 0 0-.056-.289h.002Zm8.305-5.072c-.702-.155-1.196-.03-1.525.449-.861 1.253-1.695 2.524-2.543 3.787-.15.224-.14.432.162.356.416-.102.917-.069 1.196-.487.896-1.344 1.78-2.695 2.71-4.105Z" fill="#f59833"></path>
    <path d="M96.153 47.223c-1.102 0-2.203-.006-3.306.003-.406.003-.665-.018-.327-.508 1.008-1.463 1.971-2.957 3.004-4.403.496-.695 1.301-.877 2.114-.967.808-.09 1.616-.012 2.425.003 1.252.025 2.504.02 3.756-.002.602-.01.639.244.379.676a44.555 44.555 0 0 1-3.018 4.389c-.473.605-1.192.802-1.948.808-1.026.009-2.053.001-3.08.001Zm3.709-5.261c-.396.05-.805.09-1.05.472a503.1 503.1 0 0 0-2.398 3.805c-.072.114-.197.251-.072.403.131.16.287.12.471.073.527-.131.953-.352 1.258-.843.514-.826 1.1-1.608 1.637-2.422.205-.31.384-.646.527-.989.132-.319.042-.546-.373-.5Z" fill="#219242"></path>
    <path d="M56.364 41.2c-.405 1.034-1.079 1.812-1.568 2.694-.59 1.065-1.53 1.402-2.678 1.378-.901-.018-1.804.018-2.706-.014-.428-.015-.695.107-.893.5-.557 1.103-1.502 1.52-2.703 1.468-.55-.024-1.101-.007-1.653-.003-.378.003-.437-.105-.218-.435 1.074-1.61 2.09-3.261 3.215-4.834.477-.665 1.378-.931 2.12-.851 1.97.215 3.933-.077 5.894.09.347.03.7.004 1.188.004l.002.003Zm-4.264.978c-.896-.27-1.403.08-1.753.795-.152.31-.399.573-.566.877-.095.175-.394.334-.185.57.156.176.421.104.642.096.216-.007.383-.118.509-.278.504-.644.993-1.298 1.351-2.058l.002-.002Z" fill="#f59833"></path>
    <path d="M94.123 41.358c-.396.611-.638 1.183-1.05 1.574-.495.471-.72 1.103-1.157 1.604-.243.277-.47.552-.795.554-1.298.007-2.564.629-3.885.207-.214-.067-.39.014-.517.2-.071.103-.146.204-.23.297-.41.454-.588 1.162-1.254 1.333-1.016.26-2.045.375-3.097.13-.39-.092-.373-.208-.2-.48.96-1.523 1.875-3.076 2.89-4.56.545-.8 1.546-.801 2.38-.83 2.247-.081 4.5-.027 6.916-.027l-.001-.002Zm-4.167.831c-.47-.105-.997-.232-1.167 0-.572.782-1.245 1.512-1.708 2.456.656.025 1.24.138 1.56-.474.354-.678.81-1.285 1.315-1.983v.001Z" fill="#219242"></path>
    <path d="M34.49 41.315c-.9.403-1.87.511-2.81.606-.6.06-.967.24-1.276.71-.203.31-.463.583-.738.923 1.169.344 2.348-.028 3.568.282-.397.422-.84.515-1.301.527-.727.02-1.455.038-2.179 0-.46-.024-.739.107-.936.539-.227.496-.528.96-.845 1.522 1.25.178 2.454.09 3.724.07-.235.627-.735.851-1.228.86-2.222.042-4.446.018-6.768.018 1.19-1.917 2.31-3.769 3.486-5.585.414-.638 1.22-.475 1.833-.549 1.53-.184 3.076-.305 4.625-.193.294.021.593-.009.844.27h.002ZM41.19 39.974c-.375.468-.351.701.22.634.22-.026.467.072.658-.077 1.177-.92 2.537-.364 3.837-.567-.248.763-.986 1.256-1.827 1.081-1.02-.21-2.032-.103-3.047-.132a57.625 57.625 0 0 0-2.928 0c-.495.01-.415-.236-.234-.487a.994.994 0 0 1 1.12-.384c.693.206 1.356.122 2.2-.068Z" fill="#f59833"></path>
</svg></svg></g></g><defs><clipPath id="SvgjsClipPath1137"><rect width="1000" height="1000" x="0" y="0" rx="350" ry="350"></rect></clipPath></defs></svg>