<svg width="55" height="59" viewBox="0 0 55 59" fill="none" xmlns="http://www.w3.org/2000/svg">
<path d="M13.3577 45.1707C13.3577 42.79 10.3851 39.7773 10.3851 39.7773C10.3851 39.7773 7.41248 42.79 7.41248 45.1707C7.41248 46.8128 8.74302 48.1433 10.3851 48.1433C12.0271 48.1433 13.3577 46.8128 13.3577 45.1707Z" stroke="#262626" stroke-width="2" stroke-miterlimit="10" stroke-linecap="round"/>
<path d="M36.3908 23.6282L50.1591 13.2864C53.0115 11.146 53.5856 7.09649 51.4407 4.24849C49.3002 1.39604 45.2507 0.821991 42.4027 2.96689L27.8779 13.8827L27.3083 13.1218C26.7254 12.3475 25.6307 12.1917 24.8564 12.7747L24.3669 13.144C23.5926 13.727 23.4368 14.8217 24.0198 15.596L32.9153 27.4374C33.4983 28.2117 34.593 28.3675 35.3673 27.7845L35.8568 27.4152C36.6311 26.8322 36.7868 25.7375 36.2039 24.9632C35.8879 24.5449 35.9725 23.9486 36.3908 23.6327V23.6282Z" stroke="#262626" stroke-width="2" stroke-miterlimit="10" stroke-linecap="round"/>
<path d="M31.2733 25.248L25.6574 17.772L12.2985 27.8067C11.5198 28.3941 11.1638 29.3865 11.3952 30.3343C11.6132 31.2332 11.275 32.1722 10.5408 32.7284L10.3583 32.8664C9.56177 33.4627 9.40157 34.593 10.0023 35.3895C10.5986 36.1861 11.7289 36.3463 12.5255 35.7455L12.7079 35.6076C13.4466 35.0513 14.4434 34.9935 15.2444 35.4518C16.0899 35.9369 17.1446 35.8701 17.9233 35.2872L31.2822 25.2524L31.2733 25.248Z" stroke="#262626" stroke-width="2" stroke-miterlimit="10" stroke-linecap="round"/>
<path d="M27.8779 13.874L30.6903 17.6209" stroke="#262626" stroke-width="2" stroke-miterlimit="10" stroke-linecap="round"/>
<path d="M18.8489 26.9878C20.2951 27.1925 21.5856 27.7844 22.6492 28.6343L27.8156 24.7539L25.1634 21.2251L17.5673 26.9211C17.99 26.9122 18.4172 26.9255 18.8489 26.9878Z" fill="#30A9FE"/>
<path d="M53.7324 50.377V53.3807C53.7324 55.5612 51.9658 57.3278 49.7853 57.3278H5.61463C3.43413 57.3278 1.66748 55.5612 1.66748 53.3807V50.377" stroke="#262626" stroke-width="2" stroke-miterlimit="10" stroke-linecap="round"/>
<path d="M4.33752 51.6187V53.3809C4.33752 54.0839 4.91157 54.658 5.61467 54.658H49.7809C50.484 54.658 51.058 54.0839 51.058 53.3809V51.6187H4.33752Z" fill="#30A9FE"/>
</svg>
