<svg width="45" height="45" viewBox="0 0 45 45" fill="none" xmlns="http://www.w3.org/2000/svg">
<path d="M4.37551 27.5994C4.83367 26.8666 4.65666 25.9203 4.99284 25.138C5.06573 24.9688 5.06871 24.6802 4.72508 24.5111C3.73586 24.0242 3.11258 23.0591 2.56218 22.0308C2.46252 21.8429 2.49524 21.6669 2.48334 21.4825C2.50863 21.4517 2.53541 21.4193 2.56069 21.3885C2.53392 21.3817 2.50714 21.3765 2.48037 21.3697C1.98352 20.7104 1.93295 19.887 2.05939 19.1269C2.29145 17.7347 2.65292 16.387 3.67933 15.4082C4.34724 14.771 5.07168 14.4055 5.93 14.3047C6.54436 14.2329 7.1245 14.1937 7.70465 14.5438C7.95307 14.6942 8.22232 14.5558 8.33239 14.1561C8.85155 12.2822 9.72028 10.627 10.8136 9.13062C12.1881 7.24821 13.7709 5.68523 15.7672 4.68082C16.6106 4.25719 17.4422 3.8199 18.3347 3.57051C20.4321 2.98631 22.5712 2.6908 24.6493 3.47827C26.9432 4.34602 28.3965 6.18573 28.8755 8.99397C29.0733 10.1487 29.0704 11.2624 28.8487 12.3932C28.7862 12.4667 28.5958 12.4684 28.7371 12.6563C28.6509 13.6043 28.2611 14.3952 27.7598 15.1229C27.5159 15.4782 27.321 15.8899 26.964 16.129C26.8837 16.1068 26.8584 16.1683 26.8346 16.2366C26.2187 16.7457 25.5404 17.0429 24.807 17.3094C24.1153 17.5605 23.498 17.3435 22.8509 17.3743C22.8092 17.2359 22.717 17.2598 22.6248 17.2803C21.3663 17.3623 19.8446 15.3894 19.614 13.9323C19.434 12.7998 19.6095 11.7817 20.1852 10.8661C20.6969 10.053 21.4109 9.61404 22.2812 9.44493C22.7438 9.3544 23.2287 9.42955 23.6705 9.19212C24.0186 9.00593 23.9606 9.45518 24.099 9.58842C24.3875 9.86856 24.4247 10.2802 24.267 10.6629C24.1109 11.0421 23.8252 11.2317 23.4459 11.2556C23.1573 11.2744 22.8687 11.2863 22.5787 11.329C21.0956 11.5511 20.8234 13.2627 21.7263 14.6292C22.4374 15.7037 23.9011 15.7925 24.7669 15.3672C26.3496 14.59 27.1469 13.2012 27.3195 11.2197C27.4445 9.78144 27.2422 8.48835 26.5162 7.33191C25.7055 6.04053 24.636 5.3231 23.2049 5.06858C21.7486 4.80894 20.3905 5.14886 18.9848 5.32481C18.0372 5.44438 17.3023 6.01662 16.4812 6.40437C15.605 6.81946 14.8166 7.42245 14.0669 8.09547C12.0007 9.94542 10.65 12.3727 9.74557 15.1519C9.53136 15.8096 9.39748 16.5151 9.38856 17.224C9.38261 17.7877 9.1565 18.2847 9.12526 18.8467C9.09848 19.325 8.69982 19.5403 8.27736 19.5608C7.70018 19.5898 7.64515 19.0295 7.49788 18.6042C7.43986 18.4385 7.48895 18.225 7.48895 18.0336C7.62432 18.0131 7.74332 17.9773 7.68382 17.7689C7.65258 17.4307 7.53061 17.1112 7.68977 16.7474C7.78795 16.5236 7.58118 16.4331 7.38185 16.3494C5.91066 15.731 4.67153 16.5595 4.10031 17.7979C3.27174 19.5915 3.78941 21.4039 5.04639 22.5261C5.59679 23.0181 5.77232 22.5808 6.0371 22.2153C6.12933 22.176 6.2766 22.1726 6.15016 21.9898C6.43577 21.4825 6.81807 21.4961 7.21227 21.7694C7.66597 22.0837 7.58862 22.6321 7.40714 23.0096C6.75708 24.3539 6.46106 25.8263 6.20073 27.2971C6.04454 28.1785 6.12041 29.1112 6.1933 30.0216C6.28999 31.2276 6.64105 32.3584 6.96236 33.4978C6.93261 33.5849 6.9817 33.6105 7.03971 33.6276C7.04269 33.6703 7.05013 33.7113 7.06351 33.7523C7.0412 33.8394 7.09029 33.8702 7.14979 33.8907C7.51275 35.0232 8.14943 35.9627 8.81882 36.8578C9.92705 38.337 11.2807 39.4952 12.8605 40.187C13.5998 40.5098 14.4031 40.7046 15.2272 40.8344C17.9003 41.2563 21.4333 40.6909 24.099 40.8344C37.6067 38.7909 38.7518 29.5143 38.7875 30.0216C41.5124 28.0306 38.7875 41.0257 23.4712 42.9389C20.8576 42.9577 18.2365 43.0858 15.6333 42.903C13.8557 42.7783 12.1078 42.1463 10.5771 41.0189C7.43391 38.7026 5.34539 35.5203 4.70277 31.2156C4.5436 30.1515 4.56889 29.0719 4.54211 27.9974C4.59567 27.8044 4.62244 27.6268 4.37253 27.6063L4.37551 27.5994Z" fill="#C4CADB"/>
<path d="M35.6482 19.4466C34.8777 19.3885 34.9312 18.6454 34.8851 18.0988C34.7483 16.4863 34.3526 14.9763 33.7903 13.497C33.0554 11.5633 31.8728 10.0311 30.6099 8.55693C30.6292 8.47152 30.5891 8.4459 30.5251 8.44761C30.4894 8.4049 30.4611 8.34341 30.418 8.3212C29.8438 8.0291 29.6043 7.51323 29.817 7.00932C30.0268 6.51053 30.7066 6.35509 31.1856 6.70185C31.2614 6.75651 31.3284 6.83167 31.3998 6.89658C31.4236 6.96491 31.4504 7.0264 31.5292 7.0042C32.0588 7.60889 32.5898 8.21529 33.1194 8.81999C33.0956 8.9054 33.1268 8.93273 33.1982 8.91735C33.7814 9.66212 34.2232 10.5179 34.6679 11.3737C34.6486 11.5616 34.598 11.7717 34.8732 11.7461C35.1425 12.4328 35.4102 13.1195 35.6795 13.8062C35.6482 13.895 35.7003 13.9189 35.7583 13.9394C35.8431 14.4245 36.1034 14.6107 36.4917 14.4126C36.81 14.2503 37.2444 14.4331 37.4645 13.977C37.5062 13.8899 37.6207 13.9291 37.6505 14.0009C37.8617 14.5014 38.3229 14.3442 38.6338 14.3938C39.144 14.4723 39.4876 14.7969 39.8744 15.0839C39.9131 15.2103 40.0202 15.1847 40.1005 15.2171C41.2742 16.2215 41.9287 17.5505 41.9941 19.2382C42.0849 21.5818 41.2161 23.3087 39.4341 24.4413C39.3597 24.4208 39.3299 24.4498 39.3522 24.5369C39.4727 25.2646 39.6155 25.9889 39.7093 26.7217C39.794 27.3828 39.8535 28.0524 39.8714 28.7203C39.8863 29.2652 39.4043 29.7896 38.9759 29.7793C38.5624 29.7691 38.2336 29.3181 38.2128 28.7373C38.1414 26.8737 37.7546 25.0989 37.1135 23.3856C37.0019 23.0884 36.6702 22.9432 36.7475 22.5008C36.8561 21.8773 37.228 21.6125 37.6832 21.534C38.0179 21.4759 38.2321 21.8175 38.4091 22.1404C38.7528 22.7707 38.7602 22.7638 39.2794 22.2292C40.1793 21.3033 40.4753 20.2101 40.2165 18.8145C40.0916 18.1364 39.8788 17.6154 39.4965 17.1166C38.8747 16.3069 37.4735 15.9294 36.6181 16.3394C36.2641 16.5085 36.4039 16.845 36.453 17.0244C36.5646 17.4446 36.5051 17.8631 36.5616 18.2765C36.5601 18.4165 36.4902 18.5788 36.6642 18.6557C36.459 18.9717 36.4723 19.5063 35.9904 19.5456C35.91 19.3629 35.7732 19.4466 35.6527 19.4483L35.6482 19.4466Z" fill="#C4CADB"/>
<path d="M19.9561 31.0296C20.035 30.6709 19.8059 30.2114 20.1718 29.8305C20.4366 29.5555 20.694 29.4444 21.0153 29.5674C21.3753 29.7041 21.5969 29.9996 21.6222 30.4471C21.6371 30.7016 21.6222 30.9579 21.6252 31.2124C21.6311 31.8734 22.0759 32.4628 22.5683 32.4611C22.9015 32.4611 23.492 31.7163 23.5144 31.2568C23.5292 30.9596 23.4831 30.6504 23.5396 30.3668C23.6408 29.8544 23.9011 29.4547 24.4143 29.535C24.8636 29.605 25.1715 29.8937 25.2131 30.4813C25.2935 31.607 25.1373 32.6233 24.389 33.4518C23.562 34.3674 22.6129 34.598 21.5478 34.0941C20.7326 33.708 19.8163 32.4218 19.9532 31.3405C19.9636 31.2568 19.9532 31.1697 19.9532 31.0313L19.9561 31.0296Z" fill="#C4CADB"/>
<path d="M27.1513 26.9657C26.3093 26.9657 25.509 26.0176 25.5194 25.032C25.5313 23.9661 26.5146 23.0591 27.5767 23.1342C28.0974 23.1718 28.8322 24.3658 28.8679 25.1277C28.9066 25.9562 28.0126 27.1109 27.1513 26.9657Z" fill="#C4CADB"/>
<path d="M17.8765 26.966C16.8575 26.8669 16.3443 26.1717 16.2937 25.0579C16.2446 24.0142 17.0375 23.2268 18.055 23.2661C18.9654 23.3019 19.5782 24.0535 19.5425 25.2407C19.5143 26.1341 18.7333 26.9779 17.8765 26.966Z" fill="#C4CADB"/>
</svg>
