<svg width="45" height="45" viewBox="0 0 45 45" fill="none" xmlns="http://www.w3.org/2000/svg">
<path d="M17.5432 4.85765C18.3623 4.79729 18.4273 4.84197 18.7981 5.55914C19.313 6.55377 19.8436 7.53978 20.3609 8.53363C20.4573 8.7186 20.5334 8.79933 20.7591 8.67706C21.2341 8.41998 21.7271 8.1966 22.2185 7.97165C22.4419 7.86976 22.2804 7.76316 22.2358 7.66675C21.8337 6.79988 21.4269 5.93614 21.0225 5.07005C20.959 4.93446 20.8923 4.79808 20.85 4.65543C20.723 4.22591 20.9025 3.8011 21.2482 3.68745C21.7185 3.53304 22.1252 3.7282 22.3212 4.15223C22.7899 5.16803 23.2798 6.17363 23.7587 7.18472C23.8112 7.29602 23.8261 7.35872 23.9977 7.28897C24.4139 7.12045 24.8513 7.00053 25.2847 6.87669C25.4603 6.82653 25.5481 6.81085 25.4556 6.57493C25.2777 6.11877 25.1044 5.64614 25.0386 5.16489C24.9735 4.69462 24.6467 4.31605 24.6569 3.83166C24.6671 3.37236 24.8325 3.09804 25.164 3.04239C25.7409 2.9452 25.9784 3.07374 26.1469 3.57693C26.3256 4.11069 26.5576 4.63505 26.6603 5.1837C26.7214 5.51211 26.9001 5.78801 26.9416 6.1125C26.9753 6.37271 27.1439 6.47696 27.39 6.40093C27.8164 6.26925 28.2623 6.25593 28.695 6.16893C28.8776 6.13209 28.9717 6.05371 28.967 5.83503C28.9505 5.13197 28.9599 4.42813 28.9615 3.72428C28.9615 3.42017 29.2468 3.0706 29.5125 3.0416C30.0024 2.9883 30.3441 3.18504 30.4499 3.5542C30.544 3.88261 30.522 4.21494 30.5251 4.54727C30.5275 4.87332 30.5251 5.1986 30.5251 5.52465C30.5251 5.96828 30.7464 6.2089 31.189 6.24652C31.2541 6.25201 31.3215 6.23869 31.3842 6.25123C32.0888 6.38996 32.0919 6.39153 32.3098 5.73471C32.552 5.00657 32.7785 4.27215 33.0301 3.54715C33.2347 2.95774 33.9856 2.80725 34.3916 3.27752C34.6157 3.53774 34.5476 3.8591 34.4551 4.1538C34.1878 5.00265 33.915 5.84993 33.6235 6.69093C33.5568 6.88296 33.5764 6.96918 33.7638 7.04129C33.9041 7.09537 34.0303 7.18551 34.1635 7.2584C34.6238 7.50921 35.0087 7.41673 35.318 6.98094C35.3839 6.88767 35.4599 6.80145 35.532 6.7121C35.532 6.69642 35.5312 6.68153 35.5304 6.66585C36.0564 6.23085 36.4287 5.66182 36.8629 5.14608C37.1411 4.81611 37.3927 4.4924 37.9249 4.59429C38.5386 4.71265 38.7071 5.28952 38.3764 5.77233C38.048 6.25201 37.6451 6.68153 37.2673 7.12672C36.9091 7.5484 36.5486 7.9693 36.1739 8.37687C36.0227 8.54147 36.0634 8.67001 36.2162 8.75779C36.558 8.95452 36.7516 9.2892 36.993 9.57215C37.3355 9.97188 37.3026 9.97972 37.7321 9.71794C38.6303 9.17007 39.5419 8.64414 40.4377 8.09235C40.6933 7.93481 40.9582 7.95205 41.2208 7.97635C41.4488 7.99751 41.6315 8.16525 41.6801 8.38314C41.7435 8.66922 41.7639 8.97333 41.5194 9.21317C41.1988 9.52747 40.7905 9.70618 40.4127 9.93113C39.7339 10.334 39.0583 10.7424 38.3615 11.1131C37.9719 11.32 38.1796 11.5935 38.2792 11.7864C38.3991 12.0176 38.5049 12.2449 38.5864 12.4918C38.6397 12.654 38.6821 12.9636 38.7863 12.9425C39.0003 12.8986 39.2338 12.9605 39.4243 12.8641C40.0592 12.5427 40.756 12.4424 41.4332 12.2739C41.6879 12.2104 41.9207 12.0795 42.2091 12.1022C42.6606 12.1383 42.9145 12.2943 42.9576 12.6501C43.0156 13.1321 42.8001 13.5005 42.38 13.5922C41.4214 13.8015 40.5044 14.1691 39.5325 14.3274C39.1555 14.3885 38.9376 14.5767 39.0504 14.9889C39.1515 15.3565 39.0363 15.7186 39.0442 16.0839C39.0497 16.3535 39.1515 16.464 39.4298 16.4985C40.2222 16.5981 41.0123 16.7235 41.7992 16.8583C42.0594 16.903 42.329 16.8324 42.5838 17.0009C42.8996 17.2102 43.0948 17.5668 42.9443 17.9564C42.8322 18.2472 42.5767 18.4376 42.2381 18.4447C41.7114 18.4564 41.2019 18.3247 40.6862 18.2472C40.1101 18.1602 39.5333 18.0708 38.9587 17.9752C38.7691 17.9438 38.7009 18.0755 38.6648 18.2009C38.5472 18.6108 38.4085 19.0106 38.2188 19.3931C38.1342 19.5647 38.1914 19.6682 38.3599 19.7528C39.248 20.1988 40.1297 20.6589 41.0193 21.1009C41.4096 21.2953 41.6291 21.7922 41.4582 22.1622C41.2889 22.5282 40.752 22.703 40.3609 22.5086C39.4478 22.054 38.5355 21.5971 37.6286 21.1307C37.4037 21.0147 37.2869 20.9967 37.1153 21.2546C36.855 21.6465 36.5243 21.9976 36.1559 22.3009C36.2437 22.4052 36.3174 22.4937 36.3918 22.5823C36.3699 22.8159 36.4757 22.9225 36.7093 22.9013C37.3723 23.66 38.1569 24.3051 38.7808 25.1006C38.9854 25.3616 38.9399 25.8147 38.6805 26.0373C38.4038 26.2747 38.164 26.4119 37.7666 26.1258C37.1936 25.7143 36.7257 25.1868 36.2617 24.6672C35.8643 24.222 35.4184 23.8277 35.028 23.3794C34.8924 23.2234 34.785 23.3441 34.7012 23.3967C34.3179 23.6365 33.9495 23.8983 33.509 24.03C33.2896 24.0958 33.375 24.2306 33.4393 24.3701C33.8892 25.3514 34.3861 26.3116 34.7537 27.3282C34.9442 27.8541 34.785 28.2389 34.3563 28.4161C33.9605 28.5799 33.5717 28.4043 33.3437 27.9176C32.9533 27.086 32.5975 26.2387 32.1946 25.4134C32.1139 25.2488 32.273 25.0904 32.0598 24.8937C31.8239 24.6758 31.6656 24.6264 31.3936 24.7001C30.7391 24.8765 30.0564 24.9501 29.4443 25.2738C29.2789 25.3616 29.2139 25.422 29.351 25.6117C29.5995 25.9557 29.7633 26.3641 30.0008 26.7043C30.2657 27.0844 30.4742 27.4998 30.7587 27.8658C31.037 28.224 30.9484 28.8033 30.5839 29.0501C30.2359 29.2861 29.7696 29.163 29.5086 28.7523C29.0524 28.0375 28.6049 27.3172 28.1526 26.5992C28.0397 26.4205 27.941 26.332 27.7584 26.5593C27.234 27.2145 26.7465 27.8862 26.4212 28.67C26.3319 28.8848 26.4549 28.9561 26.5599 29.0556C27.3226 29.7736 28.0907 30.4853 28.8525 31.2032C29.0814 31.4188 29.2358 31.6633 29.1997 32.0097C29.1645 32.3577 28.9544 32.5192 28.6621 32.6211C28.4418 32.6979 28.2929 32.6807 28.0617 32.5067C27.4002 32.009 26.8194 31.4337 26.2394 30.8537C26.0348 30.6491 25.94 30.6828 25.8632 30.9477C25.668 31.6226 25.4799 32.3005 25.2502 32.9636C25.1914 33.1329 25.2706 33.176 25.3466 33.2434C25.9439 33.7709 26.556 34.2812 27.1415 34.822C27.4621 35.1183 27.8548 35.3832 27.7905 35.9287C27.7301 36.4452 27.1117 36.7642 26.6799 36.4656C26.0011 35.9961 25.4297 35.3973 24.8129 34.8541C24.7823 34.8314 24.7517 34.8094 24.7212 34.7867C24.6444 34.7718 24.5691 34.6025 24.4954 34.8087C24.305 35.3385 23.9562 35.7774 23.6388 36.2328C23.5282 36.3911 23.5949 36.4836 23.6944 36.6043C24.2775 37.309 24.8622 38.0128 25.4289 38.7315C25.7268 39.1093 25.6547 39.6149 25.3004 39.8915C24.9735 40.1471 24.5323 40.082 24.2195 39.7027C23.6999 39.0717 23.1959 38.4266 22.6849 37.7886C22.5751 37.6515 22.5007 37.5472 22.2914 37.7204C21.963 37.9924 21.6558 38.2989 21.2552 38.4823C21.0679 38.5685 21.0326 38.7253 21.1338 38.9345C21.4739 39.6345 21.7945 40.3438 22.1205 41.05C22.2264 41.2796 22.3235 41.5093 22.3134 41.775C22.2977 42.1763 22.126 42.4146 21.7239 42.5078C21.354 42.5933 21.0742 42.464 20.9065 42.112C20.5185 41.2961 20.118 40.4857 19.7464 39.6627C19.6328 39.4111 19.5481 39.3797 19.2683 39.4605C18.8004 39.5961 18.3403 39.7904 17.8363 39.803C17.6882 39.8069 17.6051 39.8226 17.6608 40.1008C17.8066 40.8337 17.9868 41.5783 17.9288 42.3401C17.9069 42.6285 17.765 42.8425 17.468 42.9233C17.3574 42.9319 17.2336 42.8841 17.149 42.9993H16.9146C16.6262 42.8167 16.4098 42.5502 16.384 42.2257C16.333 41.59 16.188 40.9693 16.1441 40.3367C16.1261 40.0765 16.0571 40.0232 15.8134 40.0209C15.2005 40.0146 14.5844 40.0789 13.9534 39.9778C13.9487 40.586 13.8084 41.1903 13.8022 41.7977C13.7967 42.3409 13.6807 42.7602 13.1618 42.9993H12.7707C12.7519 42.9123 12.6719 42.9248 12.6132 42.9037C12.5834 42.8833 12.5528 42.8629 12.523 42.8417C12.048 42.4859 12.1883 41.96 12.2471 41.5226C12.3239 40.945 12.2996 40.3532 12.4556 39.785C12.4901 39.6603 12.3921 39.6611 12.2989 39.6298C11.8466 39.4754 11.374 39.3554 10.9758 39.0866C10.6631 38.8758 10.5573 39.0396 10.4319 39.2865C10.0212 40.0946 9.6081 40.9019 9.18251 41.7029C8.89407 42.2461 8.41596 42.3903 7.99036 42.0587C7.71055 41.8408 7.52009 41.5469 7.83595 40.9371C8.29447 40.0514 8.76396 39.1712 9.22326 38.2863C9.28126 38.175 9.39335 38.0653 9.22875 37.925C8.96383 37.6985 8.73653 37.4336 8.52412 37.1553C8.36815 36.9515 8.20825 36.9131 7.97704 37.1091C7.32571 37.6609 6.6587 38.1954 5.97915 38.7119C5.79418 38.853 5.63507 39.0545 5.37642 39.0913C5.00098 39.1438 4.6859 38.9769 4.53619 38.6351C4.381 38.2832 4.53541 37.8263 4.88576 37.5543C5.71031 36.9155 6.53094 36.272 7.35157 35.6285C7.45425 35.5486 7.47541 35.4639 7.41506 35.3275C7.28181 35.0281 7.15797 34.7209 7.07176 34.405C7.00513 34.162 6.93381 34.1291 6.6971 34.2326C5.88275 34.59 5.05898 34.9301 4.22895 35.2507C3.74221 35.4388 3.36207 35.2766 3.18729 34.8612C3.0321 34.4904 3.22021 33.9598 3.63405 33.8101C4.5456 33.4801 5.41404 33.053 6.3107 32.6901C6.52232 32.6046 6.60775 32.5169 6.59991 32.2841C6.58659 31.8726 6.45883 31.4681 6.51683 31.0535C6.54583 30.8458 6.46197 30.7925 6.25975 30.7957C5.55669 30.8074 4.85206 30.7737 4.15057 30.8098C3.6701 30.8341 3.27742 30.7424 2.99683 30.3316V29.7062C3.28134 29.2947 3.69362 29.221 4.15997 29.232C4.91476 29.25 5.67034 29.2336 6.42513 29.2398C6.58973 29.2414 6.65478 29.2202 6.68378 29.0204C6.76294 28.4733 6.86092 27.9231 7.01924 27.3948C7.10703 27.1024 6.98397 27.1518 6.799 27.1205C5.86707 26.9637 4.93279 26.8116 4.01027 26.6102C3.45848 26.4895 3.21629 26.1086 3.32132 25.6853C3.44202 25.1978 3.88016 24.9776 4.48211 25.0959C5.37485 25.2715 6.2668 25.4525 7.16268 25.6093C7.33276 25.6391 7.53576 25.5975 7.59455 25.3648C7.67763 25.0371 7.72465 24.6931 7.85947 24.3874C8.01074 24.0441 7.80303 23.9375 7.5773 23.8458C6.53408 23.4202 5.48693 23.004 4.43743 22.5925C3.85821 22.366 3.5541 21.6519 4.20151 21.1942C4.50327 20.981 4.84892 21.0892 5.15304 21.2036C6.20645 21.5994 7.2536 22.0141 8.29761 22.4357C8.49904 22.5172 8.58996 22.4475 8.66442 22.2845C8.90348 21.7578 9.13861 21.2287 9.38081 20.7036C9.48035 20.4872 9.31732 20.4449 9.18329 20.3673C8.03268 19.698 6.88365 19.0247 5.73461 18.353C5.70482 18.3318 5.67426 18.3106 5.64447 18.2895C5.30509 17.9822 5.24004 17.4971 5.49398 17.1687C5.67269 16.9382 6.2668 16.8755 6.56308 17.0464C7.67057 17.6875 8.78199 18.3224 9.88792 18.9682C10.1223 19.1046 10.2406 19.1007 10.3731 18.8185C10.5714 18.3961 10.8402 18.005 11.0879 17.6068C11.1718 17.472 11.2682 17.3395 11.4249 17.2619C11.294 17.1506 11.1733 17.048 11.0518 16.9453C11.0221 16.9241 10.9915 16.903 10.9617 16.8818C10.0274 16.1474 9.09315 15.4122 8.15887 14.6778C8.12909 14.6566 8.09852 14.6354 8.06874 14.6143C7.57573 14.1824 7.54673 13.6863 7.99036 13.2881C8.02093 13.2677 8.05071 13.2466 8.08128 13.2262C8.73731 13.0608 9.15899 13.4668 9.61202 13.8321C10.4146 14.4779 11.2407 15.0947 12.0433 15.7406C12.2048 15.8707 12.2902 15.8832 12.4125 15.7218C12.7691 15.2515 13.1242 14.7804 13.5357 14.3548C13.6689 14.2169 13.5764 14.126 13.4706 14.0186C12.5073 13.0357 11.5558 12.0411 10.5863 11.0645C10.1066 10.5809 10.1834 10.0197 10.638 9.75085C10.928 9.5792 11.41 9.69129 11.7408 10.0268C12.6351 10.9344 13.5749 11.8005 14.3994 12.7739C14.6361 13.0538 14.8007 13.0067 15.0233 12.7927C15.3862 12.444 15.753 12.0983 16.1332 11.7691C16.2938 11.6304 16.308 11.5105 16.188 11.3529C15.5187 10.4696 14.8313 9.5988 14.1909 8.6943C13.9824 8.40038 13.6368 8.1386 13.7136 7.69889C13.7544 7.46532 13.7669 7.19805 14.0483 7.1134C14.3775 7.01464 14.7412 6.88923 15.0116 7.20588C15.3917 7.65108 15.7664 8.10803 16.0822 8.59868C16.3918 9.07915 16.7578 9.51258 17.0941 9.9711C17.5659 10.6154 17.5855 10.6052 18.2541 10.1514C18.5418 9.95621 18.9971 9.78926 19.0559 9.53453C19.1171 9.26961 18.7926 8.91533 18.6366 8.60103C18.6162 8.57282 18.5951 8.54538 18.5747 8.51717C18.3348 8.05003 18.095 7.58289 17.8544 7.11497L17.7925 7.0311C17.5887 6.63137 17.3535 6.24809 17.2124 5.81622C17.0933 5.45333 17.1113 5.14451 17.4578 4.91643C17.486 4.89684 17.5142 4.87803 17.5424 4.85843L17.5432 4.85765ZM35.5265 20.7051C35.5594 20.5923 35.6974 20.5938 35.7475 20.5162C36.449 19.426 37.1341 18.3428 37.3512 17.0135C37.5589 15.7398 37.5675 14.4959 37.1913 13.2615C36.6458 11.4713 35.5492 10.0926 33.9989 9.06739C32.7495 8.24127 31.3944 7.72632 29.873 7.73416C29.3189 7.7373 28.7663 7.72397 28.2122 7.80392C27.2889 7.93795 26.3899 8.19268 25.4901 8.40822C24.8403 8.56341 24.1882 8.84166 23.5572 9.11285C22.0806 9.74694 20.6274 10.4273 19.2965 11.3435C18.2032 12.096 17.1474 12.8907 16.1912 13.8156C15.2671 14.7091 14.4057 15.6575 13.636 16.6874C12.7644 17.8537 11.9618 19.0654 11.2886 20.3571C10.116 22.605 9.22013 24.958 8.5978 27.4175C8.30544 28.5713 8.15887 29.743 8.09696 30.9234C8.06874 31.4548 8.16436 31.9933 8.2349 32.527C8.44574 34.1307 9.04064 35.5243 10.2249 36.6757C11.4618 37.878 12.9659 38.3686 14.6204 38.4525C15.8463 38.5144 17.0604 38.4235 18.2721 38.0998C19.4894 37.7745 20.5522 37.2353 21.4535 36.3849C22.4294 35.4647 23.0768 34.318 23.5682 33.0788C23.7485 32.6227 24.0032 32.1814 24.0941 31.7088C24.2282 31.012 24.4163 30.3316 24.5879 29.6466C24.9798 28.0822 25.6821 26.6706 26.7614 25.4659C27.9629 24.1256 29.518 23.4398 31.2603 23.1419C32.5567 22.9201 33.658 22.2821 34.7043 21.5383C34.8869 21.4082 35.021 21.1777 35.2106 21.0249C35.4442 21.0461 35.55 20.9395 35.5273 20.7059L35.5265 20.7051Z" fill="#C4CADB"/>
<path d="M17.1537 42.9999C17.2383 42.8839 17.3622 42.9325 17.4727 42.9239C17.4601 42.9482 17.4586 42.974 17.4672 42.9999H17.1545H17.1537Z" fill="#C4CADB"/>
<path d="M36.7116 22.9005C36.4773 22.9225 36.3723 22.8159 36.3942 22.5815C36.522 22.6654 36.6286 22.7712 36.7116 22.9005Z" fill="#C4CADB"/>
<path d="M8.08128 13.2244C8.05071 13.2448 8.02092 13.2659 7.99036 13.2863C8.00682 13.2456 8.02249 13.2032 8.08128 13.2244Z" fill="#C4CADB"/>
<path d="M18.5755 8.5166C18.5959 8.54482 18.617 8.57225 18.6374 8.60047C18.5935 8.58949 18.5583 8.57225 18.5755 8.5166Z" fill="#C4CADB"/>
<path d="M17.7933 7.03027L17.8552 7.11414C17.8113 7.10317 17.776 7.08592 17.7933 7.03027Z" fill="#C4CADB"/>
<path d="M8.06958 14.6133C8.09936 14.6344 8.12993 14.6556 8.15972 14.6768C8.10172 14.6948 8.08604 14.654 8.06958 14.6133Z" fill="#C4CADB"/>
<path d="M5.64526 18.2886C5.67505 18.3097 5.70562 18.3309 5.7354 18.3521C5.6774 18.3701 5.66172 18.3293 5.64526 18.2886Z" fill="#C4CADB"/>
<path d="M24.7244 34.7881C24.7549 34.8108 24.7855 34.8328 24.8161 34.8555C24.7589 34.8696 24.7408 34.8304 24.7244 34.7881Z" fill="#C4CADB"/>
<path d="M10.9625 16.8809C10.9923 16.902 11.0229 16.9232 11.0527 16.9443C10.9947 16.9624 10.979 16.9216 10.9625 16.8809Z" fill="#C4CADB"/>
<path d="M35.5305 6.66602C35.5305 6.68169 35.5305 6.69658 35.5321 6.71226C35.5109 6.70129 35.4905 6.69031 35.4694 6.67934C35.4897 6.67542 35.5101 6.67072 35.5313 6.6668L35.5305 6.66602Z" fill="#C4CADB"/>
<path d="M17.5433 4.85746C17.5151 4.87705 17.4868 4.89586 17.4586 4.91546C17.4719 4.87392 17.4868 4.83551 17.5433 4.85746Z" fill="#C4CADB"/>
<path d="M35.21 21.0241C35.2923 20.8948 35.3989 20.7897 35.5266 20.7051C35.5486 20.9386 35.4435 21.0452 35.21 21.0241Z" fill="#C4CADB"/>
<path d="M12.6171 42.9047C12.5583 42.9259 12.5434 42.8835 12.527 42.8428C12.5568 42.8632 12.5873 42.8835 12.6171 42.9047Z" fill="#C4CADB"/>
<path d="M24.2658 17.7416C23.7407 16.2305 23.7446 14.7201 24.2658 13.209C24.3716 13.2051 24.4249 13.151 24.4241 13.0444C24.693 12.2778 25.1875 11.6586 25.7769 11.1288C26.3977 10.5715 27.1282 10.1718 27.9238 9.90216C28.5782 9.68035 29.2648 9.7501 29.931 9.66545C30.6882 9.56905 31.4187 9.765 32.0065 10.0526C33.1242 10.5997 34.1032 11.3749 34.7819 12.5216C35.3314 13.4496 35.5265 14.4223 35.5814 15.4357C35.6245 16.2297 35.5124 17.0754 35.1699 17.7769C34.6526 18.8374 33.8994 19.7466 32.8695 20.4175C32.0457 20.9544 31.171 21.2381 30.2148 21.3385C30.0745 21.3533 29.9342 21.3439 29.8096 21.2609C29.7672 21.2326 29.7053 21.1793 29.6794 21.1919C28.8878 21.5838 28.202 21.0994 27.4786 20.9332C27.4801 20.8039 27.4151 20.8243 27.3375 20.869C26.7496 20.5484 26.1751 20.2059 25.6868 19.7419C25.1288 19.2105 24.7204 18.5678 24.3465 17.9007C24.4712 17.773 24.3669 17.7589 24.2682 17.7416H24.2658ZM32.9479 12.6611C32.6163 12.2982 32.2236 11.9988 31.8137 11.7449C31.0534 11.2738 30.1967 11.2134 29.3173 11.2464C27.999 11.2965 27.0459 11.9502 26.2911 12.9699C26.27 12.9911 26.2488 13.0115 26.2268 13.0326C25.7605 13.5844 25.4532 14.213 25.4525 14.9412C25.4525 15.4702 25.3686 16.0016 25.5159 16.5322C25.7354 17.3215 26.1304 18.0183 26.7159 18.5638C27.5507 19.3414 28.5092 19.8469 29.7265 19.7881C31.2423 19.7144 32.4055 19.0733 33.2802 17.8569C33.937 16.9445 34.0992 15.9084 33.9527 14.8346C33.8492 14.0782 33.6454 13.3265 32.9706 12.8288C33.0215 12.8147 33.0827 12.7881 33.067 12.7332C33.0584 12.7003 32.9886 12.6846 32.9471 12.6611H32.9479Z" fill="#C4CADB"/>
<path d="M20.756 29.913C20.7764 29.5971 20.7717 29.2742 20.9457 28.9959C21.1565 28.6589 21.5045 28.557 21.8862 28.7044C22.2287 28.8368 22.3314 29.1433 22.3299 29.5454C22.3252 30.5377 22.1198 31.4837 21.7616 32.3976C21.5821 32.8546 21.2976 33.2707 21.0633 33.6916C20.8117 34.1439 20.553 34.5601 20.1925 34.9128C19.7496 35.3462 19.2331 35.2577 18.9353 34.7294C18.773 34.4417 18.8874 34.0694 19.2096 33.705C20.1658 32.6218 20.582 31.316 20.756 29.9138V29.913Z" fill="#C4CADB"/>
<path d="M14.4465 20.4866C14.7828 20.4184 15.032 20.5736 15.1472 20.8676C15.2421 21.1097 15.2382 21.3559 15.0649 21.6231C14.6009 22.3419 14.0444 22.9995 13.6949 23.7974C13.3915 24.4887 13.1023 25.1784 12.9283 25.9144C12.8304 26.3282 12.5309 26.6276 12.2104 26.6558C11.8342 26.6888 11.5575 26.543 11.4164 26.1926C11.2745 25.8407 11.3999 25.4974 11.4948 25.1572C11.9423 23.5481 12.7269 22.1122 13.7529 20.8048C13.9175 20.5956 14.1338 20.4208 14.4465 20.4858V20.4866Z" fill="#C4CADB"/>
<path d="M15.6677 17.8694C15.6473 17.7064 15.699 17.5441 15.8189 17.3975C16.3786 16.7094 16.9272 16.0134 17.5754 15.4004C18.1821 14.8267 18.8553 14.3431 19.5568 13.8995C19.9621 13.6432 20.5193 13.8493 20.727 14.1738C20.9034 14.4497 20.6925 15.0415 20.3539 15.2484C19.1234 16.0008 18.1295 17.019 17.2337 18.139C17.0573 18.36 16.8865 18.6014 16.6004 18.6751C16.1058 18.8029 15.6669 18.4227 15.6684 17.8694H15.6677Z" fill="#C4CADB"/>
<path d="M17.145 29.7647C17.1772 29.3109 17.435 28.9355 17.5965 28.5318C17.9382 27.6791 18.3411 26.8522 18.657 25.9884C18.7949 25.6114 19.1821 25.3057 19.458 25.3316C19.8906 25.3716 20.154 25.5997 20.2355 26.0331C20.2708 26.2181 20.2034 26.3952 20.132 26.5653C19.6555 27.7002 19.1837 28.8375 18.6985 29.9685C18.5684 30.2711 18.3615 30.518 18.0025 30.5634C17.6412 30.6097 17.4123 30.4278 17.2195 30.1362C17.1325 30.0046 17.1936 29.8862 17.145 29.7639V29.7647Z" fill="#C4CADB"/>
<path d="M13.7144 30.588C13.7857 29.6529 14.0381 28.7625 14.3893 27.8972C14.5115 27.5962 14.5836 27.2757 14.7592 26.9959C15.0476 26.5358 15.4482 26.3908 15.8761 26.6016C16.2045 26.7639 16.3205 27.2945 16.1457 27.7365C15.9247 28.297 15.6676 28.8527 15.5289 29.4342C15.4137 29.9171 15.2789 30.3999 15.2005 30.8968C15.1166 31.4251 14.7616 31.6437 14.3242 31.5834C13.9637 31.534 13.7175 31.1797 13.7136 30.7048C13.7136 30.6656 13.7136 30.6264 13.7136 30.5872L13.7144 30.588Z" fill="#C4CADB"/>
<path d="M25.1562 22.3645C25.5293 22.2909 25.7472 22.5174 25.8891 22.7854C26.0427 23.0762 25.9384 23.3631 25.7221 23.6053C24.983 24.433 24.2063 25.2285 23.6897 26.2333C23.4844 26.6323 22.9953 26.7632 22.6771 26.5892C22.1802 26.318 22.1323 25.8226 22.3471 25.4221C22.7531 24.665 23.2767 23.9948 23.8504 23.3592C24.1083 23.0731 24.3277 22.7517 24.6413 22.5182C24.7957 22.4037 24.9548 22.294 25.1562 22.3645Z" fill="#C4CADB"/>
<path d="M20.5311 18.6044C20.8517 18.5817 21.0907 18.6577 21.2428 18.9571C21.4058 19.2793 21.3541 19.563 21.1338 19.8162C20.6863 20.3303 20.2317 20.8398 19.7653 21.3367C19.3734 21.7545 18.8467 21.7827 18.5128 21.4276C18.2542 21.1525 18.233 20.8131 18.4266 20.5365C18.8914 19.8726 19.462 19.2926 20.0444 18.7283C20.1807 18.5958 20.3657 18.5833 20.5311 18.6044Z" fill="#C4CADB"/>
<path d="M11.7581 29.5731C11.7385 30.3044 11.5802 31.0247 11.5951 31.7615C11.6013 32.0711 11.2189 32.3501 10.8223 32.3619C10.5111 32.3713 10.3144 32.2083 10.1905 31.9128C9.90757 31.2348 10.0871 30.5513 10.1639 29.8765C10.1866 29.675 10.1662 29.4611 10.2587 29.2455C10.4688 28.7549 10.6639 28.6122 11.2345 28.6906C11.581 28.7384 11.7573 28.9955 11.7581 29.4564C11.7581 29.4956 11.7581 29.5347 11.7581 29.5731Z" fill="#C4CADB"/>
<path d="M11.2933 34.3322C11.2918 33.8941 11.6194 33.5422 12.0285 33.543C12.3899 33.543 12.8264 33.9482 12.8452 34.3009C12.8656 34.6716 12.4392 35.0941 12.0419 35.0988C11.6147 35.1035 11.2949 34.7767 11.2933 34.3322Z" fill="#C4CADB"/>
<path d="M16.4537 23.4431C16.4553 22.9956 16.7226 22.7667 17.1991 22.7416C17.696 22.7157 17.9414 23.059 17.9978 23.436C18.0535 23.8123 17.602 24.2277 17.1913 24.2292C16.7673 24.2308 16.453 23.8953 16.4545 23.4431H16.4537Z" fill="#C4CADB"/>
<path d="M15.6724 35.786C15.6747 35.3071 15.9044 35.101 16.4303 35.1025C16.892 35.1041 17.1569 35.3675 17.1537 35.8229C17.1514 36.2649 16.8253 36.5941 16.395 36.5886C15.9757 36.5831 15.67 36.2437 15.6724 35.786Z" fill="#C4CADB"/>
<path d="M24.4234 13.0435C24.425 13.1501 24.3709 13.2041 24.2651 13.2081C24.0817 12.9259 24.3944 13.1211 24.4234 13.0435Z" fill="#C4CADB"/>
<path d="M24.2659 17.7417C24.3646 17.7589 24.4696 17.7738 24.3442 17.9008C24.3035 17.8546 24.1608 17.8593 24.2659 17.7417Z" fill="#C4CADB"/>
<path d="M27.3352 20.869C27.412 20.8235 27.4779 20.8039 27.4763 20.9333C27.4183 20.9364 27.3407 20.9819 27.3352 20.869Z" fill="#C4CADB"/>
<path d="M32.9707 12.8289C32.9628 12.7732 32.955 12.7168 32.9471 12.6611C32.9895 12.6846 33.0584 12.7011 33.0671 12.7332C33.082 12.7881 33.0216 12.814 32.9707 12.8289Z" fill="#C4CADB"/>
<path d="M26.2896 12.9697C26.2982 13.0215 26.2818 13.0473 26.2253 13.0324C26.2465 13.0113 26.2677 12.9909 26.2896 12.9697Z" fill="#C4CADB"/>
<path d="M29.659 13.2074C30.9499 13.0585 32.088 14.2506 32.0371 15.5885C31.9955 16.6662 30.9092 17.8976 29.623 17.8364C28.4512 17.7808 27.4809 16.7258 27.3907 15.6896C27.2646 14.242 28.5202 13.0349 29.6598 13.2074H29.659ZM29.7257 14.771C29.2452 14.7695 28.9662 15.0171 28.9615 15.4506C28.9575 15.8856 29.264 16.2477 29.6457 16.2571C30.0643 16.2681 30.5243 15.8519 30.5173 15.4694C30.5095 15.0618 30.1818 14.7734 29.7249 14.7718L29.7257 14.771Z" fill="#C4CADB"/>
</svg>
