<svg width="45" height="45" viewBox="0 0 45 45" fill="none" xmlns="http://www.w3.org/2000/svg">
<path d="M32.3558 33.9977C32.0671 33.51 31.4424 33.3507 30.9596 33.6397C30.4751 33.9287 30.3153 34.5593 30.6024 35.0454C31.4293 36.4478 32.6886 37.9438 34.243 39.3725C34.4388 39.5515 34.6851 39.6402 34.9297 39.6402C35.207 39.6402 35.4827 39.5269 35.6833 39.3052C36.0634 38.8864 36.034 38.2378 35.6181 37.8551C34.2088 36.5611 33.0817 35.226 32.3575 33.996L32.3558 33.9977ZM42.95 22.1675C42.95 22.1478 42.9532 22.1297 42.9516 22.11C42.9434 21.9934 42.9288 21.8801 42.919 21.7635C42.9059 21.6058 42.8912 21.4465 42.8749 21.2905C42.8554 21.105 42.8293 20.921 42.8048 20.7355C42.7836 20.586 42.764 20.4366 42.7412 20.2872C42.7118 20.1 42.6759 19.9144 42.6417 19.7288C42.614 19.5843 42.5895 19.4398 42.5585 19.2969C42.5193 19.113 42.4769 18.9324 42.4329 18.7501C42.3986 18.6056 42.366 18.4627 42.3285 18.3198C42.2828 18.1474 42.2323 17.9766 42.1833 17.8058C42.1393 17.6564 42.0985 17.5053 42.0512 17.3575C42.0039 17.2064 41.9501 17.057 41.8995 16.9076C41.8441 16.7417 41.7886 16.5759 41.7283 16.4133C41.6858 16.3 41.6402 16.1883 41.5961 16.0766C41.5195 15.8796 41.4428 15.6809 41.3596 15.4871C41.3433 15.4477 41.3237 15.4099 41.3074 15.3705C38.7906 9.55556 33.6787 5.13483 27.451 3.59447C27.4347 3.59118 27.4184 3.58626 27.4021 3.58297C27.1118 3.51236 26.8182 3.44503 26.5229 3.38755C26.4691 3.3777 26.4153 3.36949 26.3615 3.35799C26.0988 3.30873 25.8362 3.26111 25.572 3.22169C25.4725 3.20691 25.373 3.19706 25.2735 3.18392C25.0484 3.15436 24.8249 3.12316 24.5982 3.10017C24.4351 3.08375 24.2687 3.0739 24.104 3.0624C23.9376 3.04927 23.7712 3.03449 23.6032 3.02627C23.2656 3.00985 22.9263 3 22.5854 3C22.3391 3 22.0944 3.00493 21.8498 3.01314C14.2765 3.28902 7.47143 7.77052 4.18472 14.6479C4.18472 14.6479 4.18472 14.6479 4.18472 14.6496C4.07706 14.8746 3.97267 15.1012 3.87317 15.3311C3.86176 15.359 3.85034 15.3869 3.84055 15.4148L3.56815 16.2277C3.56163 16.2491 3.55511 16.2704 3.54858 16.2918C2.59927 19.8963 2.88308 22.693 4.39187 24.6044C6.22036 26.9199 9.17269 27.025 9.68323 27.025C9.72401 27.025 9.75011 27.025 9.75663 27.025H14.9452C15.9647 28.9726 18.0297 30.2814 20.4698 30.2814H21.2446C21.8318 32.459 24.0126 33.2127 25.2637 33.3129C25.784 34.6513 27.3483 38.1507 30.6024 41.6732C30.803 41.89 31.0754 42 31.3494 42C31.5974 42 31.8469 41.9097 32.0443 41.7258C32.457 41.3398 32.4798 40.6895 32.0965 40.2757C29.5519 37.5218 28.1394 34.827 27.4755 33.326H34.9428C35.8693 33.326 38.5215 32.7693 40.8018 31.0467C41.252 30.7068 41.3433 30.063 41.0057 29.6098C40.668 29.1566 40.0286 29.0646 39.5784 29.4045C38.3029 30.3685 36.9523 30.8578 36.0307 31.0877C35.4354 30.8907 34.6606 30.3323 33.8809 29.6459C36.0552 28.9496 37.9196 28.2796 39.1919 27.8034C39.7187 27.6063 39.9878 27.0152 39.7921 26.4831C39.5964 25.951 39.0108 25.6817 38.4807 25.8788C37.0306 26.4223 34.8009 27.2204 32.2204 28.0169C32.1943 27.989 32.1682 27.961 32.1438 27.9348C34.1745 26.9856 36.8316 25.7474 40.0319 24.2563C40.5424 24.0182 40.7659 23.4089 40.5294 22.8933C40.2929 22.3793 39.6877 22.1543 39.1755 22.3924C38.8363 22.5501 38.4774 22.7176 38.1072 22.89V22.0903C38.1072 21.5237 37.6504 21.0639 37.0877 21.0639C36.525 21.0639 36.0683 21.5237 36.0683 22.0903V23.8392C35.3457 24.1758 34.6051 24.5223 33.8711 24.8639V23.0378C34.1778 22.9869 34.6133 22.8506 34.9754 22.4926C35.238 22.2348 35.5496 21.7717 35.5496 21.0294V19.9029C35.5496 19.3363 35.0928 18.8765 34.5301 18.8765C33.9674 18.8765 33.5107 19.3363 33.5107 19.9029V21.0163H30.8258V19.2559C30.8258 18.6893 30.3691 18.2295 29.8064 18.2295C29.2436 18.2295 28.7869 18.6893 28.7869 19.2559V21.0163H27.1607C27.2341 20.1919 27.2504 18.4249 26.2978 17.0406C25.2931 15.5791 26.2147 14.1438 26.2505 14.0896C26.5702 13.6232 26.4528 12.9844 25.9896 12.6626C25.5263 12.3407 24.8918 12.4573 24.5721 12.9253C24.4987 13.032 22.8056 15.5676 24.6227 18.2098C25.2914 19.1836 25.1609 20.6337 25.1104 21.0163H20.584C18.8762 21.0163 17.5876 22.2266 17.5876 23.831V24.1479C17.5876 25.7753 18.8762 27.0037 20.584 27.0037H25.9667C26.5295 27.0037 26.9862 26.5439 26.9862 25.9773C26.9862 25.4108 26.5295 24.9509 25.9667 24.9509H20.584C20.1077 24.9509 19.6266 24.703 19.6266 24.1479V23.831C19.6266 23.1051 20.4242 23.069 20.584 23.069H31.8322V23.9114H29.1605C28.5977 23.9114 28.141 24.3713 28.141 24.9378C28.141 25.5044 28.5977 25.9642 29.1605 25.9642H31.5158C29.1278 27.0792 27.1721 27.9955 26.7268 28.2107C26.7138 28.2107 26.7024 28.2074 26.6893 28.2074C26.6175 28.2074 26.5474 28.2189 26.4789 28.2336C26.4658 28.2336 26.4544 28.2304 26.4397 28.2304H20.4666C18.1292 28.2304 16.2974 26.4749 16.2974 24.2317V23.8408C16.2974 21.908 17.604 20.3561 19.5499 19.9784C20.1028 19.8717 20.4649 19.3331 20.3573 18.7764C20.2513 18.2197 19.7163 17.8551 19.1633 17.9635C19.103 17.975 19.0459 17.9931 18.9855 18.0062C18.2303 16.7861 18.1912 15.9272 18.1895 15.8829C18.1928 15.3229 17.7491 14.8631 17.1897 14.8516C16.64 14.8483 16.162 15.29 16.1506 15.8566C16.1474 15.9995 16.1555 17.1638 17.0641 18.7698C16.8732 18.8848 16.6922 19.0112 16.5193 19.1459C15.9484 18.4529 14.8033 16.745 15.3024 14.6463C15.4199 14.3359 16.0201 13.1552 18.2417 13.8909C18.7262 14.0518 19.2547 13.8252 19.4781 13.3621C19.4961 13.3243 21.3082 9.61468 24.6716 7.112C25.1251 6.77536 25.2197 6.13163 24.8853 5.67674C24.5509 5.22022 23.9131 5.12497 23.4597 5.46162C23.0666 5.75393 22.6963 6.05937 22.3424 6.37303C21.2365 6.34675 17.6284 6.43707 15.1915 8.51278C14.7625 8.87898 14.7087 9.526 15.0725 9.95953C15.2747 10.1993 15.5618 10.3225 15.8505 10.3225C16.0838 10.3225 16.317 10.242 16.5095 10.0794C17.5811 9.16636 19.0247 8.75254 20.2284 8.56697C19.1878 9.82159 18.457 10.9908 18.0444 11.7167C16.9254 11.4868 15.9337 11.5902 15.0937 12.027C14.6011 12.2832 14.239 12.6166 13.9747 12.9384C11.9048 12.8415 10.8446 13.8466 10.383 14.4919C9.66529 15.5019 9.49076 16.8747 9.96052 17.8338C10.1383 18.1967 10.4988 18.4052 10.8756 18.4052C11.0273 18.4052 11.1806 18.3708 11.3258 18.2985C11.8298 18.0472 12.0369 17.4314 11.7874 16.924C11.7123 16.7696 11.6765 16.1949 12.0386 15.6874C12.3191 15.2933 12.7351 15.1045 13.1738 15.0289C12.9895 16.809 13.5702 18.3149 14.1884 19.3659H9.92464C9.3619 19.3659 8.90519 19.8257 8.90519 20.3923C8.90519 20.9588 9.3619 21.4186 9.92464 21.4186H14.7511C14.663 21.6223 14.588 21.8325 14.5228 22.0476H9.67834C9.34233 22.041 8.55613 21.9014 8.27394 21.527C7.76503 20.8537 7.77156 19.7403 8.29515 17.6925L8.48109 17.1358C8.66052 16.5988 8.37344 16.0159 7.84006 15.8352C7.30669 15.6546 6.72764 15.9436 6.54821 16.4806L6.34922 17.0734C6.34106 17.0964 6.33454 17.1194 6.32801 17.144C5.80932 19.159 5.48799 21.2347 6.64608 22.7701C7.64107 24.0888 9.57395 24.1036 9.65713 24.1036H14.252V24.2366C14.252 24.4895 14.2716 24.7358 14.3009 24.9789H9.72075C9.69791 24.9789 7.29527 25.0166 5.96917 23.3203C4.89752 21.949 4.7393 19.7748 5.50267 16.8567L5.74896 16.1193C5.83541 15.9206 5.92513 15.7252 6.0181 15.5314C6.08171 15.3968 6.15022 15.2654 6.2171 15.134L7.28385 15.3771C7.35888 15.3935 7.43554 15.4033 7.50894 15.4033C7.97545 15.4033 8.39628 15.0798 8.5023 14.602C8.62626 14.0485 8.2821 13.5001 7.73241 13.3753L7.30179 13.2767C7.3703 13.1733 7.44207 13.0731 7.51384 12.9713C8.07984 13.0419 8.61648 13.078 9.11397 13.078C12.784 13.078 14.5717 11.3915 14.6565 11.3094C15.0627 10.9169 15.0741 10.2666 14.6842 9.85772C14.2944 9.44882 13.6485 9.43732 13.2423 9.8298C13.2277 9.84458 11.9048 11.0302 9.07972 11.022C12.3795 7.45029 17.0004 5.24814 21.9264 5.06586C22.1466 5.05764 22.3668 5.05436 22.587 5.05436C22.8937 5.05436 23.1987 5.06257 23.5037 5.07735C23.6554 5.08556 23.8055 5.0987 23.9555 5.11019C24.104 5.12169 24.2524 5.1299 24.3992 5.14468C24.6015 5.16439 24.8037 5.1923 25.0044 5.21858C25.0941 5.23007 25.1854 5.23993 25.2751 5.25306C25.5133 5.28919 25.7481 5.33025 25.983 5.37458C26.032 5.38444 26.0825 5.39101 26.1315 5.40086C26.3957 5.45341 26.6567 5.51253 26.916 5.57493C26.9323 5.57986 26.9503 5.58314 26.9682 5.58642C28.7037 6.01832 30.3463 6.70146 31.8551 7.5948C29.8423 9.05634 29.4377 11.8021 29.5552 13.5855C29.2926 13.7415 29.0234 13.9418 28.7592 14.1963C28.7576 14.1931 28.7527 14.1865 28.751 14.1832C29.198 13.4886 29.8374 11.6953 29.1719 10.132C28.9403 9.58676 28.4901 8.93974 27.6158 8.49143C27.6403 8.47337 27.6647 8.45366 27.6892 8.4356C28.1426 8.10059 28.2421 7.4585 27.9094 7.00034C27.5766 6.54381 26.9389 6.44364 26.4838 6.77864C23.5706 8.92661 21.2593 12.1486 20.7096 13.6479C19.483 16.9995 21.4452 19.379 21.5301 19.4792C21.7323 19.719 22.0178 19.8405 22.3065 19.8405C22.5397 19.8405 22.7746 19.76 22.9671 19.5958C23.3961 19.228 23.4483 18.5809 23.0829 18.1491C23.0698 18.1343 21.8025 16.5956 22.6229 14.3573C22.9165 13.5559 24.1219 11.738 25.8134 10.0564C27.0009 10.242 27.2243 10.7675 27.2977 10.9399C27.6207 11.6986 27.2113 12.8186 27.0367 13.0698C26.7431 13.4935 26.2391 14.5954 27.5505 15.9502C27.5081 16.0438 27.4657 16.1407 27.4249 16.2409C27.2113 16.7647 27.4592 17.3641 27.9812 17.5809C28.1084 17.6334 28.2389 17.658 28.3677 17.658C28.769 17.658 29.149 17.4183 29.3105 17.0209C30.1016 15.0798 31.3315 15.0651 31.493 15.0749C32.0394 15.1192 32.532 14.7071 32.5858 14.1487C32.6396 13.5838 32.2286 13.0829 31.6675 13.0288C31.6577 13.0288 31.6251 13.0255 31.5762 13.0238C31.568 11.7971 31.8339 9.57034 33.7553 8.88227C34.4649 9.43075 35.1353 10.0301 35.7583 10.6755C35.6376 10.7314 35.5153 10.7938 35.3913 10.8709C34.9134 11.1698 34.7666 11.8037 35.0635 12.2849C35.3604 12.766 35.99 12.9122 36.4679 12.6149C36.9083 12.339 37.2231 12.5098 37.3732 12.6396C37.3976 12.6626 37.4254 12.679 37.4515 12.6987C37.6456 12.9664 37.8315 13.2406 38.0109 13.5198H37.6782C37.1154 13.5198 36.6587 13.9796 36.6587 14.5461C36.6587 15.1127 37.1154 15.5725 37.6782 15.5725H39.1609C39.2457 15.7515 39.3272 15.9321 39.4072 16.1128C39.4333 16.1735 39.4626 16.2326 39.4887 16.2934C39.5556 16.451 39.6159 16.612 39.6796 16.7713C39.7269 16.8895 39.7758 17.0077 39.8198 17.1276C39.8688 17.2606 39.9128 17.3969 39.9601 17.5316C40.0107 17.6794 40.0629 17.8272 40.1102 17.9783C40.1493 18.1014 40.1836 18.2262 40.2195 18.351C40.2668 18.5153 40.3157 18.6778 40.3581 18.8437C40.3891 18.9652 40.4168 19.0867 40.4462 19.2083C40.487 19.379 40.5277 19.5498 40.5636 19.7206C40.5897 19.8454 40.6126 19.9702 40.6354 20.095C40.668 20.2658 40.699 20.4382 40.7267 20.6107C40.7479 20.7421 40.7643 20.8734 40.7838 21.0064C40.8067 21.1739 40.8295 21.3414 40.8474 21.5106C40.8621 21.6518 40.8752 21.7947 40.8866 21.9376C40.9323 22.468 40.96 23.0033 40.96 23.5452C40.96 24.8442 40.8246 26.1415 40.5604 27.3994C40.4429 27.9545 40.7952 28.498 41.3466 28.6163C41.4183 28.6311 41.4885 28.6393 41.5586 28.6393C42.03 28.6393 42.4525 28.3075 42.5552 27.8264C42.8505 26.4273 42.9989 24.9871 42.9989 23.5452C42.9989 23.0789 42.9777 22.6191 42.9467 22.1609L42.95 22.1675ZM30.2076 28.838C30.7394 29.4423 31.63 30.4046 32.6331 31.2717H29.3187C29.3024 31.2618 29.2877 31.2503 29.2697 31.2421C28.5015 30.871 28.1182 30.3389 27.9241 29.9103C28.3449 29.71 29.1164 29.3487 30.206 28.838H30.2076ZM25.8901 30.2814C25.9863 30.582 26.1282 30.9202 26.3419 31.2717H25.4594C25.2702 31.2585 24.0632 31.1337 23.4662 30.2814H25.8901ZM31.4228 15.9042C30.8601 15.9042 30.4034 16.364 30.4034 16.9306C30.4034 17.4971 30.8601 17.9569 31.4228 17.9569H36.4711C36.4842 17.9569 36.4989 17.9569 36.5136 17.9602C36.525 18.9619 37.0127 20.4251 38.3567 21.307C38.528 21.4203 38.7221 21.4745 38.9129 21.4745C39.2457 21.4745 39.5719 21.3102 39.7676 21.0081C40.0759 20.5335 39.9422 19.898 39.4708 19.5876C38.7971 19.1459 38.5525 18.3494 38.5525 17.9224C38.5525 17.1884 38.236 16.7302 37.9718 16.474C37.3993 15.9239 36.6473 15.8976 36.4336 15.9026H36.1596C36.2232 14.8565 35.9427 13.6101 34.7748 12.7709C34.7503 12.7545 34.7079 12.7282 34.6834 12.7118C34.4502 12.5739 34.2039 12.3177 34.354 11.8891C34.5415 11.3537 34.2626 10.7675 33.7309 10.5803C33.1991 10.3914 32.6168 10.6722 32.4309 11.2076C31.8437 12.8842 32.9169 14.0469 33.6248 14.4689C34.1142 14.8466 34.1598 15.4543 34.1093 15.9042H31.4228Z" fill="#C4CADB"/>
</svg>
