<svg width="22" height="22" viewBox="0 0 22 22" fill="none" xmlns="http://www.w3.org/2000/svg">
<path d="M0.998745 21.9874C-0.0326224 22.1078 -0.0250942 21.4608 0.0150564 20.7261C0.233375 16.6887 3.7591 12.393 8.02007 11.4777C9.99749 11.0514 10.9912 10.5097 11.4128 8.27286C12.2409 3.87687 16.0954 0.684579 20.4818 0.0752095C21.9097 -0.122898 22.1054 0.0752094 21.9046 1.50209C21.2447 6.17392 17.6562 10.0709 12.9912 10.7755C11.4479 11.0088 10.9887 11.5705 10.7177 12.9823C9.81179 17.7168 6.86324 20.6007 2.23588 21.8169C1.83689 21.9222 1.41029 21.9298 0.996236 21.9849L0.998745 21.9874Z" fill="#30A9FE"/>
<path d="M1.11191 10.9286C0.0604627 11.1342 -0.0499512 10.5249 0.0152934 9.62208C0.361592 4.9352 4.97138 0.386245 9.76184 0.0125986C10.5899 -0.0526015 11.004 0.140491 10.9488 1.08338C10.6728 5.90066 5.84716 10.7806 1.11191 10.9311V10.9286Z" fill="#30A9FE"/>
<path d="M12.1205 21.9648C11.2773 22.1153 11.0113 21.7366 11.0364 20.8589C11.1744 16.147 16.5245 10.9034 21.0991 11.0238C21.7164 11.0413 21.9824 11.2871 21.9975 11.914C22.1205 16.5056 16.8883 21.862 12.1205 21.9648Z" fill="#30A9FE"/>
</svg>
