<svg width="22" height="22" viewBox="0 0 22 22" fill="none" xmlns="http://www.w3.org/2000/svg">
<path d="M10.6784 19.5614C11.4623 18.2 11.9699 17.2699 12.5226 16.3673C14.3719 13.3477 17.0854 11.5972 20.5905 11.0636C21.9045 10.8641 22.1407 11.0786 21.9347 12.3428C21.2362 16.6091 18.9372 19.731 14.8342 21.2296C10.7563 22.7207 6.88945 22.0424 3.6206 19.135C1.29146 17.0629 -0.409547 14.5969 0.110553 10.9514C5.48493 11.4401 9.01005 14.0782 10.6784 19.5614Z" fill="var(--color-primary)"/>
<path d="M0.125651 0C5.58042 0.428879 9.0151 3.25649 10.7337 8.46288C11.392 7.33333 11.9146 6.41324 12.4573 5.5081C14.2764 2.47104 16.9598 0.680721 20.4648 0.1147C21.9146 -0.119687 22.1633 0.0997392 21.9121 1.4936C21.1131 5.95194 18.6458 9.1062 14.2387 10.4452C9.96736 11.7443 6.13319 10.7594 2.98746 7.56772C0.969872 5.52057 -0.439676 3.19415 0.125651 0Z" fill="var(--color-primary)"/>
</svg>
