<svg width="45" height="45" viewBox="0 0 45 45" fill="none" xmlns="http://www.w3.org/2000/svg">
<path d="M6.45219 42.0111C5.85086 41.8106 5.22725 41.6436 4.72613 41.2316C3.70164 40.3964 3.02235 39.383 3.01121 38.0022C3.01121 36.7772 3.01121 35.5523 3.01121 34.3273C3.01121 33.5701 3.16711 32.8463 3.32302 32.1113C3.42324 31.6659 3.46778 31.187 3.55687 30.7305C3.64596 30.2739 3.66823 29.8173 3.82413 29.3607C3.90208 29.1492 3.82413 28.8262 3.85754 28.559C3.92435 28.0913 3.95776 27.6236 3.98003 27.1447C4.01344 26.3318 4.08025 25.5189 4.04685 24.706C4.0023 23.4365 3.92435 22.167 3.76845 20.9086C3.66823 20.0512 3.5346 19.2048 3.49005 18.3474C3.46778 18.0356 3.33415 17.7572 3.44551 17.4231C3.50119 17.2449 3.33415 17.0334 3.27847 16.8218C3.16711 16.3318 3.20052 15.8307 3.16711 15.3407C2.87758 11.2093 3.06689 7.08903 3.00008 2.95763C3.00008 2.22266 3.40097 2.04449 3.80186 2.01108C4.2807 1.97767 4.65932 2.41197 4.65932 2.9799C4.65932 5.74159 4.69273 8.50329 4.65932 11.265C4.64818 12.1893 4.74841 13.0913 4.74841 14.0155C4.74841 14.9844 4.84863 15.9643 4.98226 16.922C5.07135 17.5233 5.12703 18.1358 5.20498 18.7371C5.3052 19.4387 5.39429 20.1514 5.43883 20.8641C5.4611 21.187 5.48337 21.5211 5.57246 21.844C5.66155 22.1893 5.63928 22.5679 5.65041 22.9131C5.67268 23.9376 5.81745 24.9509 5.75063 25.9754C5.70609 26.677 5.66155 27.3786 5.59473 28.069C5.56132 28.4253 5.55019 28.8262 5.4611 29.2048C5.37201 29.5835 5.41656 30.0512 5.3052 30.4075C5.11589 30.9754 5.09362 31.5434 5.01567 32.1113C4.89317 32.9465 4.61478 33.7483 4.65932 34.6169C4.72613 35.775 4.64818 36.9331 4.65932 38.0913C4.65932 38.5478 4.85976 38.9821 5.1493 39.3385C5.68382 39.9955 6.35197 40.3964 7.25397 40.363C8.52346 40.3184 9.80409 40.4409 11.0736 40.285C11.9422 40.1737 12.8219 40.0846 13.6905 39.9398C14.2028 39.8507 14.7261 39.7839 15.2495 39.7728C15.9956 39.7505 16.7417 39.628 17.499 39.6726C18.4789 39.7394 19.4589 39.795 20.4277 39.9732C21.107 40.0957 21.7863 40.1737 22.4767 40.2182C27.9555 40.5746 33.4344 40.2627 38.9132 40.363C39.9823 40.3852 40.9511 39.5946 41.1738 38.6258C41.4745 37.2672 40.6615 36.0534 39.2473 35.8418C38.1337 35.6748 37.0313 35.4521 35.9399 35.2071C34.6482 34.9175 33.3676 34.5612 32.1315 34.0601C31.2295 33.6815 30.3386 33.3028 29.4477 32.8797C28.6682 32.5122 27.8887 32.1336 27.0758 31.844C26.4745 31.6325 25.8954 31.3095 25.2829 31.0868C23.568 30.4521 21.8197 29.9064 20.0825 29.3607C18.5235 28.8708 17.6103 27.7572 17.2094 26.187C17.1203 25.8418 17.1538 25.4966 17.1538 25.1514C17.1538 17.9131 17.1538 10.6748 17.1538 3.43647C17.1538 3.24716 17.1315 3.04672 17.1315 2.85741C17.1315 2.46765 17.3987 2.14471 17.744 2.11131C18.2562 2.05563 18.6905 2.27834 18.7573 2.65696C18.8019 2.94649 18.8241 3.24716 18.8241 3.54783C18.8241 7.9799 18.8241 12.4008 18.8241 16.8329C18.8241 19.6057 18.8575 22.3786 18.8019 25.1514C18.7796 26.2093 19.1805 26.9554 19.9934 27.5233C20.4611 27.8463 21.0402 27.9242 21.5747 28.1024C22.254 28.3251 22.9333 28.5367 23.6125 28.7705C24.8152 29.1826 26.029 29.5946 27.2094 30.0846C28.1783 30.4855 29.1359 30.9198 30.0825 31.3763C31.4411 32.0334 32.8219 32.6236 34.2584 33.0913C35.2941 33.4365 36.3854 33.6146 37.4544 33.8374C38.3453 34.0267 39.2696 34.0824 40.127 34.3496C41.6304 34.8173 42.5546 35.8752 42.8219 37.4565C42.8442 37.6013 42.8442 37.7795 42.9667 37.902V38.3697C42.833 38.4142 42.8219 38.5144 42.8108 38.6369C42.6994 39.8619 42.0201 40.7193 41.0624 41.4097C40.5836 41.755 40.0157 41.8775 39.4589 42.0445H23.2896C23.0112 41.922 22.7105 41.922 22.4099 41.8886C21.7083 41.7995 20.9956 41.7104 20.2941 41.5991C19.7707 41.5211 19.2362 41.4432 18.735 41.3986C18.2896 41.3652 17.7996 41.3429 17.3431 41.3429C16.4967 41.3429 15.6615 41.4432 14.8264 41.5656C13.8241 41.7104 12.7996 41.7661 11.7863 41.9109C11.5079 41.9443 11.2072 41.8886 10.9511 42.0556H6.45219V42.0111Z" fill="#C4CADB"/>
<path d="M14.6481 13.392C14.6481 16.8107 14.6481 20.2405 14.6481 23.6592C14.6481 24.4388 14.804 25.1849 15.1826 25.8864C15.6837 26.8107 15.8619 27.7906 15.461 28.804C15.3496 29.0824 15.5612 29.0935 15.6949 29.1158C16.8196 29.3385 17.9109 29.6726 19.0133 29.9287C19.9933 30.1626 20.8953 30.5969 21.8641 30.8641C22.4989 31.0423 23.1002 31.343 23.7238 31.588C24.4031 31.8552 25.1158 32.078 25.7617 32.4232C26.2405 32.6793 26.7305 32.8909 27.2205 33.1136C28.5679 33.7149 29.8931 34.3608 31.2516 34.9399C32.5323 35.4855 33.8686 35.7973 35.1937 36.1425C35.4499 36.2094 35.7171 36.1648 35.9955 36.2094C36.6191 36.3319 37.1759 36.9555 37.2316 37.6793C37.2873 38.4699 36.8753 39.0824 36.196 39.3719C35.9287 39.4833 35.6837 39.5056 35.4165 39.5056C33.1002 39.5056 30.7839 39.4944 28.4677 39.5167C27.7773 39.5167 27.0868 39.5167 26.4075 39.4833C25.383 39.4276 24.392 39.1492 23.4454 38.7817C22.4098 38.3808 21.363 38.0134 20.294 37.6793C19.1247 37.3229 17.9443 37.0223 16.7082 37.078C16.1069 37.1114 15.5501 37.2895 15.1381 37.735C14.481 38.4699 13.6347 38.6815 12.7104 38.7149C12.3541 38.7261 12.0089 38.8263 11.6525 38.8486C10.5724 38.9042 9.48104 39.216 8.38973 38.8708C7.47659 38.5813 6.76389 38.069 6.363 37.167C6.21824 36.8441 6.01779 36.5768 5.96211 36.1982C5.82848 35.3185 6.02893 34.5167 6.32959 33.7149C6.57458 33.0468 6.94207 32.4454 7.34296 31.8664C7.5434 31.5657 7.79953 31.3207 7.98884 31.0089C8.11133 30.8085 8.1336 30.6303 8.17815 30.4187C8.28951 29.8842 8.24496 29.3274 8.32291 28.7929C8.40086 28.1693 8.43427 27.5457 8.48995 26.9221C8.57904 25.8307 8.62358 24.7394 8.66812 23.637C8.6904 23.2138 8.73494 22.7906 8.7238 22.3675C8.6904 21.6993 8.80175 21.0535 8.79062 20.3853C8.76835 18.637 8.76835 16.8775 8.71267 15.1292C8.66812 13.4254 8.59017 11.7105 8.46768 10.0067C8.43427 9.4833 8.52336 8.93764 8.42314 8.4588C8.33405 7.96882 8.44541 7.47884 8.27837 7.02227C8.23383 6.89978 8.22269 6.78842 8.24496 6.67706C8.37859 6.12027 8.07792 5.58575 8.21155 5.00668C8.27837 4.71715 8.12247 4.33853 8.06679 4.00445C7.98884 3.6147 8.05565 3.23608 8.02225 2.84633C7.9777 2.32294 8.28951 2.01114 8.77948 2C9.20265 2 9.62581 2.37862 9.65922 2.79065C9.73717 3.83742 9.80398 4.89532 9.89307 5.94209C9.99329 7.08909 10.0712 8.24722 10.1381 9.40535C10.1937 10.3408 10.2271 11.2873 10.294 12.2227C10.4053 13.971 10.3942 15.7194 10.461 17.4566C10.4944 18.4143 10.5501 19.3719 10.4944 20.3296C10.4499 21.265 10.4833 22.2004 10.4276 23.1247C10.383 23.9822 10.3385 24.8508 10.2717 25.6971C10.1826 26.8218 10.049 27.9577 9.91534 29.0824C9.85966 29.5278 9.70376 30.0067 9.88193 30.4855C10.0156 30.853 10.2717 31.0089 10.6058 31.0646C10.951 31.1091 11.2739 31.098 11.4632 30.686C11.8418 29.8619 12.4877 29.2272 13.2561 28.7817C14.1915 28.2472 14.1581 27.6793 13.8018 26.8441C13.5568 26.265 13.2227 25.7305 13.1447 25.0958C13.1336 24.9844 13.1002 24.8731 13.1002 24.7617C12.8552 20.3185 13.0557 15.8641 13.0222 11.4209C13 8.58129 13.0222 5.74165 13.0222 2.902C13.0222 2.33408 13.2672 2.05568 13.7906 2.02227C14.2138 1.98886 14.6369 2.37862 14.6815 2.84633C14.6815 2.94655 14.6815 3.05791 14.6815 3.15813C14.6815 6.5657 14.6815 9.98441 14.6815 13.392C14.6815 13.392 14.6704 13.392 14.6592 13.392H14.6481ZM34.9488 37.8575C34.9488 37.8575 34.9488 37.7906 34.9488 37.7572C34.7706 37.7127 34.5813 37.6682 34.4031 37.6459C32.7995 37.3675 31.2739 36.8441 29.7928 36.1871C28.4677 35.608 27.1759 34.9733 25.8619 34.3608C24.1692 33.5702 22.4209 32.902 20.6614 32.2895C19.392 31.8441 18.0891 31.4766 16.7973 31.098C15.951 30.853 15.0712 30.7528 14.2249 30.5301C13.8686 30.441 13.6459 30.5078 13.4231 30.7751C13.2895 30.931 13.1781 31.098 13.0668 31.265C12.922 31.4989 12.7884 31.7439 12.6214 31.9666C11.9532 32.8463 10.4387 33.0134 9.45877 32.412C9.13583 32.2116 9.01334 32.3452 8.85743 32.6013C8.35632 33.4031 7.89975 34.2049 7.6659 35.1403C7.34296 36.4209 8.20042 37.2784 9.30287 37.3452C10.383 37.412 11.4187 37.1114 12.4877 37.1002C13.2004 37.1002 13.7906 36.7996 14.3251 36.3207C14.6815 35.9978 15.1158 35.7639 15.6058 35.6192C16.5523 35.3408 17.4989 35.3519 18.4677 35.5301C20.1381 35.8419 21.7528 36.3653 23.3341 36.9666C24.804 37.5234 26.2962 37.902 27.8775 37.8909C30.0267 37.8686 32.1759 37.8797 34.3251 37.8686C34.5367 37.8686 34.7483 37.8686 34.9599 37.8686L34.9488 37.8575Z" fill="#C4CADB"/>
</svg>
