<svg width="59" height="59" viewBox="0 0 59 59" fill="none" xmlns="http://www.w3.org/2000/svg">
<path d="M1.71206 1.67578C1.71206 1.67578 1.20735 7.73223 4.01477 17.4793C5.42524 22.3731 6.16427 27.4472 6.01105 32.5348C5.95247 34.4905 5.77222 36.5995 5.42073 38.7941C5.16387 40.3758 4.6141 41.8944 3.87057 43.3139C2.51418 45.9095 0.612523 50.9565 3.95619 54.4759C5.21795 55.8053 6.97089 56.5398 8.79594 56.675C10.986 56.8417 14.7307 56.7741 19.5615 55.3411C23.4414 54.192 27.5826 54.2957 31.3499 55.7692C34.7386 57.0941 39.4928 58.0584 44.8913 56.5623C46.4775 56.1252 48.1448 56.1523 49.7355 56.5759C51.3353 57.0039 53.4848 57.2518 55.3188 56.3641C56.6392 55.7197 57.4909 54.0073 57.1078 52.5923C57.0853 52.5067 57.0583 52.4211 57.0267 52.3309C57.0267 52.3309 55.5802 51.4973 52.7818 51.6099C52.7818 51.6099 51.7048 49.4785 47.0002 48.104C42.7238 46.8558 38.6681 44.9496 34.9144 42.5523C33.6301 41.7321 32.2331 40.8985 30.8227 40.1549C27.2086 38.2533 24.5319 34.9141 23.6892 30.9216C23.2251 28.727 22.9817 25.9962 23.189 22.63L24.9194 1.67578" stroke="#209241" stroke-width="2" stroke-miterlimit="10" stroke-linecap="round"/>
<path d="M10.5353 52.6151C8.37228 50.3394 9.82781 46.5947 10.8868 44.5714C11.8106 42.8094 12.4234 41.0114 12.7118 39.2314C13.0588 37.0864 13.2706 34.8603 13.3382 32.6207C13.4959 27.461 12.7884 22.1121 11.2383 16.7316C8.93557 8.74641 8.97613 3.3614 9.01668 2.15823C6.11464 2.09514 4.40225 1.90137 4.40225 1.90137C4.38873 2.10415 4.03273 7.79108 6.61033 16.7316C8.16049 22.1121 8.86798 27.4565 8.71026 32.6207C8.64266 34.8603 8.43087 37.0819 8.08388 39.2314C7.79548 41.0114 7.18262 42.8094 6.25884 44.5714C5.19986 46.5992 3.74433 50.3394 5.90735 52.6151C6.65539 53.4037 7.75042 53.8904 8.98964 53.9805C9.44478 54.0166 9.96751 54.0391 10.5488 54.0391C11.2879 54.0391 12.126 54.003 13.0498 53.9084C12.0449 53.7282 11.1617 53.282 10.5308 52.6151H10.5353Z" fill="#F5982F"/>
</svg>
