<svg width="45" height="56" viewBox="0 0 45 56" fill="none" xmlns="http://www.w3.org/2000/svg">
<path d="M18.7934 11.6873C18.9803 11.8237 19.1959 11.8877 19.4114 11.8877C19.7365 11.8877 20.0581 11.7379 20.2636 11.4533C20.6745 10.8857 21.1494 10.325 21.6714 9.78438C22.0756 9.36674 22.0655 8.69987 21.6461 8.2957C21.2285 7.89154 20.5616 7.90333 20.1575 8.32096C19.5664 8.93227 19.0275 9.56883 18.5593 10.2172C18.2175 10.6887 18.3219 11.3455 18.7934 11.6873ZM22.5926 15.1362C22.67 15.1547 22.7492 15.1632 22.825 15.1632C23.3066 15.1632 23.7411 14.8314 23.8505 14.3414C23.9785 13.7738 23.6215 13.2114 23.0557 13.0834C19.5916 12.302 12.9481 11.8153 6.95133 12.3963C6.37203 12.4519 5.94934 12.9672 6.00491 13.5448C6.06048 14.1241 6.57579 14.5451 7.15341 14.4912C12.9296 13.9305 19.2936 14.3919 22.5926 15.1362ZM21.6074 21.4833C21.5485 22.0609 21.9695 22.5746 22.5454 22.6352C22.5825 22.6386 22.6195 22.6402 22.6549 22.6402C23.187 22.6402 23.6434 22.2378 23.7007 21.6972C23.7226 21.4833 24.3103 16.4413 28.8555 14.4626C29.7143 14.0888 30.5024 14.077 31.1946 14.4272C31.2064 14.434 31.2182 14.439 31.2198 14.4407C31.9945 14.8449 32.6311 15.7138 32.9662 16.8236C33.1043 17.2783 33.5219 17.573 33.9732 17.573C34.0743 17.573 34.177 17.5578 34.278 17.5275C34.8338 17.3591 35.1487 16.7714 34.9803 16.2157C34.9735 16.1921 34.9634 16.1702 34.955 16.145L37.1122 15.2945C37.6528 15.0823 37.9189 14.471 37.705 13.9288C37.4928 13.3882 36.8799 13.1238 36.3393 13.3343L34.0322 14.2437C33.7678 13.8648 33.4714 13.5263 33.1413 13.235L34.63 11.1451C34.9668 10.6719 34.8573 10.0151 34.3824 9.6766C33.9092 9.3398 33.2525 9.44926 32.914 9.92247L31.2771 12.2212C30.6271 12.046 29.9467 12.0241 29.2512 12.1521L28.6837 9.0973C28.5776 8.52473 28.0286 8.15088 27.456 8.25529C26.8852 8.36138 26.5079 8.91037 26.614 9.48294L27.2506 12.9049C22.2591 15.5791 21.6293 21.2324 21.604 21.4833H21.6074ZM33.9362 24.0262C33.3653 24.139 32.9948 24.6914 33.1059 25.2623C33.9513 29.5599 33.4983 34.4992 31.8295 39.169C31.4152 40.3276 30.9807 41.3329 30.5294 42.1952C29.6049 40.5212 27.9461 40.0733 26.9845 40.1036C26.4103 40.1238 25.9674 40.6038 25.9791 41.178C25.9926 41.7506 26.4675 42.2069 27.0401 42.2069H27.0569C27.3634 42.2069 28.7746 42.3248 29.0491 44.4113C28.325 45.2214 27.5638 45.7047 26.769 45.8444C24.9687 46.1661 22.8351 44.7987 20.6155 42.7088C20.885 41.5603 21.9038 38.881 25.6188 38.2175C26.1913 38.1148 26.5719 37.5691 26.4692 36.9966C26.3665 36.424 25.8175 36.0434 25.2483 36.1461C23.9785 36.3735 22.9277 36.7979 22.0587 37.3384C21.8886 36.1613 22.5134 35.4388 22.6094 35.3361C23.0119 34.9235 23.0085 34.2651 22.601 33.8559C22.1901 33.445 21.5232 33.445 21.1123 33.8559C21.0264 33.9417 19.1252 35.8952 20.2956 38.8423C19.6809 39.5496 19.2414 40.309 18.9416 41.0281C17.3973 39.3845 15.843 37.5136 14.3577 35.7285L13.8087 35.0684C10.5467 31.1513 10.7438 27.1433 11.483 24.4708C12.6063 20.4089 15.4186 17.5326 16.3718 17.1992C17.9901 16.6316 19.0376 18.6542 19.0881 18.7535C19.3458 19.2722 19.9739 19.4861 20.496 19.2301C21.018 18.9741 21.2319 18.3426 20.9759 17.8206C20.3292 16.5036 18.3876 14.2639 15.678 15.212C13.9518 15.8166 10.7421 19.2604 9.45548 23.91C8.58147 27.0675 8.34739 31.7997 12.192 36.4156L12.741 37.074C14.7248 39.4603 16.6648 41.791 18.5762 43.6855C18.6671 43.8354 18.7951 43.9583 18.9467 44.0476C21.4003 46.4069 23.8101 48 26.2082 48C26.518 48 26.8262 47.9731 27.1344 47.9192C29.8642 47.4358 32.0484 44.8054 33.8099 39.8779C35.605 34.8562 36.0884 29.5212 35.1706 24.8564C35.0577 24.2855 34.5054 23.9134 33.9345 24.0262H33.9362ZM38.2725 24.683C38.217 24.4708 36.8546 19.4524 30.3677 15.8081C29.8608 15.5235 29.2192 15.7037 28.9346 16.2106C28.65 16.7175 28.8302 17.3591 29.3371 17.6437C34.982 20.8131 36.218 25.1478 36.2366 25.2134C36.3612 25.685 36.7872 25.9982 37.2537 25.9982C37.3413 25.9982 37.4305 25.9864 37.5181 25.9645C38.0806 25.8197 38.4191 25.2454 38.2742 24.683H38.2725Z" fill="#C4CADB"/>
</svg>
