<svg width="34" height="57" viewBox="0 0 34 57" fill="none" xmlns="http://www.w3.org/2000/svg">
<path d="M17.3904 11.0278C15.3904 11.0278 13.557 14.3612 12.8904 16.0278C8.09035 10.0278 9.55702 5.52783 10.8904 4.02783L12.8904 2.02783C15.2237 5.02783 19.3904 11.0278 17.3904 11.0278Z" fill="var(--color-secondary)"/>
<path d="M9.55588 56.9189C11.3573 56.6059 13.0341 56.0022 14.3659 54.6959C16.4164 52.6837 18.4701 50.6684 20.4567 48.5923C21.8748 47.1103 23.3313 45.6667 24.7685 44.2039C25.3371 43.629 25.9279 43.07 26.522 42.5207C27.3205 41.7861 28.1094 41.0163 28.7641 40.1572C29.6457 38.9946 30.6294 37.9023 31.3512 36.6183C32.4339 34.6924 33.3314 32.6898 33.7115 30.502C34.1874 27.7328 34.0054 25.0148 32.7278 22.4533C31.9325 20.8531 30.8689 19.4701 29.4923 18.298C27.9912 17.014 26.2601 16.0878 24.6567 14.9635C22.6063 13.5263 20.7889 11.8558 19.1345 9.9842C17.4385 8.06465 16.097 5.92472 15.0367 3.61233C14.6598 2.78829 14.3116 1.9419 14.1136 1.04761C14.0146 0.597263 13.7271 0.258708 13.3407 0L12.2292 4.75928e-09C11.9865 0.836808 11.303 1.39894 10.9069 2.14632C10.6354 2.66692 10.3065 3.16198 10.0477 3.68898C9.73794 4.32457 9.92638 4.85795 10.5045 5.13583C11.0954 5.42008 11.6798 5.21887 12.0152 4.6216C12.1909 4.31179 12.3793 4.00837 12.5965 3.64426C12.8041 4.10738 12.9894 4.50982 13.1714 4.91545C13.3694 5.31788 13.5706 5.71712 13.7719 6.12275C14.6023 7.5153 15.388 8.93979 16.458 10.1758C16.6464 10.3962 16.5538 10.5144 16.3398 10.5751C14.7364 11.0222 13.609 12.0539 12.7594 13.44C12.67 13.5806 12.6508 13.8233 12.3985 13.8009C12.1653 13.785 12.1749 13.5582 12.0982 13.4113C11.7501 12.7374 11.188 12.501 10.6386 12.8076C9.95512 13.1909 9.83056 13.8009 10.1691 14.4972C11.0123 16.2283 11.9833 17.8764 13.1139 19.4286C14.5352 21.3801 15.9661 23.322 17.397 25.2639C18.633 26.9407 18.6841 28.3461 17.3874 29.975C16.426 31.1855 15.1069 31.9424 13.9028 32.8463C12.9191 33.5809 11.9386 34.3187 10.9612 35.0597C9.53353 36.1488 8.03238 37.1581 6.71968 38.375C6.10645 38.9435 5.40698 39.4194 4.80972 40.0166C4.26356 40.5628 3.54173 40.9844 3.00835 41.5753C1.45291 43.3096 0.341421 45.2387 0.0667437 47.6341C-0.118504 49.263 0.069937 50.7993 0.782182 52.2206C1.8234 54.3094 3.45869 55.7339 5.73595 56.4973C6.59831 56.7847 7.45748 56.8326 8.31345 56.986C8.70311 57.0562 9.13429 56.8358 9.55908 56.9157L9.55588 56.9189ZM13.807 35.9125C13.8964 35.823 13.9603 35.7272 14.0433 35.6633C14.9025 35.0277 15.8383 34.5007 16.6081 33.7502C16.7454 33.6128 16.9051 33.5937 17.0648 33.6448C17.3842 33.7534 17.7068 33.8652 18.0102 34.0153C19.3261 34.6668 20.345 35.6282 21.0476 36.9313C21.3287 37.4487 22.0856 37.5925 22.5999 37.2954C23.1269 36.992 23.2642 36.4331 22.9576 35.839C22.0824 34.1271 20.7123 32.9293 19.0418 32.0318C18.9077 31.9616 18.6554 31.9392 18.8981 31.6645C19.3325 31.1791 19.7126 30.6457 19.9681 30.0452C20.0479 29.8568 20.2044 29.7833 20.3705 29.7322C21.1243 29.5214 21.8716 29.6108 22.6158 29.8185C23.7784 30.1378 24.5993 30.9076 25.2987 31.837C25.8449 32.5556 26.8222 32.479 27.2374 31.6869C27.5089 31.1663 27.2087 30.8213 26.9404 30.4253C26.2665 29.4192 25.4009 28.6175 24.3182 28.1033C23.2514 27.5987 22.1176 27.2825 20.9071 27.3879C20.7953 27.3975 20.61 27.4613 20.5877 27.2857C20.511 26.6852 20.131 26.0624 20.6516 25.4907C20.872 25.2511 21.0923 25.0052 21.3766 24.8168C23.5357 23.3795 25.8545 22.7982 28.4032 23.4945C29.7926 23.8746 31.562 25.0435 31.7057 27.0206C31.8047 28.378 31.6419 29.729 31.3097 31.0385C30.9168 32.5876 30.326 34.0728 29.4796 35.4366C28.6076 36.8451 27.6558 38.1993 26.4677 39.3747C24.6216 41.2016 22.7947 43.0477 20.9582 44.8842C20.5238 45.3186 20.0479 45.7178 19.671 46.1905C18.9556 47.0912 18.0869 47.8386 17.2852 48.653C16.9019 49.0363 16.6815 48.95 16.5825 48.4294C16.4068 47.5319 16.1545 46.66 15.685 45.8647C15.3944 45.3697 14.8163 45.1748 14.3212 45.4016C13.7495 45.6603 13.494 46.1841 13.692 46.7462C13.9507 47.484 14.2701 48.1803 14.3883 48.982C14.6374 50.662 13.989 51.9427 12.8808 53.0638C12.1653 53.7856 11.2295 54.1466 10.2809 54.4947C9.31954 54.8492 8.30067 54.5522 7.34888 54.878C7.32653 54.8875 7.25626 54.8237 7.24029 54.7821C7.16044 54.5618 6.96881 54.5937 6.79314 54.5458C5.24728 54.105 3.66629 53.0287 2.82949 51.3423C2.41747 50.5151 2.25458 49.6431 2.22264 48.7424C2.18112 47.5319 2.5069 46.3821 3.05945 45.3186C3.95375 43.6002 5.31755 42.2811 6.7612 41.01C8.05794 39.8729 9.45049 38.8828 10.8335 37.8639C11.1433 37.6372 11.4371 37.4328 11.8651 37.5414C13.4365 37.9502 14.6023 38.8924 15.4551 40.2434C15.7745 40.7481 16.5346 40.9397 17.0616 40.6235C17.5407 40.336 17.6748 39.6525 17.3491 39.116C16.4995 37.717 15.3624 36.6311 13.8198 35.9061L13.807 35.9125ZM29.3838 21.4344C27.9337 20.9681 26.5252 20.8499 25.1231 21.0639C22.9608 21.3929 20.939 22.0987 19.3325 23.6861C19.2015 23.8171 19.1504 23.9001 18.9843 23.6638C18.4733 22.9356 17.9176 22.2329 17.3554 21.543C17.0712 21.1949 17.1223 20.933 17.397 20.5944C18.3711 19.3967 19.6104 18.5599 21.038 18.0584C22.6989 17.4708 24.3565 17.4548 25.9215 18.4704C26.5827 18.9016 27.2534 19.3168 27.8539 19.8215C28.3936 20.2782 28.9494 20.7317 29.3838 21.4344ZM21.7247 15.532C19.3708 16.0974 17.4257 17.2184 15.8511 18.9527C15.6722 19.1508 15.6211 19.1955 15.4806 18.9847C15.0718 18.3906 14.6502 17.7965 14.2637 17.1865C14.1168 16.9501 13.9635 16.6946 14.0114 16.3784C14.2765 14.6888 15.4391 13.0727 17.1734 12.6288C17.8313 12.4627 18.518 12.4723 19.0834 13.1142C19.8595 13.9926 20.6931 14.8262 21.7311 15.532H21.7247Z" fill="var(--color-primary)"/>
<path d="M9.86562 7.90823C9.1917 7.91142 8.7733 8.34899 8.77969 9.04526C8.78288 9.6553 9.21725 10.1088 9.81771 10.1344C10.4501 10.1599 11.0122 9.62336 11.0058 9.01013C10.9995 8.33941 10.5491 7.90823 9.86881 7.91142L9.86562 7.90823Z" fill="var(--color-primary)"/>
</svg>
