<svg width="57" height="57" viewBox="0 0 57 57" fill="none" xmlns="http://www.w3.org/2000/svg">
<path d="M24.9861 2.14307C24.9861 2.14307 24.9676 2.16624 24.9444 2.19868C27.943 9.75764 33.7083 25.5707 32.2253 32.1333C30.2649 40.8045 21.7234 46.2687 13.0568 44.4844C16.0321 47.6915 20.2681 49.7075 24.9861 49.7075C33.9818 49.7075 41.2719 42.4174 41.2719 33.4217C41.2719 24.426 24.9861 2.14307 24.9861 2.14307Z" fill="#30A9FE"/>
<path d="M41.272 33.4171C41.272 24.4214 24.9861 2.14307 24.9861 2.14307C24.9861 2.14307 8.70032 24.4214 8.70032 33.4171C8.70032 42.4127 15.9905 49.7029 24.9861 49.7029C33.9818 49.7029 41.272 42.4127 41.272 33.4171Z" stroke="#262626" stroke-width="2" stroke-miterlimit="10"/>
<path d="M1.86426 55.3389H50.3834" stroke="#262626" stroke-width="2" stroke-miterlimit="10" stroke-linecap="round"/>
<path d="M37.3048 10.5459H46.5554" stroke="#262626" stroke-width="2" stroke-miterlimit="10" stroke-linecap="round"/>
<path d="M33.8149 2.14307H54.2209" stroke="#262626" stroke-width="2" stroke-miterlimit="10" stroke-linecap="round"/>
</svg>
