<svg width="63" height="59" viewBox="0 0 63 59" fill="none" xmlns="http://www.w3.org/2000/svg">
<path d="M23.2962 1.38525C27.0934 1.38525 30.1739 4.46576 30.1739 8.2629C30.1739 12.0601 27.0934 15.1406 23.2962 15.1406C19.4991 15.1406 16.4186 12.0601 16.4186 8.2629C16.4186 4.46576 19.4937 1.38525 23.2962 1.38525Z" stroke="#30A9FE" stroke-width="2" stroke-linecap="round" stroke-linejoin="round"/>
<path d="M53.3525 35.6235C57.1497 35.6235 60.2302 38.704 60.2302 42.5012C60.2302 46.2983 57.1497 49.3788 53.3525 49.3788C49.5554 49.3788 46.4749 46.2983 46.4749 42.5012C46.4749 38.704 49.5554 35.6235 53.3525 35.6235Z" stroke="#262626" stroke-width="2" stroke-linecap="round" stroke-linejoin="round"/>
<path d="M3.40665 40.0251L37.843 37.3189C39.8379 37.1638 41.5386 38.6239 42.0573 40.501L47.0685 52.2989H58.8397C60.2997 52.2989 61.4977 53.4969 61.4977 54.9569C61.4977 56.417 60.305 57.6149 58.8397 57.6149H45.6513C43.7848 57.6149 43.0895 56.5186 42.667 55.5345L39.7416 48.6515H4.08051C2.59909 48.6515 1.38507 47.4375 1.38507 45.9561V42.0466C1.38507 40.9342 2.2996 40.1106 3.40665 40.0251Z" stroke="#262626" stroke-width="2" stroke-linecap="round" stroke-linejoin="round"/>
<path d="M9.8725 38.5223L13.6269 20.3441C13.9317 18.8627 14.8676 17.5952 16.3758 17.5952H28.2272C29.4519 17.5952 31.3611 18.6702 31.8157 19.8628L36.49 32.1955C37.0087 33.5593 36.3135 35.1049 34.9444 35.6183C33.5806 36.1371 32.035 35.4418 31.5216 34.0727L28.5374 26.195L24.922 37.4741" stroke="#30A9FE" stroke-width="2" stroke-linecap="round" stroke-linejoin="round"/>
<path d="M2.74884 53.791H36.9232" stroke="#262626" stroke-width="2" stroke-linecap="round" stroke-linejoin="round"/>
</svg>
