<svg width="21" height="21" viewBox="0 0 21 21" fill="none" xmlns="http://www.w3.org/2000/svg">
<path d="M0 10.4432C0 4.6756 4.6756 0 10.4432 0C16.2109 0 20.8865 4.6756 20.8865 10.4432C20.8865 16.2109 16.2109 20.8865 10.4432 20.8865C4.6756 20.8865 0 16.2109 0 10.4432Z" fill="#C4CADB"/>
<path d="M9.79053 17.6229L12.6823 15.0382C15.1058 12.8721 16.3176 11.7891 16.3176 10.4432C16.3176 9.09737 15.1058 8.01431 12.6823 5.84819L9.79053 3.26349C14.2199 7.22579 14.2233 13.6556 9.79053 17.6229Z" fill="white"/>
<path d="M7.17969 17.6229L10.0715 15.0382C12.495 12.8721 13.7067 11.7891 13.7067 10.4432C13.7067 9.09737 12.495 8.01431 10.0715 5.84819L7.17969 3.26349C11.6091 7.22579 11.6125 13.6556 7.17969 17.6229Z" fill="white"/>
<path d="M4.56885 17.6229L7.46065 15.0382C9.88413 12.8721 11.0959 11.7891 11.0959 10.4432C11.0959 9.09737 9.88413 8.01431 7.46065 5.84819L4.56885 3.26349C8.99826 7.22579 9.00164 13.6556 4.56885 17.6229Z" fill="white"/>
</svg>
