<svg width="45" height="45" viewBox="0 0 45 45" fill="none" xmlns="http://www.w3.org/2000/svg">
<path d="M16.2792 10.9182C16.9029 10.9182 17.4094 10.3137 17.4094 9.56925C17.4094 8.82477 16.9029 8.22029 16.2792 8.22029C15.6554 8.22029 15.149 8.82477 15.149 9.56925C15.149 10.3137 15.6554 10.9182 16.2792 10.9182ZM16.2792 15.674C16.9029 15.674 17.4094 15.0696 17.4094 14.3251C17.4094 13.5806 16.9029 12.9761 16.2792 12.9761C15.6554 12.9761 15.149 13.5806 15.149 14.3251C15.149 15.0696 15.6554 15.674 16.2792 15.674ZM33.908 20.0987C33.2657 20.0987 32.7443 20.721 32.7443 21.4877C32.7443 22.2544 33.2657 22.8767 33.908 22.8767C37.0863 22.8767 39.6726 25.9635 39.6726 29.7593C39.6726 33.7684 37.4699 34.9729 36.2299 35.3307C35.1704 32.995 33.2377 33.3417 32.0237 33.5595C30.6515 33.8062 29.5585 34.7351 28.5494 35.7974C28.7579 35.0151 28.8715 34.1817 28.8715 33.3172V4.38897C28.8715 3.62226 28.3501 3 27.7078 3C27.0654 3 26.5441 3.62226 26.5441 4.38897V33.3172C26.5441 36.3107 24.5034 38.7442 21.9953 38.7442C19.4873 38.7442 17.4504 36.3085 17.4504 33.3172V19.0587C17.4504 18.292 16.929 17.6697 16.2866 17.6697C15.6443 17.6697 15.1229 18.292 15.1229 19.0587V33.3172C15.1229 34.1817 15.2365 35.0129 15.445 35.7974C14.4359 34.7351 13.3448 33.8062 11.9707 33.5595C10.7567 33.3417 8.82586 32.9928 7.76456 35.3307C6.52265 34.9707 4.32184 33.7662 4.32184 29.7593C4.32184 25.9657 6.90807 22.8767 10.0864 22.8767C10.7288 22.8767 11.2501 22.2544 11.2501 21.4877C11.2501 20.721 10.7288 20.0987 10.0864 20.0987C5.63078 20.0987 2 24.4301 2 29.757C2 36.1796 6.2117 38.1242 8.43858 38.2531C8.96551 38.2842 9.45706 37.8753 9.60974 37.2641C9.89089 36.1418 9.98957 36.0085 11.6262 36.3041C12.6968 36.4974 13.6483 37.5664 14.7505 38.8042C16.4151 40.6732 18.4856 43 21.8669 43H22.1331C25.5144 43 27.5849 40.6732 29.2495 38.8042C30.3517 37.5664 31.3032 36.4952 32.3738 36.3041C34.0104 36.0085 34.1091 36.1418 34.3903 37.2641C34.5448 37.8753 35.0345 38.2842 35.5614 38.2531C37.7883 38.1242 42 36.1796 42 29.757C42 24.4301 38.3692 20.0965 33.908 20.0965V20.0987Z" fill="#C4CADB"/>
</svg>
