<svg width="45" height="45" viewBox="0 0 45 45" fill="none" xmlns="http://www.w3.org/2000/svg">
<path d="M3 25.2032C3.28085 24.488 3.42284 23.7331 3.61913 22.9939C3.88849 21.9854 4.14847 20.9726 4.42932 19.9683C4.75506 18.801 5.05262 17.6254 5.37106 16.456C5.89831 14.5204 6.40155 12.5795 6.90374 10.6375C7.16475 9.6279 7.58446 8.69033 8.20881 7.86239C9.21946 6.51973 10.5955 5.70432 12.2065 5.29923C12.7212 5.16976 13.2694 5.14679 13.8029 5.13322C14.7655 5.10816 15.7323 5.07997 16.6918 5.13844C17.7776 5.20526 19.018 4.06933 19.0294 3.02213C19.0388 2.21508 19.3374 2 20.1654 2C22.053 2 23.9407 2 25.8273 2.00209C25.9536 2.00209 26.0768 1.99687 26.2084 2.03759C26.7095 2.19315 26.9048 2.40092 26.9006 2.93235C26.8933 4.06306 28.0616 5.18229 29.185 5.13218C30.0944 5.09146 31.009 5.0925 31.9173 5.13322C33.0929 5.18647 34.2539 5.32846 35.323 5.89956C36.3848 6.46544 37.3026 7.17331 37.9457 8.21424C38.0971 8.4596 38.2767 8.69033 38.4009 8.95448C38.3842 9.00981 38.4197 9.02756 38.4625 9.04009C39.0336 10.3159 39.2644 11.691 39.6413 13.0242C39.7029 13.2403 39.7801 13.4523 39.8417 13.6684C39.967 14.11 39.6882 14.606 39.2476 14.7333C38.949 14.82 38.4427 14.56 38.3759 14.2019C38.2996 13.7937 38.1023 13.4272 38.0407 13.02C37.9593 12.474 37.7317 11.9676 37.6106 11.432C37.4101 10.5446 37.1449 9.67279 36.579 8.94717C35.7239 7.84986 34.6486 7.08039 33.2391 6.84235C31.8129 6.60117 30.3763 6.71915 28.9449 6.68469C28.1148 6.66486 27.4028 6.36834 26.7816 5.82752C26.1113 5.24389 25.5788 4.57465 25.4243 3.66945C25.394 3.49405 25.2656 3.56922 25.181 3.56713C24.7519 3.55878 24.3207 3.58488 23.8927 3.55565C23.6097 3.53581 23.5179 3.65797 23.4667 3.90228C23.3926 4.25726 23.3717 4.64043 23.0397 4.88682C22.7703 5.08624 22.4696 5.14366 22.1888 4.96722C21.8985 4.78555 21.721 4.54124 21.8077 4.13092C21.9424 3.48778 22.0771 3.56713 21.3671 3.564C20.6081 3.56087 20.6269 3.57027 20.3303 4.28545C19.7874 5.59574 18.3727 6.70766 16.8745 6.68783C16.0027 6.67634 15.1299 6.68156 14.2581 6.68991C12.905 6.70244 11.6062 6.92692 10.5037 7.78513C9.74776 8.37398 9.11923 9.0829 8.782 9.99645C8.1493 11.715 7.79014 13.5128 7.30048 15.2731C6.83692 16.9394 6.41303 18.6183 5.96617 20.2898C5.56212 21.8027 5.15598 23.3155 4.74253 24.8263C4.69242 25.009 4.74149 25.0852 4.91585 25.128C5.81896 25.3493 6.72103 25.5717 7.61996 25.8046C7.80267 25.8515 7.88724 25.8035 7.91752 25.626C8.02192 25.0173 8.29964 24.4671 8.49906 23.8908C8.73502 23.2101 8.99916 22.5377 9.25496 21.8643C9.52641 21.1512 9.84485 20.4537 10.0651 19.725C10.2646 19.0662 10.5037 18.4251 10.7354 17.7799C11.0038 17.0313 11.2533 16.2744 11.5477 15.5362C11.6907 15.1792 11.7169 14.843 11.5874 14.4943C11.4642 14.1612 11.5916 13.8104 11.484 13.4742C11.1833 12.5314 11.2982 11.5563 11.2794 10.5916C11.271 10.1781 11.4757 9.92859 11.8244 9.89204C12.3892 9.83253 12.645 9.99854 12.7672 10.435C12.8455 10.7148 12.8361 10.9914 12.8382 11.2723C12.8528 13.0963 13.214 14.8586 13.6859 16.6158C14.1182 18.2278 14.7718 19.7657 15.1998 21.3757C15.1998 21.4602 15.1455 21.5584 15.2583 21.6158C15.5475 22.3425 15.6697 23.1088 15.8075 23.872C15.9818 24.8346 15.9442 25.8129 16.0163 26.7839C16.0309 26.9802 15.8357 27.1284 15.8774 27.3518C15.9077 27.5116 15.9359 27.5878 16.1165 27.6337C17.5584 28.0002 18.474 28.9378 18.9052 30.3379C18.9783 30.5749 19.0524 30.602 19.2487 30.5989C19.8229 30.5895 20.3846 30.625 20.9192 30.8923C21.6782 31.2702 22.1366 31.9081 22.1616 32.7006C22.1762 33.161 22.2827 33.6235 22.2264 34.0975C22.1658 34.6112 22.3015 35.1583 22.1877 35.6521C22.076 36.1387 22.2243 36.6461 21.9225 37.1263C21.4381 37.8968 20.8158 38.3928 19.9012 38.4022C17.7922 38.4241 15.6832 38.4063 13.5742 38.4137C13.3654 38.4137 13.1441 38.2236 12.9802 38.35C12.811 38.4805 12.9739 38.7478 12.9092 38.9388C12.762 39.3721 12.8799 39.8148 12.8371 40.2491C12.8131 40.4955 12.9854 40.4391 13.1169 40.4391C13.8457 40.4412 14.5755 40.4391 15.3042 40.4391C17.5437 40.4391 19.7822 40.435 22.0217 40.4444C22.2963 40.4454 22.4665 40.4099 22.4717 40.0831C22.4738 39.9265 22.5688 39.772 22.6095 39.6143C22.7359 39.1121 22.9113 39.0015 23.5492 39.0338C23.8311 39.0484 24.1318 39.3366 24.1568 39.6676C24.1693 39.8367 24.1276 40.0257 24.0587 40.1823C23.948 40.436 24.0827 40.4412 24.2644 40.4412C25.0328 40.4391 25.8002 40.4412 26.5686 40.4412C28.6254 40.4412 30.6822 40.436 32.739 40.4475C33.0094 40.4496 33.0846 40.388 33.0804 40.1103C33.0553 38.4471 32.8173 36.81 32.3569 35.2188C32.0395 34.1247 31.5999 33.066 31.1802 32.0021C30.6738 30.72 30.2437 29.4076 30.0933 28.0159C30.0046 27.1984 29.9158 26.383 29.9566 25.5655C30.0161 24.3606 30.1946 23.1725 30.5224 22.0042C30.9119 20.6145 31.4172 19.2635 31.8484 17.8885C32.289 16.4832 32.7097 15.0727 32.9081 13.611C33.0063 12.8885 33.1409 12.1608 33.07 11.4247C33.0365 11.0718 33.1389 10.7356 33.165 10.3911C33.1879 10.0842 33.4343 9.90875 33.7423 9.88265C34.0587 9.8555 34.3876 9.87012 34.5504 10.2011C34.6621 10.4297 34.7843 10.6636 34.6621 10.9559C34.5922 11.123 34.6172 11.3433 34.6402 11.5343C34.706 12.0814 34.6695 12.6484 34.5901 13.1662C34.5108 13.6862 34.4356 14.2301 34.2811 14.748C34.2257 14.9317 34.2289 15.1123 34.3009 15.3055C34.825 16.7056 35.3366 18.1098 35.8503 19.5131C35.8764 19.584 35.8826 19.6624 35.8983 19.7375C35.8806 19.892 35.844 20.0518 36.0393 20.129C36.3995 20.9695 36.7075 21.8309 37.0196 22.688C37.3736 23.6559 37.7129 24.63 38.0637 25.5999C38.1274 25.7753 38.1357 25.839 38.3654 25.7732C39.208 25.5331 40.061 25.3222 40.9181 25.1405C41.1917 25.0821 41.2282 24.9891 41.1645 24.7532C40.8252 23.5076 40.4943 22.26 40.1591 21.0134C40.0516 20.6145 40.1696 20.223 40.4483 20.0674C40.7803 19.8816 41.1792 19.961 41.508 20.2804C41.4892 20.2992 41.4705 20.3191 41.4517 20.3379C41.4715 20.341 41.4913 20.3441 41.5112 20.3473C41.816 20.8588 41.8829 21.4498 42.0468 22.0052C42.3527 23.0378 42.6325 24.0798 42.8653 25.1311C43.0094 25.7816 43.0459 26.1909 42.1564 26.408C40.7438 26.7526 39.3374 27.1232 37.9259 27.4709C37.3903 27.6035 37.0906 27.4291 36.8933 26.8998C36.1906 25.0142 35.488 23.1286 34.7926 21.241C34.4199 20.2293 34.0639 19.2113 33.6974 18.1975C33.6651 18.1077 33.616 18.0232 33.5805 17.949C33.4552 17.9376 33.4604 18.0253 33.4448 18.0754C33.07 19.2667 32.6033 20.4276 32.2744 21.6356C32.0812 22.3456 31.8411 23.0409 31.7116 23.7707C31.6646 24.0328 31.6396 24.3032 31.6062 24.5611C31.4496 25.7993 31.5133 27.0324 31.7231 28.2717C31.9048 29.3491 32.2692 30.3587 32.6179 31.3798C32.6012 31.4352 32.6346 31.4529 32.6795 31.4613C33.0867 32.5356 33.4782 33.6162 33.8718 34.6937C34.0232 35.1092 34.067 35.6135 34.1714 36.0729C34.375 36.9655 34.4418 37.8749 34.5692 38.778C34.6548 39.3867 34.5985 39.9891 34.636 40.5926C34.6486 40.7941 34.7154 40.9956 34.7039 41.195C34.6841 41.5594 34.4544 41.8069 34.1652 42.0042H11.7503C11.4068 41.7787 11.2596 41.4832 11.2721 41.052C11.3034 39.9975 11.2439 38.9399 11.436 37.8948C11.46 37.7643 11.3838 37.7329 11.2909 37.6724C10.9745 37.4636 10.6717 37.2349 10.3658 37.0125C10.1967 36.8893 10.0192 36.8424 9.80205 36.8434C7.85279 36.8538 5.90248 36.8371 3.95323 36.8591C3.52203 36.8643 3.22552 36.7244 3.00104 36.3809V29.5057C3.24222 29.1153 3.6327 29.0411 4.04197 29.0401C5.95364 29.0338 7.86636 29.0317 9.77803 29.0443C10.0547 29.0464 10.2708 28.9618 10.4702 28.7937C11.4005 28.0117 12.4905 27.6504 13.6859 27.5492C14.0086 27.522 14.3051 27.5701 14.3615 27.0115C14.4753 25.8954 14.3479 24.8127 14.209 23.7196C14.1192 23.0138 13.9125 22.3341 13.6933 21.669C13.3049 20.4934 12.9029 19.3209 12.5312 18.1391C12.5103 18.0722 12.4936 18.0117 12.4185 18.0065C12.3402 18.0002 12.3255 18.0722 12.2869 18.1234C12.1449 18.3145 12.1407 18.5504 12.0583 18.7613C11.8119 19.3909 11.5216 20.0121 11.3671 20.6646C11.2919 20.9831 11.0601 21.1741 10.9818 21.4602C10.9818 21.5124 10.9818 21.5646 10.9818 21.6168C10.8576 21.9854 10.7427 22.3571 10.6081 22.7214C10.1132 24.0578 9.564 25.3765 9.13176 26.7327C8.91251 27.4208 8.52516 27.5941 7.79119 27.4103C6.70223 27.1378 5.60284 26.9029 4.52015 26.6064C3.98455 26.4602 3.3435 26.4978 3 25.9131V25.2105L3 25.2032ZM12.3109 18.0107C12.3527 18.0461 12.4018 18.0608 12.4341 18.0096C12.4487 17.9856 12.4299 17.9407 12.4258 17.9052C12.407 17.9146 12.3882 17.924 12.3704 17.9334C12.3255 17.9397 12.2869 17.9511 12.3109 18.0107ZM11.6709 29.8294C11.6124 29.8085 11.5968 29.8513 11.5801 29.892C11.5216 29.9411 11.4611 29.9881 11.4057 30.0403C11.0184 30.4151 10.6028 30.626 10.0161 30.6104C8.32575 30.5634 6.63333 30.601 4.94091 30.5874C4.65066 30.5853 4.54834 30.6385 4.55356 30.9591C4.57444 32.26 4.5734 33.5619 4.5546 34.8628C4.55043 35.1854 4.60263 35.2971 4.96492 35.2919C6.69493 35.2679 8.42598 35.2794 10.157 35.2825C10.5475 35.2825 10.8774 35.4015 11.1886 35.6782C12.0269 36.4226 13.0052 36.8497 14.1506 36.8455C15.9985 36.8382 17.8465 36.8256 19.6945 36.8549C20.1904 36.8632 20.6321 36.5782 20.6488 35.9518C20.6749 34.9891 20.6926 34.0244 20.6425 33.0639C20.6081 32.3999 20.4086 32.2537 19.7478 32.1577C19.6204 32.1389 19.4878 32.1545 19.3573 32.1545C17.952 32.1545 16.5467 32.1556 15.1414 32.1535C14.777 32.1535 14.4544 31.8852 14.4063 31.5594C14.3427 31.1272 14.5055 30.767 14.8449 30.6887C15.0641 30.6385 15.2834 30.5749 15.5204 30.5853C16.0403 30.6062 16.5613 30.5874 17.0812 30.5937C17.3141 30.5968 17.3475 30.5341 17.2337 30.3243C16.9351 29.7751 16.507 29.3825 15.914 29.1883C15.2552 28.9722 14.5859 29.0652 13.9073 29.085C13.0637 29.109 12.3704 29.4462 11.6709 29.8284V29.8294Z" fill="#C4CADB"/>
<path d="M26.4036 13.4054C26.722 13.7312 27.0175 13.9797 26.8337 14.437C26.6176 14.9757 25.9776 15.1553 25.5652 14.7554C25.0432 14.248 24.5295 13.7301 24.02 13.2102C23.6734 12.8563 23.6807 12.3812 24.0346 12.021C24.4992 11.5481 24.9701 11.0803 25.441 10.6126C25.7719 10.2847 26.3723 10.244 26.65 10.5364C26.9016 10.8005 26.9851 11.3298 26.5466 11.6942C26.5174 11.7193 26.4934 11.7506 26.4078 11.8425C26.6437 11.8425 26.8264 11.8341 27.0081 11.8435C27.7932 11.8863 28.5836 11.7537 29.3666 11.9177C29.7634 12.0012 30.0004 12.2444 29.967 12.5765C29.9127 13.1288 29.6715 13.4002 29.2163 13.4023C28.3059 13.4065 27.3965 13.4033 26.4036 13.4033V13.4054Z" fill="#C4CADB"/>
<path d="M22.6868 7.51065C22.6106 8.01076 22.5448 8.59439 22.4237 9.16653C22.3496 9.51734 21.8224 9.7961 21.5206 9.70213C21.0498 9.55597 20.795 9.11224 20.8911 8.62884C20.9767 8.19765 21.056 7.76436 21.1228 7.32899C21.2011 6.82053 21.4977 6.57518 22.0197 6.60963C22.4331 6.63678 22.6879 6.94999 22.6868 7.51065Z" fill="#C4CADB"/>
<path d="M24.9535 27.0918C24.9503 27.7308 24.6235 28.1463 24.2487 28.1714C23.8551 28.1975 23.449 27.8425 23.3989 27.3706C23.3508 26.9185 23.26 26.479 23.1629 26.0363C23.0522 25.5278 23.3279 25.129 23.806 25.0476C24.2686 24.9682 24.6361 25.2919 24.7227 25.8202C24.8021 26.3046 24.943 26.7797 24.9545 27.0918H24.9535Z" fill="#C4CADB"/>
<path d="M22.7662 18.0555C22.7631 18.6798 22.5271 18.9784 22.0865 19.0306C21.7242 19.0745 21.3233 18.8041 21.2262 18.3676C21.1061 17.8268 21.0289 17.2735 20.9756 16.7212C20.9339 16.2879 21.2085 15.9705 21.6062 15.9068C21.9184 15.8567 22.4425 16.1626 22.5073 16.4789C22.62 17.0375 22.6941 17.6034 22.7672 18.0544L22.7662 18.0555Z" fill="#C4CADB"/>
<path d="M22.2357 12.1565C22.2295 12.5981 22.2232 13.0398 22.219 13.4814C22.2128 14.0316 21.9267 14.3428 21.4255 14.3438C20.9171 14.3438 20.6571 14.0483 20.6571 13.471C20.6571 13.0158 20.6571 12.5606 20.6571 12.1053C20.6571 11.741 20.8993 11.3515 21.1593 11.2972C21.6448 11.1981 21.9768 11.3912 22.148 11.8694C22.1731 11.9404 22.2075 12.0083 22.2368 12.0772C22.2368 12.1033 22.2368 12.1294 22.2368 12.1555L22.2357 12.1565Z" fill="#C4CADB"/>
<path d="M25.0307 35.2971C24.9545 35.7732 24.8897 36.3422 24.7665 36.8986C24.6799 37.2902 24.1516 37.5648 23.8102 37.4541C23.4406 37.3351 23.1347 36.812 23.2412 36.434C23.3612 36.0049 23.3842 35.5612 23.474 35.13C23.5721 34.6591 23.7152 34.3438 24.4418 34.42C24.7906 34.4566 25.0328 34.7688 25.0317 35.2981L25.0307 35.2971Z" fill="#C4CADB"/>
<path d="M23 20.578C23.4928 20.7273 23.5324 21.1804 23.6368 21.5688C23.7412 21.9551 23.9344 22.308 23.9532 22.7319C23.972 23.1568 23.6368 23.5055 23.3581 23.5598C22.9603 23.6361 22.6043 23.4325 22.4612 23.0148C22.2869 22.5053 22.124 21.9906 21.9935 21.4686C21.8442 20.8735 22.3537 20.3995 22.9217 20.579C22.9478 20.579 22.9739 20.579 23 20.578Z" fill="#C4CADB"/>
<path d="M23.7778 31.6322C23.854 31.3242 23.688 30.9786 23.6985 30.6163C23.7173 29.9533 24.1453 29.5806 24.7791 29.7445C25.0505 29.8145 25.3053 29.9721 25.2656 30.3355C25.203 30.9066 25.3888 31.4704 25.2792 32.0519C25.1946 32.5009 24.9545 32.7827 24.4763 32.7807C24.0743 32.7796 23.7914 32.48 23.7789 32.0394C23.7757 31.9224 23.7789 31.8055 23.7789 31.6322H23.7778Z" fill="#C4CADB"/>
<path d="M39.2519 17.2952C39.2539 16.8525 39.5755 16.5132 39.9733 16.532C40.4212 16.5529 40.8075 16.9141 40.8065 17.3119C40.8065 17.717 40.4024 18.096 39.9764 18.0918C39.5338 18.0876 39.2487 17.7744 39.2519 17.2952Z" fill="#C4CADB"/>
<path d="M36.0445 20.1259C35.8493 20.0486 35.8848 19.8889 35.9036 19.7344C36.0717 19.821 36.079 19.9662 36.0445 20.1259Z" fill="#C4CADB"/>
<path d="M15.2635 21.6146C15.1508 21.5572 15.2051 21.4591 15.2051 21.3745C15.4087 21.409 15.2938 21.5228 15.2635 21.6146Z" fill="#C4CADB"/>
<path d="M22.2357 12.1564V12.0781C22.267 12.0917 22.2973 12.1042 22.3276 12.1178C22.2973 12.1303 22.266 12.1439 22.2357 12.1564Z" fill="#C4CADB"/>
<path d="M23.0001 20.5783C22.974 20.5783 22.9479 20.5783 22.9218 20.5793C22.9343 20.548 22.9468 20.5167 22.9604 20.4854C22.974 20.5156 22.9875 20.5469 23.0001 20.5772V20.5783Z" fill="#C4CADB"/>
<path d="M38.4657 9.03923C38.4218 9.02774 38.3863 9.00999 38.4041 8.95361C38.425 8.9818 38.4448 9.01104 38.4657 9.03923Z" fill="#C4CADB"/>
<path d="M41.5153 20.3422C41.4955 20.3391 41.4756 20.3359 41.4558 20.3328C41.4746 20.314 41.4934 20.2942 41.5122 20.2754C41.5143 20.2973 41.5143 20.3203 41.5143 20.3422H41.5153Z" fill="#C4CADB"/>
<path d="M32.6857 31.4569C32.6408 31.4475 32.6064 31.4308 32.6241 31.3755C32.645 31.4026 32.6659 31.4298 32.6857 31.4569Z" fill="#C4CADB"/>
<path d="M10.9819 21.4531C11.032 21.4615 11.0925 21.4677 11.0915 21.5314C11.0915 21.5962 11.0309 21.6014 10.9808 21.6097C10.9808 21.5575 10.9808 21.5053 10.9808 21.4531H10.9819Z" fill="#C4CADB"/>
<path d="M11.6709 29.8293C11.6406 29.8502 11.6104 29.8711 11.5801 29.892C11.5968 29.8512 11.6124 29.8095 11.6709 29.8293Z" fill="#C4CADB"/>
</svg>
