<svg width="45" height="45" viewBox="0 0 45 45" fill="none" xmlns="http://www.w3.org/2000/svg">
<path d="M37.9704 7.64055C36.8858 2.38772 28.0053 1.8589 22.67 2.02563C17.3413 1.85721 8.45414 2.38772 7.36956 7.64055C3.19457 8.71503 0.875513 10.9398 1.00519 13.7759C1.14834 16.9269 3.139 17.8801 4.31284 18.1681C4.39705 18.1883 4.48126 18.1984 4.56378 18.1984C4.57557 18.1984 4.58736 18.1951 4.59915 18.1951C5.03871 19.7647 6.96031 20.9149 9.3299 20.9149C12.0346 20.9149 14.155 19.4177 14.155 17.5046C14.155 15.5914 12.0363 14.0942 9.3299 14.0942C7.30893 14.0942 5.61637 14.9295 4.88882 16.1488C4.86356 16.1404 4.84166 16.1286 4.81472 16.1219C4.12253 15.9518 3.19121 15.5139 3.107 13.6782C3.00595 11.472 5.68205 10.32 7.41503 9.80635C7.55481 10.3486 7.81417 10.9482 8.28741 11.509C9.36526 12.7873 11.1555 13.434 13.6059 13.434C13.6245 13.434 13.6447 13.434 13.6649 13.434C13.6767 13.434 14.6754 13.4104 15.3827 14.0807C15.925 14.5944 16.1995 15.4196 16.1995 16.5379C16.1995 19.7916 17.1342 26.4574 20.6692 28.4009C21.1778 28.6805 21.8195 28.4952 22.099 27.985C22.3786 27.4763 22.1934 26.8347 21.6831 26.5551C19.5678 25.3931 18.3047 20.5495 18.3047 16.5379C18.3047 14.8184 17.8079 13.4778 16.8294 12.5515C15.5326 11.3254 13.899 11.3238 13.584 11.3322C11.8342 11.3288 10.5661 10.928 9.91429 10.1735C9.24232 9.39542 9.37368 8.43715 9.37874 8.40851C9.3821 8.38831 9.38547 8.3681 9.38716 8.34789C9.76609 4.9375 16.4791 3.93039 22.6397 4.1308C22.6615 4.1308 22.6851 4.1308 22.707 4.1308C28.8659 3.92702 35.5789 4.93582 35.9578 8.34789C35.9578 8.35967 35.9629 8.38494 35.9646 8.39673C35.9696 8.43715 36.101 9.39542 35.4307 10.1718C34.7789 10.9263 33.5091 11.3271 31.7593 11.3305C31.4443 11.3204 29.8107 11.3238 28.5139 12.5498C27.5354 13.4761 27.0386 14.8183 27.0386 16.5362C27.0386 20.6404 25.7418 25.5261 23.5693 26.6006C23.0472 26.8583 22.835 27.4898 23.0927 28.0102C23.2763 28.3807 23.6485 28.5963 24.0375 28.5963C24.1941 28.5963 24.3541 28.5609 24.504 28.4868C28.1737 26.6696 29.1438 19.8741 29.1438 16.5362C29.1438 15.428 29.4133 14.6061 29.9471 14.0925C30.6595 13.4054 31.6717 13.4323 31.6784 13.434C31.697 13.434 31.7172 13.434 31.7374 13.434C34.1895 13.434 35.9797 12.7856 37.0576 11.509C37.5308 10.9482 37.7885 10.3486 37.93 9.80635C39.6528 10.3166 42.3374 11.4703 42.238 13.6782C42.1723 15.103 41.598 15.8844 40.4461 16.1337C39.7135 14.9228 38.0276 14.0925 36.0151 14.0925C33.3104 14.0925 31.19 15.5914 31.19 17.5029C31.19 19.4144 33.3104 20.9133 36.0151 20.9133C38.3678 20.9133 40.276 19.7798 40.7341 18.227C42.9167 17.8229 44.2303 16.2078 44.3415 13.7725C44.4712 10.9381 42.1504 8.71334 37.9754 7.63718L37.9704 7.64055ZM9.33158 16.1993C10.9921 16.1993 12.0515 16.9724 12.0515 17.5046C12.0515 18.0367 10.9921 18.8098 9.33158 18.8098C7.67102 18.8098 6.61169 18.0367 6.61169 17.5046C6.61169 16.9724 7.67102 16.1993 9.33158 16.1993ZM36.01 18.8098C34.3495 18.8098 33.2902 18.0367 33.2902 17.5046C33.2902 16.9724 34.3495 16.1993 36.01 16.1993C37.6706 16.1993 38.7299 16.9724 38.7299 17.5046C38.7299 18.0367 37.6706 18.8098 36.01 18.8098ZM26.3902 10.3082C25.277 11.3625 23.9499 13.2976 23.9499 16.5379C23.9499 18.6043 23.5929 20.7314 22.9681 22.3717C22.7609 22.9157 23.0354 23.5237 23.5777 23.7291C23.7007 23.7763 23.827 23.7982 23.9516 23.7982C24.376 23.7982 24.7751 23.5388 24.9351 23.1195C25.6458 21.2484 26.0551 18.8502 26.0551 16.5379C26.0551 14.047 27.0252 12.6071 27.8369 11.8374C29.2583 10.4935 30.9812 10.347 31.6549 10.347H31.7862C33.6405 10.3402 34.3731 9.86024 34.6509 9.56889C34.848 9.36005 34.9608 9.08891 34.9878 8.76387C34.9928 8.70156 34.9928 8.64093 34.9878 8.57861C34.9878 8.53819 34.9878 8.49609 34.981 8.45399C34.7537 6.40776 30.5517 5.08402 24.2766 5.08402C23.7815 5.08402 23.2695 5.09244 22.7356 5.10928H22.6717H22.606C22.0738 5.09244 21.5601 5.08402 21.065 5.08402C14.7899 5.08402 10.5879 6.40607 10.3606 8.4523L10.3539 8.51462C10.3488 8.56009 10.3471 8.60556 10.3471 8.65103C10.3539 9.01986 10.4734 9.33816 10.6957 9.57394C10.9686 9.85856 11.7012 10.3385 13.5925 10.347H13.6834C14.3587 10.347 16.0816 10.4901 17.503 11.8357C18.3165 12.6054 19.2865 14.0453 19.2865 16.5362C19.2865 18.7373 19.6941 21.1642 20.3779 23.0285C20.5783 23.5742 21.1829 23.8538 21.7285 23.655C22.2742 23.4546 22.5538 22.85 22.355 22.3044C21.7521 20.6589 21.3917 18.5032 21.3917 16.5362C21.3917 13.2959 20.0646 11.3608 18.9497 10.3065C16.9793 8.4422 14.6114 8.2401 13.6851 8.2401C13.6261 8.2401 13.5722 8.2401 13.5638 8.24179C13.5133 8.24179 13.4661 8.24179 13.419 8.2401C14.6198 7.75844 16.9793 7.1892 21.0633 7.1892C21.5349 7.1892 22.0266 7.19762 22.5352 7.21278L22.6346 7.21614C22.6582 7.21614 22.6818 7.21614 22.7036 7.21614L22.8013 7.21278C23.3099 7.19593 23.8 7.1892 24.2733 7.1892C28.3607 7.1892 30.7202 7.75844 31.9209 8.24179C31.8856 8.24179 31.8502 8.24179 31.8132 8.24179C31.0233 8.22158 28.4836 8.32262 26.3885 10.3049L26.3902 10.3082ZM25.3174 29.0611C24.9301 29.0611 24.5949 29.2733 24.4131 29.5849H20.9286C20.7467 29.2733 20.4115 29.0611 20.0242 29.0611C19.4432 29.0611 18.9716 29.5327 18.9716 30.1137V40.9478C18.9716 41.5288 19.4432 42.0004 20.0242 42.0004C20.6052 42.0004 21.0768 41.5288 21.0768 40.9478V38.5799H24.2665V40.9478C24.2665 41.5288 24.7381 42.0004 25.3191 42.0004C25.9001 42.0004 26.3717 41.5288 26.3717 40.9478V30.1137C26.3717 29.5327 25.9001 29.0611 25.3191 29.0611H25.3174ZM24.2648 36.4747H21.0751V35.1779H24.2648V36.4747ZM24.2648 33.0727H21.0751V31.6901H24.2648V33.0727Z" fill="#C4CADB"/>
</svg>
