<svg width="58" height="57" viewBox="0 0 58 57" fill="none" xmlns="http://www.w3.org/2000/svg">
<path d="M5.53528 55.814H40.5919" stroke="var(--color-primary)" stroke-width="2" stroke-linecap="round" stroke-linejoin="round"/>
<path d="M9.71967 10.4282L14.7607 23.2944" stroke="var(--color-primary)" stroke-width="2" stroke-linecap="round" stroke-linejoin="round"/>
<path d="M45.633 8.43457L37.0994 34.6447" stroke="var(--color-primary)" stroke-width="2" stroke-linecap="round" stroke-linejoin="round"/>
<path d="M40.9543 8.54991H52.8815L56.0445 1.18604" stroke="var(--color-primary)" stroke-width="2" stroke-linecap="round" stroke-linejoin="round"/>
<path d="M16.8529 10.5435H1.18616" stroke="var(--color-primary)" stroke-width="2" stroke-linecap="round" stroke-linejoin="round"/>
<path d="M17.1494 33.228C19.7029 33.228 21.7621 35.3037 21.7621 37.8407C21.7621 40.3777 19.6864 42.4535 17.1494 42.4535C14.6124 42.4535 12.5367 40.3777 12.5367 37.8407C12.5367 35.3037 14.6124 33.228 17.1494 33.228Z" stroke="var(--color-secondary)" stroke-width="2" stroke-linecap="round" stroke-linejoin="round"/>
<path d="M19.6205 41.7617L25.1723 47.8571" stroke="var(--color-secondary)" stroke-width="2" stroke-linecap="round" stroke-linejoin="round"/>
<path d="M20.1312 48.2031H30.4275" stroke="var(--color-secondary)" stroke-width="2" stroke-linecap="round" stroke-linejoin="round"/>
<path d="M17.3307 23.5249C21.4656 23.5249 25.2382 25.024 28.0058 27.4622C29.8509 29.0931 40.5919 38.2197 41.3168 38.8951C42.8324 40.279 43.7549 42.2064 43.7549 44.3151C43.7549 46.4237 42.8159 48.3512 41.3168 49.735C39.8012 51.1188 37.7255 51.9755 35.4191 51.9755C28.813 51.9755 24.9911 51.9096 17.3307 51.9096C13.0639 51.9096 9.20898 50.3281 6.4084 47.7581C3.60782 45.1882 1.87805 41.6463 1.87805 37.7255C1.87805 33.8047 3.60782 30.2628 6.4084 27.6928C9.20898 25.1229 13.0639 23.5414 17.3307 23.5414V23.5249Z" stroke="var(--color-primary)" stroke-width="2" stroke-linecap="round" stroke-linejoin="round"/>
</svg>
