<svg width="24" height="25" viewBox="0 0 24 25" fill="none" xmlns="http://www.w3.org/2000/svg" stroke="currentColor">
<path fill-rule="evenodd" clip-rule="evenodd" d="M10.856 13.6441C9.68602 12.4741 8.80402 11.1641 8.21802 9.83512C8.09402 9.55412 8.16702 9.22512 8.38402 9.00812L9.20302 8.19012C9.87402 7.51912 9.87402 6.57012 9.28802 5.98412L8.11402 4.81012C7.33302 4.02912 6.06702 4.02912 5.28602 4.81012L4.63402 5.46212C3.89302 6.20312 3.58402 7.27212 3.78402 8.33212C4.27802 10.9451 5.79602 13.8061 8.24502 16.2551C10.694 18.7041 13.555 20.2221 16.168 20.7161C17.228 20.9161 18.297 20.6071 19.038 19.8661L19.689 19.2151C20.47 18.4341 20.47 17.1681 19.689 16.3871L18.516 15.2141C17.93 14.6281 16.98 14.6281 16.395 15.2141L15.492 16.1181C15.275 16.3351 14.946 16.4081 14.665 16.2841C13.336 15.6971 12.026 14.8141 10.856 13.6441Z" stroke="currentStroke" stroke-width="2" stroke-linecap="round" stroke-linejoin="round"/>
</svg>
