<svg width="43" height="59" viewBox="0 0 43 59" fill="none" xmlns="http://www.w3.org/2000/svg">
<path d="M13.8184 40.3737C10.7997 41.6249 7.40921 41.6249 4.39056 40.3737V16.2988H13.8184V40.3737Z" stroke="var(--color-primary)" stroke-width="2" stroke-miterlimit="10" stroke-linecap="round"/>
<path d="M9.10225 38.6849C9.81098 38.6849 10.5066 38.6105 11.1934 38.4574V31.2563H7.01544V38.4574C7.69792 38.6061 8.3979 38.6849 9.10662 38.6849H9.10225Z" fill="var(--color-secondary)"/>
<path d="M6.59985 41.0518V47.4828C8.20105 48.1478 9.99912 48.1478 11.6047 47.4828V41.0518C9.95537 41.393 8.25355 41.393 6.59985 41.0518Z" stroke="var(--color-primary)" stroke-width="2" stroke-miterlimit="10" stroke-linecap="round"/>
<path d="M9.10223 47.9771V57.1774" stroke="var(--color-primary)" stroke-width="2" stroke-miterlimit="10" stroke-linecap="round"/>
<path d="M14.9777 16.3033H3.22682C2.3606 16.3033 1.65625 15.5989 1.65625 14.7327C1.65625 13.8665 2.3606 13.1621 3.22682 13.1621H14.9733C15.8395 13.1621 16.5439 13.8665 16.5439 14.7327C16.5439 15.5989 15.8395 16.3033 14.9733 16.3033H14.9777Z" stroke="var(--color-primary)" stroke-width="2" stroke-miterlimit="10" stroke-linecap="round"/>
<path d="M11.8366 4.7974H6.368C5.50178 4.7974 4.79742 4.09305 4.79742 3.22682C4.79742 2.3606 5.50178 1.65625 6.368 1.65625H11.8366C12.7028 1.65625 13.4071 2.3606 13.4071 3.22682C13.4071 4.09305 12.7028 4.7974 11.8366 4.7974Z" stroke="var(--color-primary)" stroke-width="2" stroke-miterlimit="10" stroke-linecap="round"/>
<path d="M11.4515 4.79736H6.75732V13.1577H11.4515V4.79736Z" stroke="var(--color-primary)" stroke-width="2" stroke-miterlimit="10" stroke-linecap="round"/>
<path d="M4.38617 19.9561H7.30857" stroke="var(--color-primary)" stroke-width="2" stroke-miterlimit="10" stroke-linecap="round"/>
<path d="M4.38617 23.6616H7.30857" stroke="var(--color-primary)" stroke-width="2" stroke-miterlimit="10" stroke-linecap="round"/>
<path d="M4.38617 27.3628H7.30857" stroke="var(--color-primary)" stroke-width="2" stroke-miterlimit="10" stroke-linecap="round"/>
<path d="M28.3166 36.9832C28.0497 36.3576 27.8791 35.5264 27.9753 34.4502C28.0891 33.2033 28.0497 31.8559 28.0497 30.7009C28.0497 28.7979 27.7435 27.0085 27.7435 27.0085C27.6997 26.4967 27.516 25.998 27.166 25.5955C26.8948 25.2805 26.5185 25.0005 26.0504 25.0005C25.5823 25.0005 25.2061 25.2805 24.9304 25.5955C24.5805 25.998 24.3967 26.4967 24.353 27.0085C24.353 27.0085 24.0467 28.8022 24.0467 30.7009C24.0467 31.8603 24.0074 33.2033 24.1211 34.4502C24.2217 35.5264 24.0467 36.362 23.7799 36.9832C22.9443 38.9563 22.4937 41.0431 22.4937 43.1605V57.3438H29.6072V43.1605C29.6072 41.0431 29.1566 38.9563 28.321 36.9832H28.3166Z" stroke="var(--color-primary)" stroke-width="2" stroke-miterlimit="10" stroke-linecap="round"/>
<path d="M40.2643 36.9832C39.9975 36.3576 39.8269 35.5264 39.9231 34.4502C40.0368 33.2033 39.9975 31.8559 39.9975 30.7009C39.9975 28.7979 39.6912 27.0085 39.6912 27.0085C39.6475 26.4967 39.4637 25.998 39.1138 25.5955C38.8425 25.2805 38.4663 25.0005 37.9982 25.0005C37.5301 25.0005 37.1538 25.2805 36.8782 25.5955C36.5282 25.998 36.3445 26.4967 36.3007 27.0085C36.3007 27.0085 35.9945 28.8022 35.9945 30.7009C35.9945 31.8603 35.9551 33.2033 36.0689 34.4502C36.1651 35.5264 35.9945 36.362 35.7276 36.9832C34.892 38.9563 34.4414 41.0431 34.4414 43.1605V57.3438H41.5549V43.1605C41.5549 41.0431 41.1043 38.9563 40.2643 36.9832Z" stroke="var(--color-primary)" stroke-width="2" stroke-miterlimit="10" stroke-linecap="round"/>
</svg>
