<svg width="134" height="20" viewBox="0 0 134 20" fill="none" xmlns="http://www.w3.org/2000/svg">
<path d="M7.50413 6.48051H2.38959V14.9641H0V4.30835H9.89373V14.9641H7.50413V6.48051Z" fill="#262626"/>
<path d="M12.2191 4.3084H14.6087V5.47643C15.0978 5.02561 15.6218 4.67726 16.1807 4.43135C16.7397 4.18545 17.3685 4.0625 18.0673 4.0625C18.8498 4.0625 19.5695 4.20594 20.2263 4.49282C20.8971 4.76605 21.47 5.15539 21.9451 5.66086C22.4202 6.15266 22.7906 6.74012 23.0561 7.42312C23.3216 8.09256 23.4543 8.82344 23.4543 9.61575C23.4543 10.4354 23.3076 11.1868 23.0142 11.8699C22.7347 12.5393 22.3503 13.1199 21.8612 13.6117C21.3722 14.0898 20.7853 14.4655 20.1006 14.7388C19.4298 15.0119 18.7101 15.1486 17.9415 15.1486C17.2568 15.1486 16.6419 15.0461 16.0969 14.8412C15.5519 14.6362 15.0558 14.3494 14.6087 13.9806V19.0625H12.2191V4.3084ZM17.5852 12.9764C18.0603 12.9764 18.5005 12.9013 18.9057 12.751C19.3249 12.6007 19.6883 12.3822 19.9957 12.0953C20.3031 11.7948 20.5407 11.4396 20.7084 11.0297C20.8901 10.6062 20.9809 10.1281 20.9809 9.59531C20.9809 9.1035 20.904 8.65269 20.7503 8.24281C20.5966 7.81931 20.373 7.46412 20.0796 7.17725C19.8001 6.87669 19.4647 6.64444 19.0734 6.48056C18.6821 6.31663 18.2489 6.23463 17.7738 6.23463C17.0471 6.23463 16.4043 6.40538 15.8454 6.74694C15.3004 7.08844 14.8881 7.49831 14.6087 7.97644V11.2141C14.8881 11.7879 15.2864 12.2251 15.8034 12.5256C16.3205 12.8262 16.9144 12.9764 17.5852 12.9764Z" fill="#262626"/>
<path d="M24.6959 9.61575C24.6959 8.80975 24.8357 8.07206 25.1152 7.40269C25.3946 6.71963 25.7929 6.13217 26.31 5.64037C26.827 5.14856 27.4419 4.76605 28.1546 4.49282C28.8673 4.20594 29.6568 4.0625 30.5232 4.0625C31.3756 4.0625 32.1582 4.20594 32.8709 4.49282C33.5975 4.76605 34.2194 5.14856 34.7364 5.64037C35.2535 6.13217 35.6518 6.71963 35.9312 7.40269C36.2247 8.07206 36.3714 8.80975 36.3714 9.61575C36.3714 10.4218 36.2247 11.1663 35.9312 11.8494C35.6518 12.5188 35.2535 13.0994 34.7364 13.5912C34.2194 14.083 33.5975 14.4655 32.8709 14.7388C32.1582 15.0119 31.3756 15.1486 30.5232 15.1486C29.6708 15.1486 28.8882 15.0119 28.1755 14.7388C27.4628 14.4655 26.848 14.083 26.3309 13.5912C25.8139 13.0994 25.4086 12.5188 25.1152 11.8494C24.8357 11.1663 24.6959 10.4218 24.6959 9.61575ZM27.1694 9.61575C27.1694 10.0939 27.2463 10.5379 27.4 10.9477C27.5677 11.3576 27.7982 11.7127 28.0917 12.0133C28.3851 12.3139 28.7345 12.5529 29.1397 12.7306C29.559 12.8944 30.0201 12.9764 30.5232 12.9764C31.0263 12.9764 31.4804 12.9013 31.8857 12.751C32.3049 12.5871 32.6613 12.3617 32.9547 12.0748C33.2482 11.7743 33.4787 11.4191 33.6464 11.0092C33.8141 10.5994 33.898 10.1349 33.898 9.61575C33.898 9.09662 33.8072 8.63219 33.6255 8.22231C33.4578 7.79881 33.2202 7.44362 32.9128 7.15675C32.6054 6.85619 32.249 6.63081 31.8437 6.48056C31.4385 6.31663 30.9983 6.23463 30.5232 6.23463C30.0481 6.23463 29.6009 6.31663 29.1817 6.48056C28.7764 6.63081 28.4201 6.85619 28.1127 7.15675C27.8192 7.44362 27.5886 7.79881 27.4209 8.22231C27.2532 8.63219 27.1694 9.09662 27.1694 9.61575Z" fill="#262626"/>
<path d="M37.0095 12.7919H38.2714C38.7622 12.1772 39.0917 11.4736 39.26 10.6813C39.4282 9.88895 39.5123 8.99414 39.5123 7.99689V4.30835H48.3037V12.7919H49.839V17.4026H47.6096V14.9641H39.2389V17.4026H37.0095V12.7919ZM45.906 12.7919V6.48051H41.7838V9.20589C41.7838 9.86164 41.6926 10.5174 41.5103 11.1731C41.3281 11.8152 41.0757 12.3548 40.7532 12.7919H45.906Z" fill="var(--color-secondary)"/>
<path d="M50.3256 9.61575C50.3256 8.80975 50.4658 8.07206 50.7462 7.40269C51.0266 6.71963 51.4262 6.13217 51.945 5.64037C52.4638 5.14856 53.0807 4.76605 53.7958 4.49282C54.5109 4.20594 55.3031 4.0625 56.1724 4.0625C57.0277 4.0625 57.8129 4.20594 58.528 4.49282C59.2571 4.76605 59.881 5.14856 60.3998 5.64037C60.9186 6.13217 61.3182 6.71963 61.5986 7.40269C61.8931 8.07206 62.0403 8.80975 62.0403 9.61575C62.0403 10.4218 61.8931 11.1663 61.5986 11.8494C61.3182 12.5188 60.9186 13.0994 60.3998 13.5912C59.881 14.083 59.2571 14.4655 58.528 14.7388C57.8129 15.0119 57.0277 15.1486 56.1724 15.1486C55.3171 15.1486 54.5319 15.0119 53.8168 14.7388C53.1017 14.4655 52.4848 14.083 51.966 13.5912C51.4472 13.0994 51.0406 12.5188 50.7462 11.8494C50.4658 11.1663 50.3256 10.4218 50.3256 9.61575ZM52.8073 9.61575C52.8073 10.0939 52.8844 10.5379 53.0386 10.9477C53.2069 11.3576 53.4383 11.7127 53.7327 12.0133C54.0272 12.3139 54.3777 12.5529 54.7843 12.7306C55.2049 12.8944 55.6676 12.9764 56.1724 12.9764C56.6772 12.9764 57.1328 12.9013 57.5395 12.751C57.9601 12.5871 58.3176 12.3617 58.6121 12.0748C58.9065 11.7743 59.1379 11.4191 59.3062 11.0092C59.4744 10.5994 59.5585 10.1349 59.5585 9.61575C59.5585 9.09662 59.4674 8.63219 59.2851 8.22231C59.1169 7.79881 58.8785 7.44362 58.57 7.15675C58.2616 6.85619 57.904 6.63081 57.4974 6.48056C57.0908 6.31663 56.6492 6.23463 56.1724 6.23463C55.6957 6.23463 55.247 6.31663 54.8264 6.48056C54.4198 6.63081 54.0622 6.85619 53.7537 7.15675C53.4593 7.44362 53.2279 7.79881 53.0597 8.22231C52.8914 8.63219 52.8073 9.09662 52.8073 9.61575Z" fill="var(--color-secondary)"/>
<path d="M63.524 4.30835H65.9216V8.63214L70.6537 4.30835H73.7874L68.4664 9.12395L73.9769 14.9641H70.9064L66.7212 10.5788L65.9216 11.337V14.9641H63.524V4.30835Z" fill="var(--color-secondary)"/>
<path d="M74.7337 4.30835H85.0396V6.48051H81.0853V14.9641H78.688V6.48051H74.7337V4.30835Z" fill="var(--color-secondary)"/>
<path d="M85.5635 9.61575C85.5635 8.80975 85.7039 8.07206 85.9846 7.40269C86.2647 6.71963 86.6642 6.13217 87.183 5.64037C87.7017 5.14856 88.3188 4.76605 89.0341 4.49282C89.7488 4.20594 90.5413 4.0625 91.4103 4.0625C92.266 4.0625 93.0509 4.20594 93.7662 4.49282C94.4955 4.76605 95.119 5.14856 95.6377 5.64037C96.1565 6.13217 96.5566 6.71963 96.8367 7.40269C97.1315 8.07206 97.2783 8.80975 97.2783 9.61575C97.2783 10.4218 97.1315 11.1663 96.8367 11.8494C96.5566 12.5188 96.1565 13.0994 95.6377 13.5912C95.119 14.083 94.4955 14.4655 93.7662 14.7388C93.0509 15.0119 92.266 15.1486 91.4103 15.1486C90.5553 15.1486 89.7698 15.0119 89.0551 14.7388C88.3398 14.4655 87.7228 14.083 87.204 13.5912C86.6852 13.0994 86.2788 12.5188 85.9846 11.8494C85.7039 11.1663 85.5635 10.4218 85.5635 9.61575ZM88.0457 9.61575C88.0457 10.0939 88.1229 10.5379 88.2767 10.9477C88.4451 11.3576 88.6761 11.7127 88.9709 12.0133C89.2651 12.3139 89.616 12.5529 90.0225 12.7306C90.443 12.8944 90.9056 12.9764 91.4103 12.9764C91.9151 12.9764 92.3713 12.9013 92.7778 12.751C93.1983 12.5871 93.5556 12.3617 93.8504 12.0748C94.1446 11.7743 94.3762 11.4191 94.544 11.0092C94.7125 10.5994 94.7967 10.1349 94.7967 9.61575C94.7967 9.09662 94.7055 8.63219 94.523 8.22231C94.3552 7.79881 94.1165 7.44362 93.8083 7.15675C93.4995 6.85619 93.1421 6.63081 92.7357 6.48056C92.3292 6.31663 91.887 6.23463 91.4103 6.23463C90.9337 6.23463 90.4851 6.31663 90.0646 6.48056C89.6581 6.63081 89.3002 6.85619 88.992 7.15675C88.6972 7.44362 88.4662 7.79881 88.2977 8.22231C88.1299 8.63219 88.0457 9.09662 88.0457 9.61575Z" fill="var(--color-secondary)"/>
<path d="M98.7433 4.3084H101.141V5.47643C101.631 5.02561 102.157 4.67726 102.718 4.43135C103.279 4.18545 103.91 4.0625 104.611 4.0625C105.396 4.0625 106.118 4.20594 106.778 4.49282C107.45 4.76605 108.025 5.15539 108.502 5.66086C108.978 6.15266 109.35 6.74012 109.616 7.42312C109.883 8.09256 110.016 8.82344 110.016 9.61575C110.016 10.4354 109.869 11.1868 109.574 11.8699C109.294 12.5393 108.909 13.1199 108.417 13.6117C107.927 14.0898 107.338 14.4655 106.651 14.7388C105.978 15.0119 105.256 15.1486 104.485 15.1486C103.798 15.1486 103.181 15.0461 102.634 14.8412C102.087 14.6362 101.589 14.3494 101.141 13.9806V19.0625H98.7433V4.3084ZM104.128 12.9764C104.604 12.9764 105.046 12.9013 105.452 12.751C105.873 12.6007 106.238 12.3822 106.546 12.0953C106.854 11.7948 107.093 11.4396 107.261 11.0297C107.443 10.6062 107.534 10.1281 107.534 9.59531C107.534 9.1035 107.457 8.65269 107.303 8.24281C107.149 7.81931 106.924 7.46412 106.63 7.17725C106.349 6.87669 106.013 6.64444 105.621 6.48056C105.228 6.31663 104.793 6.23463 104.316 6.23463C103.588 6.23463 102.943 6.40538 102.382 6.74694C101.835 7.08844 101.421 7.49831 101.141 7.97644V11.2141C101.421 11.7879 101.821 12.2251 102.34 12.5256C102.858 12.8262 103.454 12.9764 104.128 12.9764Z" fill="var(--color-secondary)"/>
<path d="M111.205 9.61575C111.205 8.80975 111.346 8.07206 111.626 7.40269C111.907 6.71963 112.306 6.13217 112.825 5.64037C113.344 5.14856 113.961 4.76605 114.675 4.49282C115.391 4.20594 116.183 4.0625 117.052 4.0625C117.907 4.0625 118.693 4.20594 119.408 4.49282C120.137 4.76605 120.761 5.14856 121.28 5.64037C121.798 6.13217 122.198 6.71963 122.479 7.40269C122.773 8.07206 122.92 8.80975 122.92 9.61575C122.92 10.4218 122.773 11.1663 122.479 11.8494C122.198 12.5188 121.798 13.0994 121.28 13.5912C120.761 14.083 120.137 14.4655 119.408 14.7388C118.693 15.0119 117.907 15.1486 117.052 15.1486C116.197 15.1486 115.412 15.0119 114.696 14.7388C113.982 14.4655 113.365 14.083 112.846 13.5912C112.327 13.0994 111.921 12.5188 111.626 11.8494C111.346 11.1663 111.205 10.4218 111.205 9.61575ZM113.687 9.61575C113.687 10.0939 113.764 10.5379 113.919 10.9477C114.087 11.3576 114.318 11.7127 114.613 12.0133C114.907 12.3139 115.257 12.5529 115.664 12.7306C116.085 12.8944 116.547 12.9764 117.052 12.9764C117.557 12.9764 118.013 12.9013 118.419 12.751C118.84 12.5871 119.197 12.3617 119.492 12.0748C119.786 11.7743 120.017 11.4191 120.186 11.0092C120.354 10.5994 120.439 10.1349 120.439 9.61575C120.439 9.09662 120.347 8.63219 120.165 8.22231C119.996 7.79881 119.758 7.44362 119.45 7.15675C119.141 6.85619 118.784 6.63081 118.377 6.48056C117.97 6.31663 117.529 6.23463 117.052 6.23463C116.576 6.23463 116.127 6.31663 115.706 6.48056C115.299 6.63081 114.942 6.85619 114.634 7.15675C114.339 7.44362 114.108 7.79881 113.94 8.22231C113.771 8.63219 113.687 9.09662 113.687 9.61575Z" fill="var(--color-secondary)"/>
<path d="M124.409 4.30835H129.078C130.607 4.30835 131.756 4.5201 132.528 4.9436C133.299 5.36709 133.685 6.09797 133.685 7.1362C133.685 7.62801 133.572 8.0447 133.348 8.3862C133.124 8.72776 132.829 9.03514 132.465 9.30832C132.984 9.49964 133.369 9.82064 133.622 10.2715C133.874 10.7086 134 11.2141 134 11.7879C134 12.8534 133.615 13.6526 132.843 14.1854C132.072 14.7045 130.986 14.9641 129.583 14.9641H124.409V4.30835ZM126.807 10.5583V12.8534H129.352C130.067 12.8534 130.607 12.7646 130.972 12.587C131.336 12.4094 131.518 12.1226 131.518 11.7264C131.518 11.3029 131.343 11.0023 130.993 10.8248C130.656 10.6471 130.13 10.5583 129.415 10.5583H126.807ZM126.807 6.41901V8.52964H129.625C130.116 8.52964 130.502 8.44089 130.782 8.26326C131.063 8.0857 131.203 7.81245 131.203 7.44357C131.203 7.00645 131.014 6.72639 130.635 6.60345C130.27 6.48051 129.731 6.41901 129.015 6.41901H126.807Z" fill="var(--color-secondary)"/>
</svg>
