<svg width="49" height="49" viewBox="0 0 49 49" fill="none" xmlns="http://www.w3.org/2000/svg">
<path d="M39.1474 42.0629L38.2578 39.8288C37.8079 38.6952 37.109 37.6786 36.2143 36.85L36.0517 36.7C34.6436 35.3936 32.7932 34.6667 30.8717 34.6667H18.1278C16.2063 34.6667 14.356 35.3936 12.9454 36.6975L12.7827 36.85C11.888 37.6786 11.1916 38.6952 10.7392 39.8288L9.84961 42.0629" stroke="var(--color-grey-medium)" stroke-width="2" stroke-linecap="round" stroke-linejoin="round"/>
<path d="M30.7906 12.9281C34.2647 16.4022 34.2647 22.0347 30.7906 25.5087C27.3166 28.9828 21.6841 28.9828 18.21 25.5087C14.736 22.0347 14.736 16.4022 18.21 12.9281C21.6841 9.45406 27.3166 9.45406 30.7906 12.9281" stroke="var(--color-grey-medium)" stroke-width="2" stroke-linecap="round" stroke-linejoin="round"/>
<path d="M40.675 8.32493C49.6083 17.2582 49.6083 31.7418 40.675 40.675C31.7418 49.6083 17.2581 49.6083 8.32493 40.675C-0.608312 31.7418 -0.608312 17.2581 8.32493 8.32493C17.2582 -0.608312 31.7418 -0.608312 40.675 8.32493" stroke="var(--color-grey-medium)" stroke-width="2" stroke-linecap="round" stroke-linejoin="round"/>
</svg>
