<svg width="45" height="45" viewBox="0 0 45 45" fill="none" xmlns="http://www.w3.org/2000/svg">
<path d="M17.3989 42.0004H16.1496C16.0713 41.899 15.993 41.8969 15.9158 42.0004H15.682C15.5828 41.8374 15.4252 41.9544 15.2989 41.922C13.393 41.4259 11.9004 40.3761 10.9161 38.6464C10.8953 38.6182 10.8744 38.591 10.8535 38.5628C10.5895 37.9842 10.3003 37.4128 10.221 36.7715C10.2033 36.6273 10.1521 36.6075 10.031 36.6064C9.19499 36.597 8.42991 36.3004 7.70867 35.9254C6.59185 35.3447 5.70779 34.4923 5.05961 33.405C5.03874 33.3789 5.01891 33.3528 4.99803 33.3256C4.73918 32.8848 4.57426 32.4064 4.43544 31.9176C4.41353 31.8915 4.39265 31.8664 4.37073 31.8403C4.22356 31.2188 4.1244 30.5785 4.14319 29.9518C4.1672 29.1757 4.27262 28.385 4.64315 27.6747C4.78823 27.3969 4.6849 27.2245 4.4678 27.0773C4.02525 26.7764 3.66202 26.3889 3.3468 25.968C2.40638 24.7177 1.96278 23.3149 2.00244 21.7324C2.03271 20.5553 2.4356 19.5295 2.99506 18.5299C3.3228 17.945 3.78101 17.476 4.27575 17.0488C4.60766 16.7616 4.87069 16.5443 4.53982 16.0743C4.48033 15.9897 4.42083 15.7901 4.37908 15.6387C4.08474 14.5649 4.04195 13.4703 4.31541 12.3975C4.68386 10.953 5.44372 9.72983 6.61377 8.78036C6.64195 8.76051 6.67118 8.74066 6.69936 8.72082C7.51454 8.12648 8.37981 7.66481 9.40374 7.51544C9.77219 7.46112 10.1719 7.46739 10.3275 6.85843C10.8368 4.85295 12.0758 3.376 13.9848 2.55187C14.944 2.13719 15.9554 1.93142 17.0472 2.03796C18.1703 2.14764 19.1879 2.45264 20.1367 3.0407C20.7755 3.43658 21.3203 3.93064 21.7817 4.52497C21.8652 4.63256 21.9706 4.86757 22.1574 4.59495C22.4403 4.18132 22.7806 3.82723 23.1709 3.50238C24.3347 2.53098 25.6801 2.0317 27.1727 2.0014C28.2509 1.97947 29.2936 2.21449 30.28 2.71063C31.878 3.51283 32.9134 4.78924 33.5511 6.42182C33.6732 6.73414 33.6158 7.18433 33.8215 7.37861C34.0344 7.5802 34.4884 7.46739 34.812 7.54991C36.1459 7.88729 37.2836 8.57041 38.199 9.61702C38.986 10.5174 39.4588 11.5452 39.6822 12.7255C39.9243 14.0071 39.7959 15.2209 39.272 16.4022C39.1979 16.5704 39.1613 16.6759 39.3847 16.7856C39.5966 16.889 39.7709 17.078 39.9473 17.2441C40.9368 18.1811 41.5077 19.3551 41.8407 20.6555C41.8835 20.8206 41.8334 21.0096 42.0004 21.1318V21.6792C41.92 21.7314 41.92 21.7836 42.0004 21.8358V21.9925C41.8845 22.1231 41.8835 22.2526 42.0004 22.3832V22.9305C41.9106 22.9639 41.8594 23.0193 41.8427 23.1237C41.5755 24.7908 40.7217 26.1153 39.4285 27.1598C39.1999 27.3447 39.2156 27.4293 39.3221 27.6601C39.6248 28.3192 39.7803 29.0305 39.8074 29.7502C39.8398 30.6182 39.7344 31.482 39.4223 32.3009C39.0298 33.3319 38.4484 34.2322 37.6072 34.9739C37.2961 35.2475 36.9548 35.4596 36.6208 35.6841C35.8495 36.2012 34.9863 36.5083 34.0615 36.5981C33.8319 36.6211 33.7599 36.7036 33.7202 36.9031C33.5261 37.8766 33.0898 38.754 32.4729 39.5081C31.6984 40.4555 30.7591 41.2232 29.5629 41.6055C29.1298 41.7444 28.6914 41.8687 28.2561 42.0004H26.4598C26.2187 41.8531 25.9327 41.8834 25.6739 41.805C24.3055 41.3904 23.1407 40.6717 22.2441 39.5415C21.9988 39.2324 21.9122 39.247 21.6575 39.5812C20.9216 40.5443 19.9488 41.1762 18.8331 41.617C18.3675 41.8009 17.8707 41.8468 17.401 42.0004H17.3989ZM26.2939 16.4472C25.8294 16.1234 25.3628 15.8089 24.8378 15.5833C23.2805 14.9138 21.6742 14.8125 20.0522 15.2449C18.6327 15.6241 17.4553 16.4043 16.5337 17.5763C14.8991 19.6549 14.538 21.9487 15.3845 24.419C15.8667 25.828 16.78 26.9561 18.0137 27.799C18.8821 28.3913 19.8236 28.8007 20.8841 28.9543C21.9414 29.1068 22.9914 29.088 23.9913 28.7642C25.4192 28.3014 26.6143 27.4616 27.5558 26.2615C28.777 24.702 29.1725 22.9159 28.9408 21.0075C28.7185 19.1796 27.7969 17.688 26.3815 16.5088C26.3534 16.4889 26.3241 16.4691 26.2959 16.4492L26.2939 16.4472ZM31.067 36.2816C31.0607 36.1312 30.9741 36.1959 30.9031 36.221C30.6046 36.2722 30.5221 35.9547 30.2967 35.8659C29.1371 35.4073 28.3647 34.5111 27.6935 33.5073C27.6351 33.4206 27.5944 33.3924 27.7301 33.3162C28.2561 33.0216 28.7655 32.6947 29.2853 32.3876C29.5274 32.2445 29.7049 32.2633 29.874 32.5495C30.2925 33.2608 30.9751 33.7006 31.7005 34.0087C32.3435 34.2813 33.0376 34.3868 33.7724 34.2824C34.5782 34.1675 35.2921 33.8687 35.8829 33.3642C37.0561 32.3615 37.6374 31.0955 37.4036 29.5006C37.2711 28.596 36.8985 27.8356 36.2868 27.1807C35.5405 26.3827 34.5646 26.0662 33.524 25.9105C33.3664 25.8865 33.2975 25.8625 33.2996 25.687C33.309 25.0488 33.309 24.4106 33.2996 23.7724C33.2975 23.6 33.3612 23.505 33.5198 23.5635C33.7599 23.6523 34.0083 23.5959 34.2431 23.6418C35.5395 23.8925 36.7377 24.3573 37.6928 25.311C37.8243 25.4426 37.9297 25.3872 38.008 25.3183C38.5758 24.8117 39.0924 24.255 39.3388 23.5186C39.5507 22.8856 39.6769 22.2484 39.5955 21.5538C39.4108 19.9787 38.5914 18.8621 37.2053 18.2103C36.0186 17.6525 34.7681 17.6703 33.5636 18.251C33.4154 18.3221 33.3204 18.3336 33.2484 18.1926C32.9322 17.5742 32.5126 17.0143 32.237 16.374C32.2391 16.3511 32.2391 16.3281 32.2391 16.3051C33.6618 15.481 35.1867 15.3358 36.7743 15.6324C36.982 15.6711 37.0863 15.67 37.1709 15.4308C37.3316 14.9744 37.461 14.5075 37.4631 14.0322C37.4673 12.6138 36.9444 11.4366 35.7827 10.5707C34.7045 9.76743 33.4833 9.53137 32.2193 9.83637C31.2392 10.0724 30.376 10.6156 29.8259 11.5233C29.6892 11.7489 29.566 11.7771 29.3437 11.6403C28.8375 11.329 28.3219 11.0344 27.8021 10.7482C27.6382 10.6584 27.6121 10.6145 27.7249 10.438C28.1267 9.81026 28.6152 9.26606 29.1819 8.78871C29.2122 8.76782 29.2414 8.74693 29.2717 8.72604C29.8364 8.2957 30.4386 7.9322 31.1296 7.74628C31.3864 7.67734 31.4532 7.53424 31.3582 7.3128C31.211 6.96915 31.0711 6.61819 30.8801 6.29961C30.4365 5.56009 29.8113 5.02739 28.9972 4.7109C28.0515 4.34322 27.1069 4.21893 26.1185 4.53646C25.5789 4.70985 25.1144 4.97412 24.6729 5.33657C23.7847 6.06564 23.2597 6.99736 23.2002 8.11291C23.124 9.54077 23.1876 10.9759 23.1782 12.408C23.1761 12.6514 23.2565 12.7495 23.4966 12.7757C24.5769 12.8937 25.557 13.3188 26.512 13.8045C27.5088 14.3121 28.3114 15.0642 29.065 15.8789C30.0065 16.8953 30.5879 18.11 30.9824 19.4126C31.3123 20.5009 31.4072 21.6196 31.3185 22.7676C31.2141 24.1056 30.8008 25.336 30.1902 26.5038C29.4116 27.9933 28.2467 29.136 26.8272 30.0197C25.8169 30.6474 24.7199 31.0893 23.5488 31.2689C23.1542 31.3295 23.1793 31.4799 23.1814 31.7431C23.1876 32.3813 23.1678 33.0196 23.1876 33.6567C23.2148 34.5352 23.0926 35.4188 23.2607 36.2931C23.5582 37.8379 24.5195 38.8334 25.9244 39.4162C26.703 39.739 27.5088 39.7327 28.3469 39.5196C29.3886 39.2554 30.1913 38.6944 30.7977 37.8442C31.0231 37.5288 31.1338 37.1318 31.3133 36.7809C31.4605 36.4926 31.3885 36.3328 31.0701 36.2826L31.067 36.2816ZM13.417 5.87449C13.0245 6.28081 12.7866 6.7592 12.6175 7.3034C12.5256 7.599 12.5809 7.68047 12.8283 7.7609C14.2906 8.23303 15.3991 9.14907 16.2195 10.4411C16.3207 10.601 16.304 10.6615 16.1663 10.7388C15.7759 10.9571 15.3824 11.1713 14.9941 11.3927C14.7958 11.5055 14.6152 11.7144 14.4117 11.7364C14.0975 11.7698 14.0965 11.3864 13.9274 11.2099C12.8774 10.1163 11.6447 9.56061 10.0968 9.79459C8.83698 9.98469 7.83497 10.5529 7.1607 11.6476C6.54593 12.6472 6.31734 13.7136 6.61168 14.8762C6.66805 15.0976 6.7265 15.3107 6.82357 15.5165C6.87367 15.622 6.93734 15.6951 7.05424 15.6544C7.66588 15.4444 8.2984 15.5081 8.92465 15.5092C9.89431 15.5123 10.7815 15.8298 11.6363 16.2602C11.7355 16.3103 11.8096 16.3249 11.7198 16.4712C11.3712 17.0425 11.0341 17.6212 10.7095 18.2061C10.626 18.3565 10.555 18.3325 10.4371 18.2751C10.0613 18.0923 9.66468 17.9951 9.25135 17.9178C7.87985 17.663 6.67118 18.0004 5.66499 18.9394C4.71308 19.8262 4.27157 20.947 4.35299 22.2662C4.42918 23.5092 4.97924 24.4931 5.91967 25.2828C6.0397 25.383 6.12947 25.4092 6.2495 25.2984C6.71397 24.8691 7.23168 24.5297 7.80366 24.2466C8.63345 23.8372 9.50916 23.6638 10.412 23.5551C10.6834 23.5228 10.7324 23.6376 10.7241 23.88C10.7074 24.374 10.7001 24.8702 10.7241 25.3642C10.7439 25.7549 10.4986 25.9387 10.2022 25.968C9.05826 26.0797 8.15854 26.6135 7.43103 27.4731C6.7839 28.2377 6.46034 29.1496 6.48434 30.1294C6.50209 30.8469 6.67013 31.551 7.06989 32.208C7.91116 33.5878 9.12923 34.3179 10.7001 34.3221C12.1342 34.3262 13.3178 33.6933 14.1184 32.4534C14.2437 32.2602 14.3574 32.1965 14.5745 32.3343C15.1068 32.6728 15.6475 32.9987 16.1944 33.312C16.3072 33.3768 16.3207 33.4018 16.2529 33.5042C15.5212 34.6093 14.6058 35.5076 13.3836 36.0591C13.1571 36.1615 12.9264 36.2544 12.6958 36.3443C12.5862 36.386 12.5089 36.4466 12.5653 36.5657C12.6791 36.8049 12.7125 37.0786 12.8314 37.3031C13.3857 38.3508 14.2176 39.0861 15.3553 39.4737C16.0045 39.6951 16.6464 39.6648 17.3144 39.5938C18.284 39.4893 19.0324 38.9921 19.6722 38.333C20.4321 37.5496 20.7901 36.5542 20.8225 35.4742C20.8621 34.1466 20.8319 32.8169 20.834 31.4883C20.834 31.3776 20.834 31.3055 20.6784 31.2888C19.3028 31.1384 18.0523 30.6349 16.9011 29.8828C16.0233 29.3084 15.2624 28.597 14.6173 27.7687C14.1121 27.1201 13.7249 26.4119 13.3857 25.6536C12.9891 24.7668 12.7083 23.8612 12.6509 22.9148C12.5789 21.7084 12.6248 20.5072 13.0026 19.3165C13.4243 17.9857 14.0693 16.8096 14.9847 15.7755C15.8991 14.7425 16.9762 13.9194 18.2642 13.3951C19.022 13.0869 19.7996 12.8394 20.6054 12.7109C20.8371 12.6743 20.835 12.5845 20.835 12.4205C20.8329 11.1963 20.8517 9.97111 20.8225 8.74798C20.8141 8.40537 20.8141 8.04606 20.7411 7.71494C20.4843 6.5597 19.8601 5.62172 18.855 4.99083C18.0878 4.51035 17.2392 4.34427 16.3145 4.385C15.6778 4.41425 15.1423 4.65763 14.5912 4.88638C14.1351 5.07543 13.7155 5.35119 13.4713 5.816C13.4525 5.83585 13.4337 5.85465 13.4149 5.87449H13.417Z" fill="#C4CADB"/>
<path d="M42.0004 22.3833C41.8834 22.2528 41.8845 22.1232 42.0004 21.9927V22.3833Z" fill="#C4CADB"/>
<path d="M15.9147 42.0006C15.993 41.8972 16.0714 41.8993 16.1486 42.0006H15.9147Z" fill="#C4CADB"/>
<path d="M42.0004 21.8359C41.92 21.7837 41.92 21.7314 42.0004 21.6792V21.8359Z" fill="#C4CADB"/>
<path d="M31.0661 36.2807C30.9982 36.2963 30.9303 36.311 30.9021 36.2201C30.9742 36.195 31.0598 36.1303 31.0661 36.2807Z" fill="#C4CADB"/>
<path d="M13.4734 5.81494C13.4932 5.87239 13.4692 5.88597 13.417 5.87343C13.4358 5.85359 13.4546 5.83479 13.4734 5.81494Z" fill="#C4CADB"/>
<path d="M6.61279 8.78033C6.62637 8.73855 6.64308 8.70094 6.69844 8.72079C6.67024 8.74063 6.641 8.76048 6.61279 8.78033Z" fill="#C4CADB"/>
<path d="M29.1788 8.78565C29.1945 8.74492 29.2102 8.70418 29.2687 8.72298C29.2384 8.74387 29.2091 8.76476 29.1788 8.78565Z" fill="#C4CADB"/>
<path d="M32.236 16.3707C32.2172 16.3519 32.1974 16.332 32.1786 16.3132C32.1984 16.3091 32.2183 16.3049 32.2392 16.3018C32.2392 16.3247 32.2392 16.3477 32.2371 16.3707H32.236Z" fill="#C4CADB"/>
<path d="M26.3795 16.5058C26.3231 16.5257 26.3064 16.4881 26.2938 16.4463C26.322 16.4661 26.3513 16.486 26.3795 16.5058Z" fill="#C4CADB"/>
<path d="M4.43447 31.9176C4.38642 31.9145 4.35508 31.8967 4.36971 31.8403C4.39164 31.8664 4.41253 31.8915 4.43447 31.9176Z" fill="#C4CADB"/>
<path d="M5.05868 33.4051C5.01377 33.3978 4.98034 33.3821 4.99705 33.3257C5.01794 33.3518 5.03779 33.3779 5.05868 33.4051Z" fill="#C4CADB"/>
<path d="M10.9141 38.6451C10.8692 38.6346 10.8347 38.6179 10.8515 38.5615C10.8723 38.5897 10.8932 38.6169 10.9141 38.6451Z" fill="#C4CADB"/>
<path d="M25.4892 23.1644C25.4485 23.8757 25.3055 24.5233 24.9068 25.1103C23.8077 26.7304 21.574 27.2255 19.9333 26.0243C19.0868 25.4049 18.5565 24.5369 18.4887 23.4412C18.4751 23.2239 18.5377 23.1518 18.7642 23.1581C19.3748 23.1738 19.9854 23.1685 20.596 23.1602C20.7651 23.1581 20.8319 23.179 20.8486 23.3847C20.8862 23.8631 21.3841 24.3154 21.835 24.3342C22.4675 24.3614 22.9727 24.0115 23.1 23.4579C23.1345 23.3106 23.1418 23.1581 23.3631 23.1602C24.0759 23.1675 24.7888 23.1633 25.4892 23.1633V23.1644Z" fill="#C4CADB"/>
<path d="M20.8193 19.6475C20.8193 20.0235 20.9665 20.5291 20.7807 20.7411C20.5657 20.9866 20.05 20.8048 19.6649 20.8163C19.2902 20.8267 18.785 20.9531 18.5721 20.7641C18.3268 20.5468 18.5074 20.0319 18.4969 19.6475C18.4865 19.2725 18.3602 18.7669 18.5491 18.5539C18.7662 18.3084 19.2808 18.4891 19.6659 18.4787C20.0407 18.4682 20.5437 18.3418 20.7588 18.5309C21.0082 18.7492 20.7974 19.2641 20.8193 19.6475Z" fill="#C4CADB"/>
<path d="M24.3296 20.8198C24.0175 20.8198 23.7044 20.8104 23.3933 20.824C23.2201 20.8313 23.1731 20.7728 23.1752 20.6036C23.1846 19.9654 23.1846 19.3272 23.1752 18.69C23.172 18.5156 23.2284 18.4707 23.3964 18.4728C24.0342 18.4811 24.6719 18.4822 25.3086 18.4728C25.4829 18.4696 25.5278 18.525 25.5257 18.6942C25.5163 19.3324 25.5163 19.9706 25.5257 20.6078C25.5288 20.7812 25.4746 20.8313 25.3055 20.825C24.9809 20.8125 24.6552 20.8219 24.3296 20.8219V20.8198Z" fill="#C4CADB"/>
</svg>
