<svg width="45" height="49" viewBox="0 0 45 49" fill="none" xmlns="http://www.w3.org/2000/svg">
<path d="M37.0541 25.7484C36.5438 26.1604 36.1356 26.6804 35.533 27.0091C35.1686 27.2102 34.9207 27.6517 34.5223 27.897C33.8322 28.3189 33.1665 28.7751 32.3744 29.0057C32.1994 29.0547 32.0585 29.2804 31.8301 29.2804C31.7524 29.2656 31.6746 29.2509 31.6406 29.349C31.0478 29.7415 30.3431 29.8445 29.692 30.0702C29.5267 30.129 29.5267 29.9426 29.5753 29.869C29.8232 29.4717 29.9447 29.04 30.0321 28.5838C30.0564 28.4611 30.1828 28.3777 30.3286 28.3385C31.3928 28.0491 32.3501 27.5144 33.288 26.9502C33.3511 26.9699 33.3706 26.9306 33.3803 26.8766C34.6486 26.0623 35.7712 25.091 36.7285 23.9137C37.7976 22.6039 38.6334 21.1813 39.1533 19.5576C39.3672 18.8806 39.3186 18.1497 39.649 17.5071C39.3672 16.5554 39.7802 15.5399 39.3331 14.5785C39.2165 14.3234 39.2797 13.8819 39.2262 13.5238C39.1193 12.8468 38.7937 12.2336 38.7257 11.5517C38.7403 11.4929 38.7209 11.4683 38.6577 11.488C38.1377 10.551 37.7344 9.55027 37.1172 8.67218C35.8003 6.79826 34.153 5.3315 32.1071 4.29153C30.4986 3.47721 28.8027 2.95722 27.0484 2.6776C25.9599 2.50591 24.8422 2.38818 23.7343 2.48138C21.7516 2.64817 19.7786 2.88854 17.9175 3.66362C16.7026 4.16889 15.4975 4.69378 14.4186 5.47867C12.8636 6.60694 11.6439 8.03936 10.604 9.64348C9.61749 11.1642 9.04893 12.8321 8.73307 14.6177C8.54841 15.6577 8.67962 16.6633 8.96146 17.6297C9.19958 18.4538 8.99062 19.067 8.54355 19.7146C7.5668 21.1175 6.61434 22.5401 5.66188 23.9578C5.27313 24.5367 5.45293 25.0861 6.1041 25.3216C6.2839 25.3854 6.47828 25.405 6.65808 25.4589C7.28495 25.6552 7.60567 26.3027 7.40157 26.9404C7.26065 27.377 7.14888 27.8185 6.98852 28.2453C6.90591 28.4759 6.94478 28.5691 7.17318 28.6377C7.39186 28.7015 7.61053 28.7996 7.81463 28.9075C8.38805 29.2166 8.55813 29.9917 8.05274 30.3645C7.32382 30.9041 7.387 31.483 7.61539 32.2286C7.86322 33.0233 7.7466 33.8572 7.53764 34.6568C7.45503 34.9757 7.5182 35.2897 7.47447 35.6036C7.43073 35.8293 7.52792 35.9519 7.75146 35.9813C8.27142 36.516 8.9566 36.6583 9.64179 36.8006C10.2346 36.9281 10.8324 36.8104 11.4252 36.8594C12.4068 36.9428 13.3884 36.9968 14.3458 37.3304C16.1583 37.9681 17.4753 39.1258 18.2868 40.8771C18.3257 40.9556 18.3645 41.0389 18.4034 41.1174C18.384 41.1812 18.4229 41.2057 18.4763 41.2155C18.6707 41.971 18.8748 42.7215 18.9768 43.4966C19.1518 44.7868 19.2441 46.0868 19.2004 47.3867C19.1906 47.6516 18.9234 47.941 18.7387 47.941C17.83 47.9214 17.8543 47.8282 17.8203 47.3965C17.7765 46.8177 17.7911 46.2388 17.7425 45.66C17.6356 44.3845 17.5822 43.1042 17.1157 41.8876C16.3867 39.9646 15.0309 38.8854 13.0143 38.5224C12.1104 38.3605 11.2211 38.439 10.3318 38.3556C9.31135 38.2624 8.27628 38.13 7.38214 37.5756C6.42482 36.987 5.77365 35.9372 6.08466 34.6323C6.34707 33.5384 6.35193 32.4346 5.88056 31.3947C5.66188 30.9188 5.83683 30.6 6.14783 30.2909C6.24502 30.1928 6.35679 30.1143 6.50743 29.9966C6.29362 29.8887 6.14783 29.8151 6.00205 29.7415C5.47237 29.4717 5.24883 28.937 5.43349 28.3532C5.57441 27.9019 5.68618 27.4408 5.8757 27.014C6.02149 26.6804 5.76879 26.5774 5.61815 26.5725C5.06417 26.5529 4.71915 26.3419 4.53935 25.7876C4.48103 25.611 4.17003 25.5767 4.09714 25.3069C3.87846 24.468 4.0534 23.742 4.54907 23.0307C5.48694 21.6964 6.33735 20.2983 7.29467 18.9787C7.63483 18.5078 7.58623 18.1104 7.46961 17.6346C7.17318 16.4475 7.1829 15.2799 7.39186 14.0487C7.81949 11.5223 8.91773 9.33443 10.4485 7.3624C11.8966 5.49339 13.6703 3.96776 15.823 2.95722C17.553 2.14781 19.3413 1.5248 21.2462 1.29424C21.6544 1.24519 22.0626 1.1667 22.4659 1.09802C22.5631 1.09802 22.6846 1.1716 22.7381 1.01953H26.0085C26.0619 1.17651 26.1834 1.09311 26.2806 1.09802C26.577 1.31877 26.9464 1.22556 27.2671 1.27462C28.4479 1.45122 29.6045 1.71612 30.727 2.12328C32.0828 2.61383 33.3706 3.23684 34.5514 4.06587C35.7371 4.89491 36.7819 5.88092 37.6809 7.04354C38.784 8.47105 39.6782 10.0065 40.2564 11.7136C40.5237 12.5034 40.6549 13.3324 40.8299 14.1468C41.0534 15.1769 40.9999 16.1826 40.9951 17.1931C40.9902 18.6893 40.5966 20.1119 40.0037 21.4805C39.9552 21.4953 39.9114 21.5149 39.9357 21.5787C39.2457 23.0699 38.3127 24.3895 37.1901 25.5767C37.1415 25.6306 37.1075 25.6993 37.0686 25.7582L37.0541 25.7729V25.7484Z" fill="#C4CADB" stroke="#C4CADB" stroke-width="0.5"/>
<path d="M22.7333 1C22.675 1.14717 22.5584 1.07358 22.4612 1.07849C22.4612 1.05396 22.4612 1.02453 22.4612 1H22.7333Z" fill="#C4CADB" stroke="#C4CADB" stroke-width="0.5"/>
<path d="M26.2807 1.07849C26.1835 1.07849 26.062 1.16188 26.0085 1H26.2807C26.2807 1.02453 26.2807 1.04906 26.2807 1.07849Z" fill="#C4CADB" stroke="#C4CADB" stroke-width="0.5"/>
<path d="M18.3938 8.79965C17.9322 9.17247 17.4705 9.54529 17.0089 9.91811C16.9457 9.89849 16.9262 9.93773 16.9068 9.9917C15.3421 11.4241 14.3118 13.1705 13.9134 15.275C13.753 16.1187 13.685 16.9723 13.7384 17.8258C13.8356 19.3171 14.2438 20.7299 14.861 22.0839C15.0505 22.4959 15.1963 22.9325 15.4781 23.3004C15.4587 23.3642 15.4976 23.3887 15.551 23.3936C16.2556 24.5808 17.1984 25.5521 18.2383 26.4351C18.3306 26.5136 18.4035 26.6068 18.4861 26.6951C18.4667 26.7588 18.4959 26.7785 18.5542 26.7687L18.734 26.8913C18.768 26.9992 18.8457 26.9649 18.9186 26.9551C20.0557 27.6467 21.2026 28.2992 22.5049 28.6573C23.054 28.8094 23.6275 28.7946 24.162 29.0301C23.9287 29.3686 23.642 29.6678 23.4476 30.0406C23.3748 30.1829 23.2533 30.3301 23.054 30.2761C22.1307 30.0357 21.1783 29.869 20.3473 29.3588C20.3619 29.295 20.3473 29.2705 20.2793 29.295C20.2453 29.2852 20.2112 29.2803 20.1772 29.2705C20.1724 29.2509 20.1626 29.2263 20.1578 29.2067C20.1384 29.2263 20.1189 29.2509 20.0995 29.2705C19.7204 29.246 19.5406 28.8437 19.2345 28.7603C18.8895 28.6671 18.6271 28.4807 18.3452 28.2943C16.1584 26.857 14.5548 24.9242 13.4614 22.5401C13.0046 21.5393 12.6742 20.4945 12.4847 19.4201C12.3097 18.4341 12.1737 17.4236 12.2903 16.4131C12.4167 15.2995 12.5381 14.1614 13.0338 13.1558C13.3885 12.4248 13.6704 11.6596 14.1466 10.9777C15.4247 9.16266 17.0332 7.76458 19.0887 6.94045C19.7885 6.66083 20.532 6.48423 21.2706 6.31254C21.8975 6.17028 22.5389 6.14575 23.1561 6.16047C25.1971 6.19971 27.102 6.74423 28.725 8.06872C28.7396 8.11778 28.7591 8.16193 28.8271 8.1374C29.3762 8.54947 29.7552 9.14794 30.3578 9.52567C30.5473 9.6434 30.5571 10.1389 30.7612 10.4136C31.077 10.8453 31.2374 11.3554 31.4804 11.8264C31.4609 11.8901 31.4998 11.9147 31.5532 11.9245C31.6504 12.3365 31.7719 12.7437 31.84 13.1607C31.9469 13.8425 32.1898 14.5097 32.0926 15.221C32.0149 15.2652 31.9371 15.2995 31.9371 15.4074C32.1169 16.0549 31.9031 16.6191 31.6699 17.2274C31.5435 17.556 31.4755 17.9387 31.2714 18.2281C30.9458 18.699 30.8195 19.2828 30.3724 19.685C29.8913 20.1216 29.4831 20.6416 28.934 20.9948C28.4189 21.3284 27.9086 21.6767 27.3109 21.8582C26.0086 22.2506 24.7014 22.4959 23.3505 22.1133C21.844 21.6865 20.6826 20.8084 19.8128 19.4888C19.0353 18.3115 18.7583 17.0066 18.9381 15.6478C19.1033 14.4018 19.6718 13.3324 20.7069 12.523C21.6011 11.8264 22.5972 11.4879 23.6858 11.4781C25.3817 11.4683 27.1311 12.7977 27.3887 14.6225C27.4227 14.858 27.4178 15.1131 27.5247 15.3584C27.6462 15.6429 27.3206 15.7753 27.1603 15.9176C26.9708 16.0844 26.6889 16.1334 26.4557 15.9863C26.1932 15.8195 25.9794 15.6085 26.0037 15.2357C26.0669 14.1908 24.9832 12.9252 23.7003 12.9301C21.7517 12.9301 20.634 14.284 20.4105 15.687C20.1481 17.3353 20.7118 18.7775 22.0676 19.8469C22.9811 20.568 24.0162 20.9065 25.163 20.8182C26.6646 20.7005 27.9524 20.102 29.0263 18.9934C29.6289 18.3704 30.0371 17.6198 30.3481 16.8742C30.6397 16.1727 30.7028 15.3436 30.5814 14.5097C30.4599 13.6807 30.3384 12.8663 30.0031 12.106C29.2742 10.4479 28.1322 9.17247 26.4751 8.40721C25.6101 8.00495 24.716 7.74986 23.7441 7.68609C22.087 7.57326 20.5271 7.82835 19.0595 8.60833C18.8749 8.70644 18.6805 8.80455 18.4618 8.73588C18.3987 8.71625 18.3792 8.74078 18.3938 8.80455V8.79965Z" fill="#C4CADB" stroke="#C4CADB" stroke-width="0.5"/>
<path d="M37.6615 30.8205C37.3505 31.625 37.0444 32.4246 36.7334 33.2291C36.7091 33.2291 36.6896 33.234 36.6654 33.2389C36.6896 33.2586 36.7091 33.2831 36.7334 33.3027C36.5584 34.0729 36.3495 34.8381 36.2231 35.6181C36.0288 36.8053 35.9899 38.012 35.9899 39.2188C35.9899 41.0142 36.2134 42.7753 36.6848 44.5119C36.9083 45.3213 37.161 46.1209 37.3846 46.9303C37.5303 47.4503 37.3846 47.8231 36.9375 47.9752C36.6313 48.0782 36.1308 47.8329 36.019 47.4552C35.6594 46.2337 35.2512 45.027 34.9888 43.7662C34.7264 42.5055 34.5175 41.235 34.4883 39.9644C34.4689 38.9539 34.4543 37.9237 34.5709 36.9181C34.6535 36.2313 34.7021 35.5347 34.8965 34.8578C35.1832 33.857 35.3679 32.822 35.7226 31.8409C35.9121 31.3258 36.0482 30.7862 36.2572 30.2858C36.4078 29.913 36.5633 29.5009 36.8451 29.1771C37.1076 28.8828 37.4137 28.8043 37.7587 29.0005C38.1086 29.1919 38.1523 29.5254 38.06 29.8639C37.9774 30.1583 37.8365 30.4379 37.7199 30.7224C37.6713 30.7371 37.6275 30.7567 37.6518 30.8205H37.6615Z" fill="#C4CADB" stroke="#C4CADB" stroke-width="0.5"/>
<path d="M23.8218 26.1412C23.6712 26.3374 23.5545 26.5777 23.365 26.7249C23.0734 26.9555 22.7236 26.9555 22.4077 26.7543C22.1501 26.5876 22.1064 26.0332 22.3056 25.7144C22.7867 24.9491 23.4865 24.4782 24.3369 24.2329C25.4449 23.914 26.4313 24.2574 27.3595 24.8559C27.3789 24.905 27.3984 24.954 27.4664 24.9344C28.9145 26.0578 29.0263 28.5302 27.9183 29.8056C27.5004 30.2863 26.9853 30.566 26.4945 30.9044C26.062 31.1988 25.8531 31.6059 25.8336 32.1014C25.8045 32.8323 25.8239 33.5681 25.8239 34.304C25.8239 34.7013 25.6052 34.9858 25.2845 35.1183C25.0172 35.2311 24.7354 35.1085 24.5167 34.873C24.4001 34.7455 24.3758 34.6179 24.3758 34.461C24.3758 33.5436 24.3029 32.6214 24.4001 31.7138C24.5021 30.7573 25.0707 30.0214 25.9065 29.5456C26.4654 29.2316 26.927 28.8834 27.1262 28.2162C27.6122 26.5876 26.1981 25.3317 24.8374 25.6604C24.4924 25.7438 24.196 25.8566 23.9239 26.0676C23.8607 26.0479 23.8412 26.0872 23.8267 26.1412H23.8218Z" fill="#C4CADB" stroke="#C4CADB" stroke-width="0.5"/>
<path d="M25.7364 37.3306C25.7364 37.7868 25.4643 38.0762 25.0415 38.0713C24.6236 38.0713 24.3612 37.7721 24.366 37.3061C24.366 36.9087 24.6819 36.5948 25.0658 36.5997C25.4546 36.6095 25.7364 36.9136 25.7364 37.3257V37.3306Z" fill="#C4CADB" stroke="#C4CADB" stroke-width="0.5"/>
<path d="M7.73205 35.9715C7.50851 35.942 7.41132 35.8243 7.45506 35.5938C7.67374 35.6232 7.70289 35.7949 7.73205 35.9715Z" fill="#C4CADB" stroke="#C4CADB" stroke-width="0.5"/>
<path d="M31.9323 15.4076C31.9323 15.2997 32.0149 15.2653 32.0878 15.2212C32.2384 15.4567 32.0294 15.3831 31.9323 15.4076Z" fill="#C4CADB" stroke="#C4CADB" stroke-width="0.5"/>
<path d="M18.9185 26.9503C18.8457 26.9602 18.7679 26.9994 18.7339 26.8866C18.8505 26.7394 18.8942 26.8179 18.9185 26.9503Z" fill="#C4CADB" stroke="#C4CADB" stroke-width="0.5"/>
<path d="M31.6357 29.3542C31.6698 29.2561 31.7475 29.2708 31.8253 29.2855C31.8155 29.4621 31.7184 29.3836 31.6357 29.3542Z" fill="#C4CADB" stroke="#C4CADB" stroke-width="0.5"/>
<path d="M37.0687 25.7339C37.0687 25.7339 37.1124 25.7633 37.1318 25.778C37.0784 25.8418 37.0832 25.7535 37.0541 25.7486L37.0687 25.7339Z" fill="#C4CADB" stroke="#C4CADB" stroke-width="0.5"/>
<path d="M27.4615 24.934C27.3935 24.9536 27.3741 24.9045 27.3546 24.8555C27.3886 24.88 27.4275 24.9045 27.4615 24.934Z" fill="#C4CADB" stroke="#C4CADB" stroke-width="0.5"/>
<path d="M15.5558 23.394C15.5023 23.3891 15.4634 23.3695 15.4829 23.3008C15.5072 23.3302 15.5315 23.3646 15.5558 23.394Z" fill="#C4CADB" stroke="#C4CADB" stroke-width="0.5"/>
<path d="M23.8218 26.1409C23.8315 26.0918 23.8509 26.0476 23.919 26.0673L23.8218 26.1409Z" fill="#C4CADB" stroke="#C4CADB" stroke-width="0.5"/>
<path d="M18.5541 26.7689C18.4958 26.7787 18.4667 26.7591 18.4861 26.6953C18.5104 26.7198 18.5298 26.7444 18.5541 26.7689Z" fill="#C4CADB" stroke="#C4CADB" stroke-width="0.5"/>
<path d="M39.9358 21.5542C39.9115 21.4904 39.9552 21.4708 40.0038 21.4561L39.9358 21.5542Z" fill="#C4CADB" stroke="#C4CADB" stroke-width="0.5"/>
<path d="M33.3755 26.8818C33.3658 26.9358 33.3464 26.975 33.2832 26.9554C33.3124 26.9309 33.3464 26.9064 33.3755 26.8818Z" fill="#C4CADB" stroke="#C4CADB" stroke-width="0.5"/>
<path d="M31.5532 11.9248C31.4997 11.915 31.4609 11.8953 31.4803 11.8267C31.5046 11.861 31.5289 11.8904 31.5532 11.9248Z" fill="#C4CADB" stroke="#C4CADB" stroke-width="0.5"/>
<path d="M20.0994 29.2659C20.0994 29.2659 20.1382 29.2218 20.1577 29.2021C20.1625 29.2218 20.1723 29.2463 20.1771 29.2659C20.1528 29.2659 20.1237 29.2659 20.0994 29.2659Z" fill="#C4CADB" stroke="#C4CADB" stroke-width="0.5"/>
<path d="M20.2841 29.2901C20.3472 29.2656 20.3667 29.2901 20.3521 29.3539C20.3278 29.3343 20.3084 29.3097 20.2841 29.2901Z" fill="#C4CADB" stroke="#C4CADB" stroke-width="0.5"/>
<path d="M38.6432 11.4881C38.7064 11.4685 38.7258 11.493 38.7112 11.5519C38.6869 11.5322 38.6675 11.5077 38.6432 11.4881Z" fill="#C4CADB" stroke="#C4CADB" stroke-width="0.5"/>
<path d="M37.6616 30.8208C37.6373 30.757 37.681 30.7374 37.7296 30.7227C37.7053 30.757 37.681 30.7913 37.6616 30.8208Z" fill="#C4CADB" stroke="#C4CADB" stroke-width="0.5"/>
<path d="M36.7334 33.3031C36.7334 33.3031 36.6897 33.2589 36.6654 33.2393C36.6897 33.2393 36.7091 33.2344 36.7334 33.2295C36.7334 33.254 36.7334 33.2785 36.7334 33.3031Z" fill="#C4CADB" stroke="#C4CADB" stroke-width="0.5"/>
<path d="M16.9067 9.98704C16.9213 9.93799 16.9408 9.89384 17.0088 9.91346C16.9748 9.93799 16.9408 9.96252 16.9067 9.98704Z" fill="#C4CADB" stroke="#C4CADB" stroke-width="0.5"/>
<path d="M18.3937 8.79988C18.3743 8.73611 18.3986 8.71648 18.4618 8.7312C18.4375 8.75573 18.418 8.77535 18.3937 8.79988Z" fill="#C4CADB" stroke="#C4CADB" stroke-width="0.5"/>
<path d="M28.827 8.14241C28.7639 8.16694 28.7444 8.12279 28.725 8.07373C28.759 8.09826 28.793 8.12279 28.827 8.14241Z" fill="#C4CADB" stroke="#C4CADB" stroke-width="0.5"/>
<path d="M18.4618 41.2006C18.4083 41.1908 18.3694 41.1712 18.3889 41.1025C18.4132 41.1369 18.4375 41.1663 18.4618 41.2006Z" fill="#C4CADB" stroke="#C4CADB" stroke-width="0.5"/>
</svg>
