<svg width="58" height="59" viewBox="0 0 58 59" fill="none" xmlns="http://www.w3.org/2000/svg">
<path d="M52.0603 49.3164H5.51554C3.21351 49.3164 1.34735 51.1826 1.34735 53.4846C1.34735 55.7866 3.21351 57.6528 5.51554 57.6528H52.0603C54.3624 57.6528 56.2285 55.7866 56.2285 53.4846C56.2285 51.1826 54.3624 49.3164 52.0603 49.3164Z" stroke="#262626" stroke-width="2" stroke-miterlimit="10"/>
<path d="M18.0201 53.832H1.34735" stroke="#262626" stroke-width="2" stroke-miterlimit="10"/>
<path d="M14 1L23 14" stroke="#30A9FE" stroke-width="2" stroke-miterlimit="10"/>
<path d="M43 1L34 14" stroke="#30A9FE" stroke-width="2" stroke-miterlimit="10"/>
<path d="M29 14L27 1" stroke="#30A9FE" stroke-width="2" stroke-miterlimit="10"/>
<path d="M41.6378 14H15.3622C12.953 14 11 15.953 11 18.3622V44.6378C11 47.047 12.953 49 15.3622 49H41.6378C44.047 49 46 47.047 46 44.6378V18.3622C46 15.953 44.047 14 41.6378 14Z" stroke="#262626" stroke-width="2" stroke-miterlimit="10"/>
<path fill-rule="evenodd" clip-rule="evenodd" d="M28.5 39.8921C25.7329 38.1305 24.0676 35.1445 24.0676 31.9443C24.0676 28.7442 25.7329 25.7581 28.5 23.9966C31.2671 25.7581 32.9324 28.7442 32.9324 31.9443C32.9324 35.1445 31.2671 38.1305 28.5 39.8921Z" stroke="#30A9FE" stroke-width="2" stroke-linecap="round" stroke-linejoin="round"/>
<path d="M32.6714 29.8797C34.8333 28.7151 37.3369 28.2831 39.7827 28.6525C40.4391 31.7235 39.4813 34.9093 37.2238 37.1637C34.9664 39.4181 31.701 40.4498 28.5 39.9201C25.2989 40.4498 22.0336 39.4181 19.7762 37.1637C17.5188 34.9093 16.5609 31.7236 17.2172 28.6526C19.6631 28.2831 22.1667 28.7152 24.3286 29.8797" stroke="#30A9FE" stroke-width="2" stroke-linecap="round" stroke-linejoin="round"/>
</svg>
