<svg width="45" height="45" viewBox="0 0 45 45" fill="none" xmlns="http://www.w3.org/2000/svg">
<path d="M40 18.125C40.0033 17.3222 39.7857 16.5339 39.3709 15.8465C38.9561 15.1591 38.3601 14.5991 37.6483 14.2278C36.9365 13.8566 36.1362 13.6883 35.3351 13.7415C34.534 13.7947 33.763 14.0673 33.1066 14.5295C32.4501 14.9916 31.9334 15.6255 31.6132 16.3617C31.2929 17.098 31.1814 17.9081 31.2909 18.7034C31.4004 19.4988 31.7266 20.2487 32.2338 20.871C32.7411 21.4933 33.4097 21.964 34.1667 22.2317V28.3333C34.1667 30.654 33.2448 32.8796 31.6039 34.5205C29.9629 36.1615 27.7373 37.0833 25.4167 37.0833C23.096 37.0833 20.8704 36.1615 19.2295 34.5205C17.5885 32.8796 16.6667 30.654 16.6667 28.3333V28.2167C19.0935 27.8646 21.3126 26.6514 22.9191 24.7986C24.5255 22.9459 25.412 20.5772 25.4167 18.125V9.375C25.4167 8.21468 24.9557 7.10188 24.1353 6.28141C23.3148 5.46094 22.202 5 21.0417 5H16.6667V7.91667H21.0417C21.4284 7.91667 21.7994 8.07031 22.0729 8.3438C22.3464 8.61729 22.5 8.98823 22.5 9.375V18.125C22.5 20.0589 21.7318 21.9135 20.3643 23.281C18.9969 24.6484 17.1422 25.4167 15.2083 25.4167C13.2745 25.4167 11.4198 24.6484 10.0523 23.281C8.68489 21.9135 7.91667 20.0589 7.91667 18.125V9.375C7.91667 8.98823 8.07031 8.61729 8.3438 8.3438C8.61729 8.07031 8.98823 7.91667 9.375 7.91667H13.75V5H9.375C8.21468 5 7.10188 5.46094 6.28141 6.28141C5.46094 7.10188 5 8.21468 5 9.375L5 18.125C5.00469 20.5772 5.89118 22.9459 7.4976 24.7986C9.10402 26.6514 11.3232 27.8646 13.75 28.2167V28.3333C13.75 31.4275 14.9792 34.395 17.1671 36.5829C19.355 38.7708 22.3225 40 25.4167 40C28.5109 40 31.4783 38.7708 33.6663 36.5829C35.8542 34.395 37.0833 31.4275 37.0833 28.3333V22.2317C37.9334 21.9311 38.6699 21.3753 39.192 20.6402C39.7141 19.9051 39.9963 19.0266 40 18.125ZM35.625 19.5833C35.3366 19.5833 35.0546 19.4978 34.8148 19.3376C34.575 19.1773 34.3881 18.9496 34.2777 18.6831C34.1673 18.4166 34.1384 18.1234 34.1947 17.8405C34.251 17.5576 34.3899 17.2978 34.5938 17.0938C34.7978 16.8899 35.0576 16.751 35.3405 16.6947C35.6234 16.6384 35.9166 16.6673 36.1831 16.7777C36.4496 16.8881 36.6773 17.075 36.8376 17.3148C36.9978 17.5546 37.0833 17.8366 37.0833 18.125C37.0833 18.5118 36.9297 18.8827 36.6562 19.1562C36.3827 19.4297 36.0118 19.5833 35.625 19.5833Z" fill="#C4CADB"/>
</svg>
