<svg width="59" height="59" viewBox="0 0 59 59" fill="none" xmlns="http://www.w3.org/2000/svg">
<path d="M9.05789 8.37157H9.08428C10.008 8.45074 10.8173 7.76458 10.8965 6.84529L11.0152 5.41578L7.64597 5.12988L7.52721 6.55939C7.44804 7.48307 8.1342 8.2924 9.05789 8.37157Z" fill="var(--color-secondary)"/>
<path d="M20.0805 3.54218L20.0409 3.19031C19.9529 2.43377 20.4983 1.752 21.2549 1.66843C21.9982 1.58486 22.6712 2.10828 22.7724 2.85162L22.8031 3.07155C27.1928 2.50854 30.263 5.58748 28.4992 10.9009C25.8909 18.7653 21.6947 29.1326 15.3301 29.1326C8.96551 29.1326 4.77375 18.7653 2.16544 10.9009C0.406049 5.58748 3.4718 2.50854 7.86149 3.07155L7.89228 2.85162C7.99344 2.11268 8.66641 1.58486 9.40975 1.66843C10.1663 1.752 10.7117 2.43816 10.6237 3.19031L10.5842 3.54218" stroke="var(--color-primary)" stroke-width="2" stroke-miterlimit="10" stroke-linecap="round"/>
<path d="M21.6067 8.37157H21.5803C20.6567 8.45074 19.8473 7.76458 19.7682 6.84529L19.6494 5.41578L23.0187 5.12988L23.1374 6.55939C23.2166 7.48307 22.5304 8.2924 21.6067 8.37157Z" fill="var(--color-secondary)"/>
<path d="M45.9975 38.6107C47.729 36.8792 47.729 34.072 45.9975 32.3405C44.2661 30.609 41.4588 30.609 39.7274 32.3405C37.9959 34.072 37.9959 36.8792 39.7274 38.6107C41.4588 40.3421 44.2661 40.3421 45.9975 38.6107Z" stroke="var(--color-primary)" stroke-width="2" stroke-miterlimit="10" stroke-linecap="round"/>
<path d="M42.8644 35.7217C41.954 35.7217 41.149 35.2599 40.674 34.5605C40.5552 34.8421 40.4893 35.1499 40.4893 35.4754C40.4893 36.7862 41.5537 37.8506 42.8644 37.8506C44.1752 37.8506 45.2396 36.7862 45.2396 35.4754C45.2396 35.1499 45.1736 34.8421 45.0549 34.5605C44.5755 35.2599 43.7749 35.7217 42.8644 35.7217Z" fill="var(--color-secondary)"/>
<path d="M15.3345 29.1328V45.7943C15.3345 49.6694 12.194 52.8143 8.31456 52.8143C5.21363 52.8143 2.49976 50.3775 2.69769 47.1974C2.87363 44.378 4.721 42.9089 7.18855 42.7065C7.18855 42.7065 10.3203 42.4031 12.0929 45.2225" stroke="var(--color-primary)" stroke-width="2" stroke-miterlimit="10" stroke-linecap="round"/>
<path d="M15.9722 51.5735C15.9722 51.5735 21.5582 57.3091 28.9477 57.3443H33.7509C38.7871 57.3443 42.8689 53.2625 42.8689 48.2262V39.9131" stroke="var(--color-primary)" stroke-width="2" stroke-miterlimit="10" stroke-linecap="round"/>
<path d="M46.9025 43.3398C48.4288 41.8883 49.7748 40.8107 49.7748 40.8107C51.9784 38.9589 54.1776 36.7948 55.3388 35.4489C55.6028 35.1454 55.8447 34.8243 56.0734 34.4944C56.6672 33.6367 57.1422 32.7042 57.4633 31.7102C58.3518 28.9611 57.868 26.7663 57.0367 25.1564C55.7479 22.6669 53.2276 21.0175 50.4301 20.8327C45.1739 20.4852 42.8691 25.803 42.8691 25.803C42.8691 25.803 40.5643 20.4896 35.3081 20.8327C32.5063 21.0175 29.9904 22.6625 28.7016 25.1564C27.8703 26.7619 27.3865 28.9611 28.275 31.7102C28.596 32.7042 29.0711 33.6367 29.6649 34.4944C29.8936 34.8243 30.1355 35.1454 30.3994 35.4489C31.5562 36.7948 33.7599 38.9589 35.9635 40.8107C35.9635 40.8107 37.3094 41.8883 38.8357 43.3398" stroke="var(--color-primary)" stroke-width="2" stroke-miterlimit="10" stroke-linecap="round"/>
</svg>
