<svg width="62" height="62" viewBox="0 0 62 62" fill="none" xmlns="http://www.w3.org/2000/svg">
<path d="M8.71921 55.3909C8.71921 53.3215 8.67697 50.3277 8.90221 48.019C9.06645 46.3062 11.2391 45.6587 12.309 47.0007C13.0457 47.9251 13.7965 48.7745 14.5473 49.5534C22.304 57.6386 34.575 59.7362 44.3166 54.2084C57.3055 46.8365 60.0929 30.5065 60.0929 30.5065C62.6831 17.466 56.5782 10.4976 52.9227 8.20299C51.1255 7.07678 49.0092 6.50429 46.8881 6.60753C43.0074 6.80462 41.3744 9.19311 40.7034 11.4877C40.1966 13.224 37.8222 13.4351 37.0385 11.8021C35.7716 9.15087 35.0301 5.9975 35.0301 2.52504V1.69916" stroke="#262626" stroke-width="2" stroke-miterlimit="10" stroke-linecap="round"/>
<path d="M12.9659 28.4184V35.3914C12.9659 36.5786 13.6417 37.6579 14.7022 38.1976C16.7903 39.2628 18.7894 40.0276 20.5303 40.4734C27.8037 42.3457 33.9556 38.0005 34.6501 31.1729C35.1709 26.0768 32.5337 21.5204 32.5337 21.5204C27.9726 12.9987 27.8178 4.76807 27.8178 4.76807V1.70386" stroke="#262626" stroke-width="2" stroke-miterlimit="10" stroke-linecap="round"/>
<path d="M1.70386 55.391V46.5034C1.70386 42.3036 4.28943 39.7461 5.94589 38.5355C6.79055 37.9207 7.30672 36.9494 7.30672 35.903V28.4184" stroke="#262626" stroke-width="2" stroke-miterlimit="10" stroke-linecap="round"/>
<path d="M53.955 39.61C56.5265 34.528 57.3336 30.1171 57.3477 30.0326V29.9998L57.3618 29.9622C60.0553 16.4009 52.3314 11.1171 51.4445 10.5587C50.2245 9.79379 48.7933 9.37616 47.3902 9.37616C47.2682 9.37616 47.1509 9.37616 47.0289 9.38554C45.1472 9.4794 44.0773 10.2584 43.4907 11.9383C49.6379 15.0306 54.9123 22.8437 53.9597 39.61H53.955Z" fill="#30A9FE"/>
</svg>
