<svg width="45" height="45" viewBox="0 0 45 45" fill="none" xmlns="http://www.w3.org/2000/svg">
<path d="M33.6064 33.0904C33.6064 32.5094 33.1094 32.0378 32.497 32.0378C31.8845 32.0378 31.3875 32.5094 31.3875 33.0904C31.3875 33.6715 31.8845 34.143 32.497 34.143C33.1094 34.143 33.6064 33.6715 33.6064 33.0904ZM14.5395 33.4912C15.9366 33.8517 19.2366 33.6344 21.8833 32.0193C24.0082 30.7208 25.3537 28.7402 25.7727 26.2915C26.6407 21.2238 22.6981 18.7431 22.1407 18.4197C17.859 15.4741 18.1129 9.25622 18.6454 5.80538C18.7342 5.2294 18.3153 4.69552 17.7082 4.61131C17.0975 4.52879 16.5383 4.92625 16.4496 5.50055C15.3987 12.2944 16.9732 17.5002 20.8839 20.1561C20.9105 20.1746 20.9443 20.1948 20.9727 20.21C21.1058 20.2841 24.2443 22.0878 23.5821 25.9546C23.2626 27.8241 22.2863 29.2707 20.6815 30.2492C18.5105 31.5747 15.8602 31.6505 15.1502 31.4686C14.946 31.4096 10.1016 30.0707 6.26197 32.5178C3.81581 34.0773 2.38326 36.7669 2.00516 40.5091C1.94658 41.0885 2.39391 41.6021 3.00279 41.6577C3.0383 41.6611 3.07557 41.6628 3.11108 41.6628C3.67557 41.6628 4.15842 41.2552 4.21345 40.7112C4.52587 37.6309 5.62647 35.4651 7.4886 34.2727C10.446 32.378 14.4756 33.4744 14.5413 33.4912H14.5395ZM38.8396 16.0484C38.5165 15.5802 36.0419 12.158 32.4473 11.7488C30.4715 11.5214 28.581 12.2271 26.8218 13.8405C25.9236 14.6641 25.2721 14.7819 24.9916 14.7247C24.5993 14.3121 22.6928 11.8431 24.3277 4.26438C24.4502 3.69513 24.0632 3.13936 23.4632 3.02147C22.8668 2.90526 22.2774 3.27241 22.1531 3.84165C20.0496 13.5896 23.3336 16.1983 23.7153 16.4644C23.7295 16.4745 23.7437 16.4846 23.7597 16.493C24.5017 16.9596 26.3052 17.2425 28.3644 15.3529C29.6336 14.1874 30.878 13.6906 32.1739 13.8371C34.8987 14.142 36.9739 17.1903 36.9934 17.2189C37.0183 17.256 37.0467 17.293 37.0751 17.3267C37.2384 17.5153 39.6792 20.4272 39.8088 24.9155H28.9005C28.2881 24.9155 27.791 25.3871 27.791 25.9681C27.791 26.5491 28.2881 27.0207 28.9005 27.0207H39.697C39.4112 29.1512 38.5698 31.5427 36.7928 34.1076C34.1177 37.9694 30.894 40.2077 27.2052 40.7618C23.2857 41.3495 20.0425 39.8372 18.7413 38.8502C14.2164 35.4146 10.4957 34.6567 8.26612 36.7164C7.77085 37.1728 7.14955 38.1362 6.73239 41.5415C6.66138 42.1192 7.09807 42.6413 7.70695 42.7086C8.31938 42.7777 8.86612 42.3617 8.93713 41.784C9.30636 38.7744 9.7963 38.2423 9.81583 38.2237C11.7206 36.4638 16.0679 39.5172 17.3549 40.494C18.9969 41.7402 21.9508 43 25.4283 43C26.1171 43 26.8289 42.9495 27.5532 42.8417C31.8224 42.2 35.6585 39.5795 38.6479 35.2647C45.736 25.03 39.4804 16.84 38.8396 16.0484ZM25.0591 14.7904C25.0591 14.7904 25.0591 14.7904 25.0555 14.787C25.0608 14.7904 25.0626 14.792 25.0626 14.792C25.0626 14.792 25.0626 14.792 25.0591 14.7887V14.7904ZM28.1088 31.9671C28.7212 31.9671 29.2182 31.4955 29.2182 30.9145C29.2182 30.3335 28.7212 29.8619 28.1088 29.8619C27.4963 29.8619 26.9993 30.3335 26.9993 30.9145C26.9993 31.4955 27.4963 31.9671 28.1088 31.9671ZM26.165 35.7278C26.165 36.3088 26.662 36.7804 27.2745 36.7804C27.8869 36.7804 28.3839 36.3088 28.3839 35.7278C28.3839 35.1468 27.8869 34.6752 27.2745 34.6752C26.662 34.6752 26.165 35.1468 26.165 35.7278Z" fill="#C4CADB"/>
</svg>
