<svg width="34" height="40" viewBox="0 0 34 40" fill="none" xmlns="http://www.w3.org/2000/svg">
<path d="M12.6134 39.9997C11.7228 39.6324 11.0993 39.0201 10.8544 38.0515C10.7765 37.7287 10.8099 37.4058 10.821 37.083C10.8433 36.3482 10.6874 35.5912 11.0214 34.8787C11.0882 34.7451 11.1439 34.567 11.2329 34.489C11.5224 34.2441 11.3442 34.066 11.2107 33.8545C11.0548 33.6095 10.8878 33.7877 10.7542 33.8322C9.81906 34.155 8.86164 34.2886 7.89309 34.1996C6.5349 34.0882 5.32143 33.5539 4.23042 32.7412C3.45112 32.1623 2.83882 31.4275 2.38238 30.5703C1.9816 29.791 1.75894 28.9783 1.65875 28.0988C1.59195 27.4977 1.68102 26.941 1.75894 26.3621C1.78121 26.2285 1.74781 26.1283 1.64762 26.017C0.846058 25.0818 0.322819 24.0242 0.100163 22.7885C-0.222687 20.9405 0.233756 19.3151 1.22457 17.7899C1.22457 17.7899 1.22457 17.7676 1.24684 17.7565C1.79234 17.3668 1.79234 16.8102 1.66988 16.2536C1.49176 15.4297 1.70328 14.6505 1.92594 13.8934C2.23765 12.8135 2.82769 11.8673 3.66265 11.1102C4.06343 10.754 4.4976 10.4534 4.98744 10.1862C5.42162 9.94129 5.86693 9.71864 6.32337 9.51825C6.90228 9.27333 7.52571 9.18427 8.12688 9.162C8.81711 9.1286 9.50734 9.20653 10.1308 9.58505C10.1864 9.61844 10.2644 9.72977 10.3534 9.62958C10.4536 9.54051 10.3423 9.46259 10.32 9.39579C9.74113 7.8038 8.95071 6.31202 8.27161 4.76456C8.06009 4.29699 7.80403 3.84054 7.65931 3.3507C7.33646 2.29309 7.54798 1.29114 8.41633 0.578644C8.77258 0.289192 9.21789 0.0999355 9.73 0.0554044C10.5538 -0.0225249 11.3888 0.0108734 12.2126 -0.00025936C12.6913 -0.0113921 13.17 -0.000259365 13.6042 0.188998C14.5394 0.578644 15.096 1.29114 15.2073 2.33762C15.2741 2.94992 15.3854 3.56222 15.5302 4.16339C15.6972 4.88702 16.7214 5.27667 17.3225 4.83136C17.6231 4.59757 17.7233 4.20792 17.7901 3.82941C17.9126 3.11691 17.946 2.39328 18.1798 1.70305C18.4915 0.801299 19.1372 0.222396 20.1057 0.07767C21.0743 -0.0670559 22.0317 0.0108734 23.0002 0.0331389C23.3231 0.0331389 23.6348 0.0554044 23.9354 0.155599C24.9819 0.500715 25.6721 1.36907 25.7278 2.44895C25.75 2.84973 25.6164 3.22824 25.4606 3.58449C24.9373 4.78683 24.3696 5.97803 23.8241 7.18037C23.4901 7.91513 23.1895 8.64989 22.8667 9.38466C22.8221 9.48485 22.8221 9.58505 22.8889 9.70751C23.735 9.13974 24.7036 9.13974 25.661 9.2288C26.3512 9.29559 27.0303 9.45145 27.6537 9.8745C27.9432 10.0749 28.344 10.1639 28.6557 10.3755C30.2031 11.4553 31.2385 12.8692 31.5725 14.7506C31.6949 15.4743 31.6949 16.209 31.5391 16.9327C31.5057 17.0885 31.5391 17.1665 31.6281 17.2666C32.5299 18.2797 33.0531 19.4487 33.2313 20.7957C33.4539 22.4879 33.1088 24.0242 32.1402 25.427C31.9844 25.6607 31.8397 25.9057 31.6281 26.0949C31.3164 26.3621 31.5725 26.6961 31.6059 26.9521C31.7395 27.7203 31.6059 28.4551 31.4277 29.1787C30.9156 31.2605 29.5797 32.6521 27.6983 33.565C26.4737 34.155 25.1711 34.3443 23.8018 34.1439C23.3565 34.0771 22.9334 33.9881 22.5215 33.8433C22.1876 33.732 22.0317 33.9101 21.8647 34.1216C21.809 34.1884 21.809 34.233 21.8647 34.2886C22.3434 34.7117 22.4436 35.3017 22.4659 35.8806C22.5327 37.005 22.6551 38.1406 21.8981 39.1314C21.5641 39.5656 21.0743 39.7214 20.6401 39.9886H12.5911L12.6134 39.9997ZM24.8038 32.5074C25.1266 32.474 25.4383 32.5074 25.7723 32.4295C27.1639 32.1623 28.2883 31.472 29.0899 30.3365C29.8358 29.2789 30.1029 28.0877 29.8692 26.7963C29.769 26.2619 29.6799 25.6719 30.1363 25.2711C30.4369 25.0039 30.6151 24.7033 30.8266 24.3916C31.5836 23.3006 31.7283 22.0426 31.5502 20.7957C31.4055 19.7604 30.9268 18.8141 30.1029 18.1127C29.7578 17.8233 29.7022 17.4559 29.8135 17.0663C30.0807 16.1311 30.025 15.2071 29.7356 14.3053C29.3459 13.0696 28.5221 12.2012 27.3977 11.5667C26.3846 10.9878 25.3159 10.8208 24.1803 11.0323C23.7684 11.1102 23.5012 11.3552 23.2897 11.6891C22.4325 13.0251 21.553 14.3387 20.7292 15.6969C19.961 16.9661 18.87 17.5784 17.3782 17.5116C16.7436 17.4893 16.0979 17.5004 15.4634 17.5116C14.339 17.5338 13.4817 17.0217 12.8472 16.1422C11.8118 14.7284 10.9769 13.1921 10.0306 11.7337C9.65207 11.1548 9.18449 10.8764 8.52766 10.8764C7.65931 10.8764 6.83548 11.0323 6.03392 11.4331C5.12104 11.8784 4.45307 12.5464 3.96323 13.3924C3.3064 14.528 3.08374 15.7526 3.45112 17.044C3.58472 17.5338 3.47339 17.9346 3.06148 18.2575C2.86109 18.4133 2.70523 18.6248 2.5605 18.8364C1.71441 20.0498 1.44723 21.3858 1.74781 22.8219C1.9482 23.8016 2.46031 24.6588 3.2062 25.3379C3.39546 25.516 3.46226 25.6941 3.46226 25.9502C3.46226 26.3621 3.3398 26.7518 3.3064 27.1525C3.1728 28.6666 3.70718 29.9803 4.76479 31.0156C6.26771 32.474 8.06009 32.9972 10.1085 32.2959C11.2107 31.9285 12.1903 31.3051 13.2368 30.8041C15.0849 29.9135 16.9886 29.7799 18.9591 30.381C20.3173 30.793 21.4751 31.6056 22.7999 32.0955C23.4678 32.3404 24.1024 32.4963 24.7926 32.5074H24.8038ZM11.411 1.66965C10.9769 1.66965 10.5538 1.64739 10.1196 1.66965C9.42941 1.72532 9.03977 2.25969 9.35148 2.93879C9.49621 3.25051 9.67433 3.53996 9.77453 3.86281C9.96379 4.50851 10.5093 5.02061 10.4536 5.75538C10.4536 5.82217 10.5204 5.94463 10.5872 5.9669C10.8099 6.0337 10.8544 6.23409 10.9212 6.40108C11.1884 7.01338 11.4333 7.63681 11.7005 8.22685C12.2126 9.34013 12.4241 10.4979 12.4464 11.7003C12.4464 11.9118 12.4464 12.1122 12.4464 12.3237C12.4464 12.513 12.58 12.68 12.7136 12.6243C13.3481 12.3905 14.005 12.513 14.6395 12.513C16.5098 12.513 18.3802 12.435 20.2505 12.5575C20.8071 12.5909 20.8294 12.5798 20.796 11.9897C20.7403 10.9321 20.9741 9.91903 21.2747 8.92821C21.4305 8.42724 21.6532 7.9374 21.8647 7.45869C22.2766 6.5458 22.7331 5.64405 23.145 4.73116C23.4122 4.12999 23.6682 3.51769 23.9354 2.91652C24.2916 2.1261 23.7461 1.66965 23.1338 1.64739C22.2989 1.61399 21.4639 1.64739 20.6401 1.64739C20.1503 1.64739 19.8274 1.97024 19.7272 2.37102C19.6382 2.71613 19.6048 3.07238 19.5491 3.4175C19.46 3.9296 19.4155 4.44171 19.2374 4.93155C19.0481 5.44366 18.6696 5.81104 18.2577 6.14502C17.7456 6.55694 17.0999 6.56807 16.4876 6.63486C15.6192 6.73506 14.3612 5.81104 14.0606 4.87589C13.7935 4.0632 13.7489 3.21711 13.5374 2.39328C13.4149 1.89231 13.1478 1.65852 12.6356 1.64739C12.2237 1.64739 11.8007 1.64739 11.3888 1.64739L11.411 1.66965ZM16.61 38.3298C17.7011 38.3298 18.7921 38.3298 19.8942 38.3298C20.462 38.3298 20.8294 37.9847 20.8405 37.4169C20.8405 36.9048 20.8516 36.4039 20.8405 35.8918C20.8294 35.3685 20.462 35.0011 19.9499 35.0011C17.7456 35.0011 15.5524 35.0011 13.3481 35.0011C12.8249 35.0011 12.5466 35.2906 12.5355 35.8138C12.5243 36.4039 12.5243 36.9828 12.5355 37.5728C12.5466 38.0404 12.8583 38.3298 13.337 38.3298C14.428 38.3298 15.519 38.3298 16.6212 38.3298H16.61ZM16.6212 33.3535C17.6788 33.3535 18.7253 33.3535 19.7829 33.3535C20.0167 33.3535 20.2282 33.309 20.4286 33.1642C20.6512 33.0084 20.629 32.9082 20.4063 32.808C20.0278 32.6299 19.6604 32.4406 19.293 32.2625C18.0462 31.6613 16.7436 31.4053 15.3854 31.7949C14.506 32.051 13.671 32.4183 12.8472 32.8414C12.5689 32.9861 12.669 33.0863 12.8249 33.1754C13.0364 33.2867 13.2591 33.3535 13.5151 33.3535C14.5505 33.3535 15.597 33.3535 16.6323 33.3535H16.6212ZM19.7383 14.1717H13.6376C13.7935 14.5837 14.0718 14.8842 14.2722 15.2294C14.5616 15.7192 15.0181 15.8417 15.5302 15.8528C16.3095 15.8639 17.0888 15.8305 17.868 15.8417C18.2466 15.8417 18.5583 15.7081 18.8255 15.452C19.204 15.0958 19.4155 14.6282 19.7383 14.1717Z" fill="#C4CADB"/>
<path d="M16.61 24.2246C15.5858 24.2134 14.7063 23.7681 13.9159 23.1336C13.6153 22.8887 13.5597 22.3765 13.7712 22.0982C14.0718 21.7086 14.5727 21.5861 14.9512 21.831C15.1294 21.9535 15.2964 22.0871 15.4745 22.1984C16.3762 22.7217 17.445 22.5881 18.2243 21.9201C18.5249 21.664 19.1706 21.6306 19.4377 21.9535C19.7049 22.2875 19.794 22.7662 19.3153 23.167C18.536 23.8238 17.6565 24.2023 16.5989 24.2134L16.61 24.2246Z" fill="#C4CADB"/>
<path d="M24.314 20.8737C23.0337 20.8737 22.1208 20.4396 21.3527 19.7048C21.1077 19.471 21.1411 19.1148 21.2636 18.8142C21.4083 18.4579 21.72 18.3911 22.0652 18.4134C22.3101 18.4357 22.5105 18.547 22.6997 18.714C23.3566 19.304 24.8817 19.3374 25.661 18.6249C25.9727 18.3355 26.3067 18.2909 26.6964 18.5025C27.0638 18.7028 27.1194 19.0034 27.1306 19.3708C27.1417 19.7493 26.7966 19.8606 26.5962 20.0054C25.8614 20.5286 25.0487 20.896 24.314 20.8737Z" fill="#C4CADB"/>
<path d="M23.8575 28.3658C23.0671 28.3547 22.132 27.9428 21.3527 27.208C21.1077 26.9742 21.1411 26.618 21.2747 26.3174C21.4195 25.9723 21.7312 25.9055 22.0763 25.9166C22.3991 25.9277 22.5884 26.1615 22.8222 26.3174C23.6015 26.8295 24.9708 26.7849 25.661 26.1281C26.1732 25.6383 26.9413 25.9389 27.0972 26.4844C27.1862 26.7961 27.0972 27.1635 26.5962 27.5086C25.8614 28.0207 25.0599 28.3769 23.8464 28.3658H23.8575Z" fill="#C4CADB"/>
<path d="M9.19569 28.3661C8.14921 28.3327 7.30312 27.9987 6.56836 27.4198C6.27891 27.1972 6.03399 26.8966 6.16758 26.4958C6.40137 25.8056 7.06933 25.6386 7.61484 26.1395C8.40527 26.852 9.86366 26.8409 10.7877 26.095C11.1105 25.839 11.567 25.8835 11.8898 26.1729C12.1681 26.429 12.1793 26.9188 11.9121 27.2194C11.4556 27.7204 10.8656 28.021 10.231 28.188C9.87479 28.277 9.49628 28.4106 9.19569 28.3661Z" fill="#C4CADB"/>
<path d="M9.1845 20.8734C8.06009 20.8289 7.1806 20.4615 6.43471 19.7824C6.03393 19.4262 6.05619 19.0031 6.39017 18.6023C6.67963 18.2572 7.25853 18.2795 7.52572 18.5467C8.36067 19.3816 9.90813 19.2926 10.7765 18.5912C11.0882 18.3352 11.5558 18.3797 11.8786 18.6691C12.1681 18.9252 12.1792 19.415 11.912 19.7156C11.4444 20.2166 10.8544 20.5283 10.1976 20.6953C9.8302 20.7844 9.46282 20.918 9.1845 20.8734Z" fill="#C4CADB"/>
</svg>
