<svg width="45" height="45" viewBox="0 0 45 45" fill="none" xmlns="http://www.w3.org/2000/svg">
<path d="M28.3355 43C27.9118 42.7745 27.4192 42.7118 27.03 42.3861C26.5541 41.9873 26.097 41.5801 25.8539 40.9996C25.7422 40.7334 25.6013 40.6478 25.3154 40.6488C22.5958 40.6593 19.8753 40.6666 17.1557 40.6457C15.8074 40.6353 14.8484 39.9243 14.216 38.7842C14.0219 38.4334 13.8466 38.2977 13.4437 38.3008C11.1145 38.3217 8.78525 38.3227 6.45601 38.306C5.40618 38.2987 4.5014 37.8884 3.69264 37.2182C2.79099 36.4717 2.23477 35.5185 2.06571 34.3878C1.94257 33.563 1.97075 32.7257 2.33913 31.9145C2.56245 31.4227 2.82439 30.9853 3.15207 30.5624C3.64568 29.9266 4.30521 29.5508 5.02423 29.2522C5.63367 28.9985 6.28382 28.9473 6.9277 28.9442C9.86848 28.9296 12.8093 28.9296 15.7511 28.9484C16.1111 28.9505 16.1779 28.845 16.1612 28.5193C16.1341 27.9743 16.1309 27.4251 16.1622 26.8801C16.181 26.5544 16.06 26.5095 15.774 26.5106C13.1328 26.52 10.4904 26.5106 7.84917 26.5158C6.66576 26.5179 5.77664 25.951 5.08267 25.0573C4.62976 24.4737 4.43774 23.7846 4.43879 23.0329C4.44609 17.3826 4.43357 11.7323 4.4534 6.08198C4.45548 5.40127 4.78838 4.80096 5.23399 4.27894C6.02397 3.35079 7.05397 3 8.24468 3C15.8575 3.00418 23.4704 2.99791 31.0832 3.00626C32.0673 3.00626 32.9992 3.24744 33.7432 3.93336C34.3683 4.50863 34.7628 5.23527 34.8108 6.09556C35.0018 9.51163 34.8547 12.9308 34.8901 16.349C34.912 18.4444 34.8943 20.5408 34.8943 22.6372C34.8943 23.6395 34.6689 24.5801 33.9864 25.3381C33.3373 26.0595 32.5098 26.5032 31.5194 26.5095C28.8646 26.5262 26.2097 26.521 23.5549 26.5095C23.2554 26.5085 23.1594 26.5742 23.1729 26.8864C23.2001 27.4836 23.1886 28.0839 23.1761 28.6821C23.1719 28.8836 23.2272 28.94 23.4328 28.9452C23.8158 28.9557 24.1946 28.9233 24.5849 28.9985C25.2371 29.1238 25.5272 29.7471 25.5126 30.148C25.4907 30.7806 24.9293 31.2807 24.2958 31.2807C18.4529 31.2807 12.6099 31.2755 6.76699 31.286C5.64515 31.288 4.74455 31.8915 4.42313 32.9804C3.94518 34.6008 5.36443 36.0019 6.57289 35.9789C8.91466 35.935 11.2575 35.9643 13.6003 35.9726C13.8549 35.9726 14.0062 35.9267 14.1315 35.6636C14.7806 34.2969 15.9316 33.657 17.3947 33.6361C20.0224 33.5985 22.6522 33.6215 25.2809 33.6309C25.5679 33.6309 25.7203 33.5724 25.8612 33.2801C26.3934 32.1755 27.2971 31.5313 28.5118 31.3643C29.5752 31.2181 30.6449 31.2171 31.7072 31.3674C32.181 31.4342 32.4555 31.8842 32.4023 32.354C32.3762 32.5816 32.5609 32.7633 32.5598 33.0097C32.5463 35.887 32.5452 38.7644 32.5557 41.6417C32.5578 42.2953 32.2155 42.6972 31.6926 43H28.3344H28.3355ZM19.5862 5.34594C19.4036 5.34594 19.222 5.34594 19.0394 5.34594C15.3566 5.34594 11.6749 5.34594 7.99214 5.34594C7.31695 5.34594 6.78786 5.80323 6.78682 6.40146C6.78369 11.9735 6.78786 17.5444 6.77951 23.1164C6.77951 23.5476 7.29086 24.174 7.83456 24.174C15.5632 24.1688 23.293 24.173 31.0216 24.1698C31.4526 24.1698 31.8669 24.151 32.2113 23.7877C32.588 23.391 32.5296 22.8951 32.5317 22.4639C32.5609 17.2437 32.5505 12.0236 32.5505 6.80341C32.5505 5.81993 32.0788 5.3449 31.1009 5.3449C27.2627 5.3449 23.4234 5.3449 19.5851 5.3449L19.5862 5.34594ZM21.1902 38.3133C22.5301 38.3133 23.8711 38.306 25.211 38.3196C25.4657 38.3217 25.5387 38.2559 25.5304 38.0001C25.5105 37.4019 25.5168 36.8026 25.5283 36.2034C25.5324 36.0144 25.4751 35.9611 25.2883 35.9653C24.755 35.9768 24.2217 35.9695 23.6874 35.9695C21.5533 35.9695 19.4192 35.9716 17.2851 35.9695C16.6433 35.9695 16.0871 36.5437 16.1455 37.2213C16.1977 37.8237 16.6579 38.3102 17.2862 38.3113C18.5875 38.3133 19.8888 38.3113 21.1902 38.3133ZM30.2087 37.143C30.2087 36.0634 30.2108 34.9839 30.2056 33.9044C30.2056 33.7979 30.2869 33.6235 30.0563 33.6256C29.666 33.6298 29.2695 33.5839 28.8875 33.6413C28.4544 33.7071 28.0881 33.9148 27.9201 34.3805C27.8356 34.6154 27.8742 34.8472 27.8763 35.0706C27.8909 36.5468 27.8095 38.0241 27.9149 39.5004C27.9702 40.2709 28.3219 40.652 29.0785 40.6561C29.3519 40.6582 29.6264 40.6384 29.8967 40.6614C30.1565 40.6843 30.217 40.5935 30.2139 40.3419C30.1993 39.2759 30.2076 38.2089 30.2076 37.1419L30.2087 37.143ZM18.5144 27.7269C18.5082 27.7269 18.5019 27.7269 18.4957 27.7269C18.4957 28.0526 18.5061 28.3783 18.4915 28.703C18.4831 28.8889 18.5384 28.9473 18.7284 28.9442C19.3524 28.9327 19.9775 28.9327 20.6016 28.9442C20.7873 28.9473 20.85 28.8972 20.8426 28.7072C20.828 28.3564 20.8489 28.0046 20.8353 27.6538C20.8207 27.2821 21.0013 26.7851 20.7623 26.5742C20.5557 26.3915 20.0694 26.5137 19.7072 26.522C19.3096 26.5325 18.7753 26.3487 18.5541 26.5983C18.361 26.8144 18.5144 27.3395 18.5144 27.7279V27.7269Z" fill="#C4CADB"/>
<path d="M38.6427 43C38.5707 42.8267 38.4788 42.6701 38.3755 42.5103C38.0917 42.0718 38.0677 41.5791 38.3693 41.1458C38.9996 40.2385 39.4431 39.2415 39.5589 38.1588C39.6967 36.8726 39.6268 35.5853 39.0549 34.369C38.8086 33.8438 38.4465 33.3803 38.2513 32.8353C37.9623 32.0293 38.4434 31.4039 39.2793 31.3455C40.0118 31.2943 40.2957 31.7881 40.5869 32.2736C40.95 32.8812 41.2944 33.5014 41.5073 34.1863C41.6461 34.6321 41.7536 35.0841 41.8391 35.5414C41.8621 35.6625 41.8642 35.7701 42.0009 35.8108V38.2329C41.9049 38.2862 41.8558 38.3885 41.8506 38.4783C41.7984 39.3855 41.5094 40.2333 41.1253 41.0372C40.7622 41.7962 40.4543 42.6294 39.5798 42.9989H38.6427V43Z" fill="#C4CADB"/>
<path d="M35.201 40.6561C34.7011 40.701 34.4183 40.4066 34.1898 40.0182C33.9508 39.6131 34.0051 39.2237 34.2472 38.8478C34.531 38.4062 34.8368 37.998 34.9161 37.4353C34.9964 36.8663 34.8483 36.3975 34.5842 35.9329C34.4851 35.7575 34.3536 35.6009 34.244 35.4318C33.9007 34.9035 34.0217 34.2656 34.4987 33.8918C35.081 33.4366 35.8543 33.6841 36.1632 34.0818C36.6432 34.7009 37.022 35.3712 37.1744 36.1647C37.4436 37.572 37.1785 38.8384 36.3134 39.9869C36.0254 40.37 35.7322 40.6989 35.201 40.6561Z" fill="#C4CADB"/>
<path d="M21.5324 21.734C20.7654 21.8844 19.9368 21.8228 19.1103 21.8259C17.9853 21.8311 16.8833 21.662 15.774 21.4647C14.1262 21.1713 12.5932 20.5783 11.0769 19.9143C10.3119 19.5802 10.0176 18.8379 10.4205 18.1541C11.4348 16.4314 12.4721 14.7213 13.5 13.007C13.6545 12.7502 13.8246 12.5006 13.9613 12.2344C14.3077 11.56 15.1259 11.4524 15.7364 11.7416C16.3458 12.0308 17.021 12.178 17.6879 12.2918C19.0195 12.5184 20.3427 12.5518 21.6837 12.2448C22.4622 12.0674 23.2167 11.8533 23.9545 11.561C24.3438 11.4075 24.9521 11.632 25.2141 12.0611C25.9968 13.3421 26.7669 14.6305 27.5371 15.9188C27.9503 16.6099 28.3813 17.2927 28.7591 18.0027C29.2631 18.9486 29.0502 19.4967 28.0662 19.9571C27.201 20.3611 26.3213 20.7224 25.4009 20.9803C24.3573 21.2726 23.3169 21.5691 22.2316 21.6787C22.0176 21.7006 21.8079 21.7716 21.5324 21.733V21.734ZM19.7385 19.4873C20.3062 19.5009 21.0711 19.4403 21.8381 19.3401C23.2209 19.1605 24.5608 18.8483 25.8642 18.3472C26.1898 18.2219 26.1554 18.1374 26.0135 17.9077C25.2997 16.7519 24.5806 15.5972 23.8981 14.4227C23.751 14.169 23.6529 14.1638 23.4056 14.2421C22.5112 14.5229 21.5908 14.7265 20.66 14.785C19.0455 14.8873 17.4395 14.7787 15.8919 14.2452C15.5955 14.1429 15.4598 14.217 15.3273 14.4853C15.1614 14.8236 14.9433 15.1358 14.7492 15.4605C14.2441 16.303 13.739 17.1455 13.2391 17.9912C13.1744 18.1008 13.021 18.2177 13.2924 18.3201C15.3054 19.078 17.3748 19.5165 19.7374 19.4873H19.7385Z" fill="#C4CADB"/>
<path d="M27.8199 10.0317C27.4296 10.0317 27.0393 10.0328 26.65 10.0317C26.0604 10.0286 25.5699 9.55772 25.5209 9.01378C25.4457 8.18586 26.026 7.7077 26.5811 7.6983C27.4849 7.68264 28.3907 7.64297 29.2913 7.76721C29.6576 7.81836 30.0541 8.19108 30.1293 8.56067C30.2305 9.05972 30.0051 9.63602 29.6012 9.87093C29.4155 9.97847 29.2203 10.0505 28.9897 10.039C28.6005 10.0192 28.2102 10.0338 27.8199 10.0338V10.0317Z" fill="#C4CADB"/>
<path d="M10.2399 10.0314C9.59604 10.0303 9.1567 9.53129 9.11704 8.85371C9.08573 8.32021 9.56891 7.67291 10.218 7.69797C11.0205 7.72929 11.4171 8.20433 11.4557 8.87251C11.4912 9.48849 10.8786 10.0324 10.2389 10.0314H10.2399Z" fill="#C4CADB"/>
</svg>
