<svg width="60" height="59" viewBox="0 0 60 59" fill="none" xmlns="http://www.w3.org/2000/svg">
<path d="M53.0596 23.801C54.0441 23.801 54.8705 23.0649 54.9834 22.0895L56.6137 8.20752H43.6078L45.238 22.0895C45.3509 23.0649 46.1819 23.801 47.1618 23.801H53.0551H53.0596Z" stroke="#262626" stroke-width="2" stroke-miterlimit="10" stroke-linecap="round"/>
<path d="M17.7044 46.3848V52.3142C17.7044 55.0825 19.9488 57.3224 22.7126 57.3224H45.1025C47.8708 57.3224 50.1107 55.078 50.1107 52.3142V27.9463" stroke="#262626" stroke-width="2" stroke-miterlimit="10" stroke-linecap="round"/>
<path d="M50.1107 27.9464C49.072 27.9464 48.1734 27.2148 47.9656 26.1987L47.4689 23.8008H52.7525L52.2558 26.1987C52.0435 27.2148 51.1493 27.9464 50.1107 27.9464Z" stroke="#262626" stroke-width="2" stroke-miterlimit="10" stroke-linecap="round"/>
<path d="M56.6136 8.20739H57.86C58.5329 8.20739 59.0387 7.59323 58.9122 6.92939L58.2981 3.79082C58.0587 2.56249 56.9794 1.67285 55.7285 1.67285H44.4884C43.233 1.67285 42.1582 2.56249 41.9188 3.79082L41.3047 6.92939C41.1737 7.59323 41.684 8.20739 42.3569 8.20739H43.6033" stroke="#262626" stroke-width="2" stroke-miterlimit="10" stroke-linecap="round"/>
<path d="M7.82359 39.0874H27.5853C28.5562 39.0874 29.342 39.8732 29.342 40.8441V44.5426C29.342 45.5136 28.5562 46.2993 27.5853 46.2993H7.82359C6.85267 46.2993 6.06689 45.5136 6.06689 44.5426V40.8441C6.06689 39.8732 6.85267 39.0874 7.82359 39.0874Z" stroke="#262626" stroke-width="2" stroke-miterlimit="10" stroke-linecap="round"/>
<path d="M14.7329 42.6909H20.6714" stroke="#262626" stroke-width="2" stroke-miterlimit="10" stroke-linecap="round"/>
<path d="M4.33273 12.8726H31.0715C32.5392 12.8726 33.7269 14.0648 33.7269 15.5279V30.584C33.7269 32.0517 32.5347 33.2394 31.0715 33.2394H4.33273C2.86506 33.2394 1.67737 32.0472 1.67737 30.584V15.5279C1.67737 14.0602 2.86957 12.8726 4.33273 12.8726Z" stroke="#262626" stroke-width="2" stroke-linecap="round" stroke-linejoin="round"/>
<path d="M27.4859 25.061C21.9855 30.2227 13.4233 30.2227 7.92291 25.061L12.6601 18.9961C15.4961 21.6605 19.9172 21.6605 22.7532 18.9961L27.4904 25.061H27.4859Z" fill="#30A9FE"/>
<path d="M5.245 16.2412H8.10358" stroke="#262626" stroke-width="2" stroke-linecap="round" stroke-linejoin="round"/>
<path d="M5.245 18.9912H6.67203" stroke="#262626" stroke-width="2" stroke-linecap="round" stroke-linejoin="round"/>
<path d="M13.5317 33.2437C14.3039 35.1132 14.3039 37.2132 13.5317 39.0827" stroke="#262626" stroke-width="2" stroke-miterlimit="10" stroke-linecap="round"/>
<path d="M21.8771 33.2437C21.1049 35.1132 21.1049 37.2132 21.8771 39.0827" stroke="#262626" stroke-width="2" stroke-miterlimit="10" stroke-linecap="round"/>
<path d="M47.8482 21.0913H52.3686L53.1093 14.769C51.9577 15.7851 50.1468 16.896 47.4192 17.465L47.8437 21.0913H47.8482Z" fill="#30A9FE"/>
</svg>
