<svg width="60" height="59" viewBox="0 0 60 59" fill="none" xmlns="http://www.w3.org/2000/svg">
<path d="M28.0141 11.5464L34.3688 22.5531L26.383 36.3797H10.4203L2.43451 22.5531L10.4203 8.72656H23.1252" stroke="var(--color-primary)" stroke-width="2" stroke-miterlimit="10"/>
<path d="M12.61 32.5859H24.1933" stroke="var(--color-primary)" stroke-width="2" stroke-miterlimit="10" stroke-linecap="round"/>
<path d="M47.0603 50.2064H34.3599L26.3785 36.3798L34.3599 22.5532H50.327L58.3084 36.3798L51.9537 47.3821" stroke="var(--color-primary)" stroke-width="2" stroke-miterlimit="10"/>
<path d="M36.5496 26.3472H48.1373" stroke="var(--color-primary)" stroke-width="2" stroke-miterlimit="10" stroke-linecap="round"/>
<path d="M50.327 22.553L54.6082 14.9336" stroke="var(--color-primary)" stroke-width="2" stroke-miterlimit="10"/>
<path d="M55.9354 15.2643C57.5026 15.2643 58.7731 13.9938 58.7731 12.4266C58.7731 10.8594 57.5026 9.58887 55.9354 9.58887C54.3681 9.58887 53.0977 10.8594 53.0977 12.4266C53.0977 13.9938 54.3681 15.2643 55.9354 15.2643Z" stroke="var(--color-primary)" stroke-width="2" stroke-miterlimit="10"/>
<path d="M10.4203 36.3799L5.83978 44.4283" stroke="var(--color-primary)" stroke-width="2" stroke-miterlimit="10"/>
<path d="M1.67035 46.9354C1.67035 45.3668 2.9395 44.0977 4.50806 44.0977C6.07662 44.0977 7.34577 45.3668 7.34577 46.9354C7.34577 48.5039 6.07662 49.7731 4.50806 49.7731C2.9395 49.7731 1.67035 48.5039 1.67035 46.9354Z" stroke="var(--color-primary)" stroke-width="2" stroke-miterlimit="10"/>
<path d="M26.383 1.67041C30.2754 1.67041 33.4393 4.83435 33.4393 8.7267" stroke="var(--color-primary)" stroke-width="2" stroke-miterlimit="10" stroke-linecap="round"/>
<path d="M29.397 9.97508C30.0865 8.31053 29.2961 6.40222 27.6315 5.71275C25.967 5.02327 24.0587 5.81372 23.3692 7.47826C22.6797 9.14281 23.4702 11.0511 25.1347 11.7406C26.7993 12.4301 28.7076 11.6396 29.397 9.97508Z" stroke="var(--color-primary)" stroke-width="2" stroke-miterlimit="10"/>
<path d="M57.3833 50.2065C57.3833 54.0944 54.2194 57.2628 50.327 57.2628" stroke="var(--color-primary)" stroke-width="2" stroke-miterlimit="10" stroke-linecap="round"/>
<path d="M50.327 53.4688C52.1287 53.4688 53.5893 52.0083 53.5893 50.2066C53.5893 48.4049 52.1287 46.9443 50.327 46.9443C48.5253 46.9443 47.0648 48.4049 47.0648 50.2066C47.0648 52.0083 48.5253 53.4688 50.327 53.4688Z" stroke="var(--color-primary)" stroke-width="2" stroke-miterlimit="10"/>
<path d="M34.3599 50.2065L32.0986 53.8486" stroke="var(--color-primary)" stroke-width="2" stroke-miterlimit="10"/>
<path d="M32.979 55.4526C32.979 54.4158 32.1388 53.5757 31.1021 53.5757C30.0653 53.5757 29.2252 54.4158 29.2252 55.4526C29.2252 56.4894 30.0653 57.3295 31.1021 57.3295C32.1388 57.3295 32.979 56.4894 32.979 55.4526Z" stroke="var(--color-primary)" stroke-width="2" stroke-miterlimit="10"/>
<path d="M10.4203 8.72641L8.31104 5.03516" stroke="var(--color-primary)" stroke-width="2" stroke-miterlimit="10"/>
<path d="M6.50112 5.31229C7.47533 5.6698 8.55232 5.16482 8.90982 4.19061C9.26733 3.21641 8.76235 2.13942 7.78815 1.78191C6.81394 1.4244 5.73695 1.92938 5.37944 2.90359C5.02194 3.87779 5.52692 4.95478 6.50112 5.31229Z" stroke="var(--color-primary)" stroke-width="2" stroke-miterlimit="10"/>
<path d="M5.72357 22.5532L10.112 30.0876L9.14223 23.8447L15.1886 13.5887L20.7657 11.5732H12.0604L5.72357 22.5532Z" fill="var(--color-secondary)"/>
<path d="M46.019 44.6294C47.2122 43.7044 48.7048 43.1503 50.3225 43.1503C50.5951 43.1503 50.8633 43.1681 51.1269 43.1994L55.0372 36.4247L50.6488 28.8857L51.6185 35.1287L46.019 44.625V44.6294Z" fill="var(--color-secondary)"/>
</svg>
