<svg width="45" height="45" viewBox="0 0 45 45" fill="none" xmlns="http://www.w3.org/2000/svg">
<path d="M22.5 44.1594C34.6503 44.1594 44.5 34.3097 44.5 22.1594C44.5 10.0092 34.6503 0.159424 22.5 0.159424C10.3497 0.159424 0.5 10.0092 0.5 22.1594C0.5 34.3097 10.3497 44.1594 22.5 44.1594Z" fill="white"/>
<path d="M22.6833 32.6094C28.556 32.6094 33.3167 27.8487 33.3167 21.9761C33.3167 16.1035 28.556 11.3428 22.6833 11.3428C16.8107 11.3428 12.05 16.1035 12.05 21.9761C12.05 27.8487 16.8107 32.6094 22.6833 32.6094Z" stroke="var(--color-primary)" stroke-width="2.6"/>
<path d="M12.9666 28.0261L11.28 34.0028L17.4766 32.2794L17.8066 30.3728L13.7733 31.6561L14.8366 27.8061L12.9666 28.0261Z" fill="var(--color-primary)"/>
<path d="M13.7 31.6927C13.7 31.6561 14.9833 27.4027 14.9833 27.4027L18.0634 30.2994L13.7 31.6927Z" fill="var(--color-primary)"/>
<path d="M18.0883 16.7082C17.7139 16.968 17.3947 17.2994 17.1493 17.6833C16.9038 18.0672 16.7369 18.496 16.6583 18.9448C16.4749 20.3748 17.355 21.8415 17.355 21.8415C18.2476 23.1696 19.3074 24.3773 20.5083 25.4348C21.5588 26.2661 22.7514 26.8997 24.0283 27.3048C24.7731 27.6022 25.5878 27.6786 26.3749 27.5248C27.0726 27.3333 27.6898 26.9218 28.1349 26.3515C28.2392 26.092 28.3131 25.8213 28.355 25.5448C28.3969 25.3022 28.3969 25.0542 28.355 24.8115C28.3183 24.5548 25.6783 23.3448 25.4216 23.4182C25.165 23.4915 24.9449 23.9682 24.6516 24.3715C24.3582 24.7748 24.2483 24.9582 23.955 24.9582C23.6616 24.9582 22.3782 24.4448 21.1682 23.3448C20.4771 22.7456 19.937 21.9919 19.5916 21.1448C19.5916 21.1448 19.8116 20.8882 20.105 20.4848C20.3332 20.2348 20.4968 19.9327 20.5816 19.6048C20.5816 19.4215 19.5549 16.8182 19.2983 16.7082C18.8969 16.6518 18.4896 16.6518 18.0883 16.7082Z" fill="var(--color-primary)"/>
</svg>
